<?xml version="1.0" encoding="UTF-8" standalone="no"?>
<!DOCTYPE svg PUBLIC "-//W3C//DTD SVG 1.1//EN" "http://www.w3.org/Graphics/SVG/1.1/DTD/svg11.dtd">
<svg width="100%" height="100%" viewBox="0 0 1800 1200" version="1.1" xmlns="http://www.w3.org/2000/svg" xmlns:xlink="http://www.w3.org/1999/xlink" xml:space="preserve" xmlns:serif="http://www.serif.com/" style="fill-rule:evenodd;clip-rule:evenodd;stroke-linecap:round;stroke-linejoin:round;stroke-miterlimit:1.5;">
    <rect id="three-channel" x="0" y="0" width="1800" height="1200" style="fill:white;"/>
    <g id="Helium">
        <g id="Gold">
            <g id="Rings">
                <g>
                    <circle cx="856.131" cy="288.531" r="37.864" style="fill:rgb(203,202,190);"/>
                    <circle cx="856.131" cy="483.241" r="37.864" style="fill:rgb(203,202,190);"/>
                    <circle cx="943.869" cy="875.361" r="37.864" style="fill:rgb(203,202,190);"/>
                    <circle cx="856.131" cy="969.848" r="37.864" style="fill:rgb(203,202,190);"/>
                    <circle cx="856.131" cy="875.361" r="37.864" style="fill:rgb(203,202,190);"/>
                    <circle cx="856.131" cy="680.314" r="37.864" style="fill:rgb(203,202,190);"/>
                    <g>
                        <path d="M907.824,227.762c0.001,-1.678 -2.264,-3.666 -4.026,-3.667l-7.239,-0.226c-1.762,-0.002 -3.461,1.764 -3.463,3.441c-0.001,1.677 0.783,2.618 2.545,2.619l9.164,0.006c1.762,0.001 3.018,-0.496 3.019,-2.173Z" style="fill:rgb(203,202,190);"/>
                        <path d="M906.317,229.259c0.001,-1.448 -1.524,-2.356 -3.045,-2.357l-5.545,-0c-1.521,-0.001 -3.047,0.864 -3.049,2.312c-0.001,1.448 0.941,2.856 2.52,3.343c2.278,0.702 4.557,0.499 6.835,-0.454c1.521,0.001 2.283,-1.396 2.284,-2.844Z" style="fill:rgb(203,202,190);"/>
                        <path d="M900.527,169.044c15.422,0 25.285,10.3 25.285,26.553c0,16.253 -14.31,29.51 -24.914,34.338c-10.583,-5.66 -26.562,-16.735 -26.562,-32.988c0,-16.253 10.768,-27.903 26.191,-27.903Zm-20.371,26.176c0.99,-0.012 1.566,0.543 2.718,3.035c0.956,2.066 1.013,8.068 2.608,11.789c1.695,3.953 8.181,10.055 8.602,11.46c0.857,2.863 -7.742,-5.414 -10.571,-9.25c-3.168,-4.295 -8.37,-15.827 -3.357,-17.034Zm41.482,-8.511c0.789,-0 1.43,0.643 1.43,1.436c0,0.792 -0.641,1.436 -1.43,1.436c-0.789,-0 -1.43,-0.644 -1.43,-1.436c0,-0.793 0.641,-1.436 1.43,-1.436Zm-12.925,-14.415c2.882,-0.988 11.52,7.386 11.277,10.093c-0.084,0.929 -0.721,2.881 -1.72,2.677c-1.929,-0.394 -8.999,-3.008 -9.855,-5.041c-0.725,-1.72 -2.986,-6.603 0.298,-7.729Z" style="fill:rgb(203,202,190);"/>
                    </g>
                    <path id="EdgeCuts" d="M979.788,87.747l-159.427,-0l0,1024.51l159.427,0l-0,-1024.51Zm-99.622,987.746c7.085,0 12.838,5.753 12.838,12.839c-0,7.085 -5.753,12.838 -12.838,12.838c-7.086,-0 -12.838,-5.753 -12.838,-12.838c-0,-7.086 5.752,-12.839 12.838,-12.839Zm-0,-976.663c7.085,0 12.838,5.753 12.838,12.838c-0,7.086 -5.753,12.839 -12.838,12.839c-7.086,-0 -12.838,-5.753 -12.838,-12.839c-0,-7.085 5.752,-12.838 12.838,-12.838Z" style="fill:none;stroke:rgb(12,12,12);stroke-width:4.17px;"/>
                    <g id="Jack">
                        <path d="M888.613,381.639c0.143,0.248 0.143,0.554 -0,0.801c-1.838,3.184 -14.056,24.346 -15.894,27.529c-0.143,0.248 -0.408,0.401 -0.694,0.401c-3.676,-0 -28.112,0.001 -31.788,0.001c-0.286,0 -0.55,-0.153 -0.694,-0.4c-1.837,-3.184 -14.055,-24.345 -15.893,-27.528c-0.143,-0.248 -0.143,-0.553 -0,-0.801c1.838,-3.183 14.056,-24.345 15.894,-27.528c0.143,-0.248 0.407,-0.401 0.693,-0.401c3.676,-0 28.112,-0.001 31.788,-0.001c0.286,-0.001 0.551,0.152 0.694,0.4c1.838,3.183 14.056,24.344 15.894,27.527Z" style="fill:rgb(254,255,254);stroke:rgb(17,18,24);stroke-width:4.17px;"/>
                        <ellipse cx="856.131" cy="382.041" rx="17.08" ry="17.079" style="fill:rgb(131,133,136);"/>
                        <path d="M856.131,362.23c10.935,-0 19.813,8.877 19.813,19.811c-0,10.935 -8.878,19.812 -19.813,19.812c-10.935,-0 -19.812,-8.877 -19.812,-19.812c-0,-10.934 8.877,-19.811 19.812,-19.811Zm0,2.732c-9.427,0 -17.08,7.653 -17.08,17.079c0,9.426 7.653,17.079 17.08,17.079c9.427,0 17.08,-7.653 17.08,-17.079c0,-9.426 -7.653,-17.079 -17.08,-17.079Z" style="fill:rgb(131,133,136);"/>
                    </g>
                    <g id="Jack1" serif:id="Jack">
                        <path d="M976.13,381.639c0.143,0.248 0.143,0.554 0,0.801c-1.838,3.184 -14.056,24.346 -15.894,27.529c-0.143,0.248 -0.407,0.401 -0.694,0.401c-3.675,-0 -28.111,0.001 -31.787,0.001c-0.286,0 -0.551,-0.153 -0.694,-0.4c-1.838,-3.184 -14.056,-24.345 -15.894,-27.528c-0.143,-0.248 -0.143,-0.553 0,-0.801c1.838,-3.183 14.056,-24.345 15.894,-27.528c0.143,-0.248 0.408,-0.401 0.694,-0.401c3.675,-0 28.112,-0.001 31.787,-0.001c0.287,-0.001 0.551,0.152 0.694,0.4c1.838,3.183 14.056,24.344 15.894,27.527Z" style="fill:rgb(254,255,254);stroke:rgb(17,18,24);stroke-width:4.17px;"/>
                        <ellipse cx="943.649" cy="382.041" rx="17.08" ry="17.079" style="fill:rgb(131,133,136);"/>
                        <path d="M943.649,362.23c10.935,-0 19.812,8.877 19.812,19.811c0,10.935 -8.877,19.812 -19.812,19.812c-10.935,-0 -19.813,-8.877 -19.813,-19.812c-0,-10.934 8.878,-19.811 19.813,-19.811Zm-0,2.732c-9.427,0 -17.08,7.653 -17.08,17.079c-0,9.426 7.653,17.079 17.08,17.079c9.426,0 17.08,-7.653 17.08,-17.079c-0,-9.426 -7.654,-17.079 -17.08,-17.079Z" style="fill:rgb(131,133,136);"/>
                    </g>
                    <g id="Jack2" serif:id="Jack">
                        <path d="M888.613,482.894c0.143,0.248 0.143,0.554 -0,0.802c-1.838,3.183 -14.056,24.345 -15.894,27.528c-0.143,0.248 -0.408,0.401 -0.694,0.401c-3.676,-0 -28.112,0.001 -31.788,0.001c-0.286,0 -0.55,-0.152 -0.694,-0.4c-1.837,-3.183 -14.055,-24.344 -15.893,-27.528c-0.143,-0.247 -0.143,-0.553 -0,-0.801c1.838,-3.183 14.056,-24.345 15.894,-27.528c0.143,-0.248 0.407,-0.401 0.693,-0.401c3.676,-0 28.112,-0.001 31.788,-0.001c0.286,-0 0.551,0.152 0.694,0.4c1.838,3.183 14.056,24.344 15.894,27.527Z" style="fill:rgb(254,255,254);stroke:rgb(17,18,24);stroke-width:4.17px;"/>
                        <ellipse cx="856.131" cy="483.296" rx="17.08" ry="17.079" style="fill:rgb(131,133,136);"/>
                        <path d="M856.131,463.485c10.935,-0 19.813,8.877 19.813,19.811c-0,10.935 -8.878,19.812 -19.813,19.812c-10.935,0 -19.812,-8.877 -19.812,-19.812c-0,-10.934 8.877,-19.811 19.812,-19.811Zm0,2.732c-9.427,0 -17.08,7.653 -17.08,17.079c0,9.427 7.653,17.079 17.08,17.079c9.427,0 17.08,-7.652 17.08,-17.079c0,-9.426 -7.653,-17.079 -17.08,-17.079Z" style="fill:rgb(131,133,136);"/>
                    </g>
                    <g id="Jack3" serif:id="Jack">
                        <path d="M976.13,482.894c0.143,0.248 0.143,0.554 0,0.802c-1.838,3.183 -14.056,24.345 -15.894,27.528c-0.143,0.248 -0.407,0.401 -0.694,0.401c-3.675,-0 -28.111,0.001 -31.787,0.001c-0.286,0 -0.551,-0.152 -0.694,-0.4c-1.838,-3.183 -14.056,-24.344 -15.894,-27.528c-0.143,-0.247 -0.143,-0.553 0,-0.801c1.838,-3.183 14.056,-24.345 15.894,-27.528c0.143,-0.248 0.408,-0.401 0.694,-0.401c3.675,-0 28.112,-0.001 31.787,-0.001c0.287,-0 0.551,0.152 0.694,0.4c1.838,3.183 14.056,24.344 15.894,27.527Z" style="fill:rgb(254,255,254);stroke:rgb(17,18,24);stroke-width:4.17px;"/>
                        <ellipse cx="943.649" cy="483.296" rx="17.08" ry="17.079" style="fill:rgb(131,133,136);"/>
                        <path d="M943.649,463.485c10.935,-0 19.812,8.877 19.812,19.811c0,10.935 -8.877,19.812 -19.812,19.812c-10.935,0 -19.813,-8.877 -19.813,-19.812c-0,-10.934 8.878,-19.811 19.813,-19.811Zm-0,2.732c-9.427,0 -17.08,7.653 -17.08,17.079c-0,9.427 7.653,17.079 17.08,17.079c9.426,0 17.08,-7.652 17.08,-17.079c-0,-9.426 -7.654,-17.079 -17.08,-17.079Z" style="fill:rgb(131,133,136);"/>
                    </g>
                    <g id="Jack4" serif:id="Jack">
                        <path d="M888.613,577.349c0.143,0.248 0.143,0.554 -0,0.801c-1.838,3.184 -14.056,24.346 -15.894,27.529c-0.143,0.248 -0.408,0.401 -0.694,0.401c-3.676,-0 -28.112,0.001 -31.788,0.001c-0.286,0 -0.55,-0.153 -0.694,-0.4c-1.837,-3.183 -14.055,-24.344 -15.893,-27.528c-0.143,-0.247 -0.143,-0.553 -0,-0.801c1.838,-3.183 14.056,-24.345 15.894,-27.528c0.143,-0.248 0.407,-0.401 0.693,-0.401c3.676,-0 28.112,-0.001 31.788,-0.001c0.286,-0 0.551,0.152 0.694,0.4c1.838,3.183 14.056,24.344 15.894,27.527Z" style="fill:rgb(254,255,254);stroke:rgb(17,18,24);stroke-width:4.17px;"/>
                        <ellipse cx="856.131" cy="577.751" rx="17.08" ry="17.079" style="fill:rgb(131,133,136);"/>
                        <path d="M856.131,557.94c10.935,-0 19.813,8.877 19.813,19.811c-0,10.935 -8.878,19.812 -19.813,19.812c-10.935,0 -19.812,-8.877 -19.812,-19.812c-0,-10.934 8.877,-19.811 19.812,-19.811Zm0,2.732c-9.427,0 -17.08,7.653 -17.08,17.079c0,9.426 7.653,17.079 17.08,17.079c9.427,0 17.08,-7.653 17.08,-17.079c0,-9.426 -7.653,-17.079 -17.08,-17.079Z" style="fill:rgb(131,133,136);"/>
                    </g>
                    <g id="Jack5" serif:id="Jack">
                        <path d="M976.13,577.349c0.143,0.248 0.143,0.554 0,0.801c-1.838,3.184 -14.056,24.346 -15.894,27.529c-0.143,0.248 -0.407,0.401 -0.694,0.401c-3.675,-0 -28.111,0.001 -31.787,0.001c-0.286,0 -0.551,-0.153 -0.694,-0.4c-1.838,-3.183 -14.056,-24.344 -15.894,-27.528c-0.143,-0.247 -0.143,-0.553 0,-0.801c1.838,-3.183 14.056,-24.345 15.894,-27.528c0.143,-0.248 0.408,-0.401 0.694,-0.401c3.675,-0 28.112,-0.001 31.787,-0.001c0.287,-0 0.551,0.152 0.694,0.4c1.838,3.183 14.056,24.344 15.894,27.527Z" style="fill:rgb(254,255,254);stroke:rgb(17,18,24);stroke-width:4.17px;"/>
                        <ellipse cx="943.649" cy="577.751" rx="17.08" ry="17.079" style="fill:rgb(131,133,136);"/>
                        <path d="M943.649,557.94c10.935,-0 19.812,8.877 19.812,19.811c0,10.935 -8.877,19.812 -19.812,19.812c-10.935,0 -19.813,-8.877 -19.813,-19.812c-0,-10.934 8.878,-19.811 19.813,-19.811Zm-0,2.732c-9.427,0 -17.08,7.653 -17.08,17.079c-0,9.426 7.653,17.079 17.08,17.079c9.426,0 17.08,-7.653 17.08,-17.079c-0,-9.426 -7.654,-17.079 -17.08,-17.079Z" style="fill:rgb(131,133,136);"/>
                    </g>
                    <g id="Jack6" serif:id="Jack">
                        <path d="M888.613,287.792c0.143,0.247 0.143,0.553 -0,0.801c-1.838,3.183 -14.056,24.345 -15.894,27.528c-0.143,0.248 -0.408,0.401 -0.694,0.401c-3.676,0 -28.112,0.001 -31.788,0.001c-0.286,0 -0.55,-0.152 -0.694,-0.4c-1.837,-3.183 -14.055,-24.344 -15.893,-27.527c-0.143,-0.248 -0.143,-0.554 -0,-0.801c1.838,-3.184 14.056,-24.346 15.894,-27.529c0.143,-0.248 0.407,-0.401 0.693,-0.401c3.676,0 28.112,-0.001 31.788,-0.001c0.286,-0 0.551,0.153 0.694,0.4c1.838,3.184 14.056,24.344 15.894,27.528Z" style="fill:rgb(254,255,254);stroke:rgb(17,18,24);stroke-width:4.17px;"/>
                        <ellipse cx="856.131" cy="288.194" rx="17.08" ry="17.079" style="fill:rgb(131,133,136);"/>
                        <path d="M856.131,268.382c10.935,0 19.813,8.877 19.813,19.812c-0,10.934 -8.878,19.811 -19.813,19.811c-10.935,0 -19.812,-8.877 -19.812,-19.811c-0,-10.935 8.877,-19.812 19.812,-19.812Zm0,2.733c-9.427,-0 -17.08,7.653 -17.08,17.079c0,9.426 7.653,17.079 17.08,17.079c9.427,-0 17.08,-7.653 17.08,-17.079c0,-9.426 -7.653,-17.079 -17.08,-17.079Z" style="fill:rgb(131,133,136);"/>
                    </g>
                    <g id="Jack7" serif:id="Jack">
                        <path d="M976.13,287.792c0.143,0.247 0.143,0.553 0,0.801c-1.838,3.183 -14.056,24.345 -15.894,27.528c-0.143,0.248 -0.407,0.401 -0.694,0.401c-3.675,0 -28.111,0.001 -31.787,0.001c-0.286,0 -0.551,-0.152 -0.694,-0.4c-1.838,-3.183 -14.056,-24.344 -15.894,-27.527c-0.143,-0.248 -0.143,-0.554 0,-0.801c1.838,-3.184 14.056,-24.346 15.894,-27.529c0.143,-0.248 0.408,-0.401 0.694,-0.401c3.675,0 28.112,-0.001 31.787,-0.001c0.287,-0 0.551,0.153 0.694,0.4c1.838,3.184 14.056,24.344 15.894,27.528Z" style="fill:rgb(254,255,254);stroke:rgb(17,18,24);stroke-width:4.17px;"/>
                        <ellipse cx="943.649" cy="288.194" rx="17.08" ry="17.079" style="fill:rgb(131,133,136);"/>
                        <path d="M943.649,268.382c10.935,0 19.812,8.877 19.812,19.812c0,10.934 -8.877,19.811 -19.812,19.811c-10.935,0 -19.813,-8.877 -19.813,-19.811c-0,-10.935 8.878,-19.812 19.813,-19.812Zm-0,2.733c-9.427,-0 -17.08,7.653 -17.08,17.079c-0,9.426 7.653,17.079 17.08,17.079c9.426,-0 17.08,-7.653 17.08,-17.079c-0,-9.426 -7.654,-17.079 -17.08,-17.079Z" style="fill:rgb(131,133,136);"/>
                    </g>
                    <g id="Jack8" serif:id="Jack">
                        <path d="M888.613,679.94c0.143,0.248 0.143,0.554 -0,0.802c-1.838,3.183 -14.056,24.345 -15.894,27.528c-0.143,0.248 -0.408,0.401 -0.694,0.401c-3.676,0 -28.112,0.001 -31.788,0.001c-0.286,0 -0.55,-0.152 -0.694,-0.4c-1.837,-3.183 -14.055,-24.344 -15.893,-27.527c-0.143,-0.248 -0.143,-0.554 -0,-0.802c1.838,-3.183 14.056,-24.345 15.894,-27.528c0.143,-0.248 0.407,-0.401 0.693,-0.401c3.676,0 28.112,-0.001 31.788,-0.001c0.286,-0 0.551,0.152 0.694,0.4c1.838,3.183 14.056,24.344 15.894,27.527Z" style="fill:rgb(254,255,254);stroke:rgb(17,18,24);stroke-width:4.17px;"/>
                        <ellipse cx="856.131" cy="680.343" rx="17.08" ry="17.079" style="fill:rgb(131,133,136);"/>
                        <path d="M856.131,660.531c10.935,-0 19.813,8.877 19.813,19.812c-0,10.934 -8.878,19.811 -19.813,19.811c-10.935,0 -19.812,-8.877 -19.812,-19.811c-0,-10.935 8.877,-19.812 19.812,-19.812Zm0,2.733c-9.427,-0 -17.08,7.652 -17.08,17.079c0,9.426 7.653,17.078 17.08,17.078c9.427,0 17.08,-7.652 17.08,-17.078c0,-9.427 -7.653,-17.079 -17.08,-17.079Z" style="fill:rgb(131,133,136);"/>
                    </g>
                    <g id="Jack9" serif:id="Jack">
                        <path d="M976.13,679.94c0.143,0.248 0.143,0.554 0,0.802c-1.838,3.183 -14.056,24.345 -15.894,27.528c-0.143,0.248 -0.407,0.401 -0.694,0.401c-3.675,0 -28.111,0.001 -31.787,0.001c-0.286,0 -0.551,-0.152 -0.694,-0.4c-1.838,-3.183 -14.056,-24.344 -15.894,-27.527c-0.143,-0.248 -0.143,-0.554 0,-0.802c1.838,-3.183 14.056,-24.345 15.894,-27.528c0.143,-0.248 0.408,-0.401 0.694,-0.401c3.675,0 28.112,-0.001 31.787,-0.001c0.287,-0 0.551,0.152 0.694,0.4c1.838,3.183 14.056,24.344 15.894,27.527Z" style="fill:rgb(254,255,254);stroke:rgb(17,18,24);stroke-width:4.17px;"/>
                        <ellipse cx="943.649" cy="680.343" rx="17.08" ry="17.079" style="fill:rgb(131,133,136);"/>
                        <path d="M943.649,660.531c10.935,-0 19.812,8.877 19.812,19.812c0,10.934 -8.877,19.811 -19.812,19.811c-10.935,0 -19.813,-8.877 -19.813,-19.811c-0,-10.935 8.878,-19.812 19.813,-19.812Zm-0,2.733c-9.427,-0 -17.08,7.652 -17.08,17.079c-0,9.426 7.653,17.078 17.08,17.078c9.426,0 17.08,-7.652 17.08,-17.078c-0,-9.427 -7.654,-17.079 -17.08,-17.079Z" style="fill:rgb(131,133,136);"/>
                    </g>
                    <g id="Jack10" serif:id="Jack">
                        <path d="M888.613,773.724c0.143,0.247 0.143,0.553 -0,0.801c-1.838,3.183 -14.056,24.345 -15.894,27.528c-0.143,0.248 -0.408,0.401 -0.694,0.401c-3.676,0 -28.112,0.001 -31.788,0.001c-0.286,0 -0.55,-0.152 -0.694,-0.4c-1.837,-3.183 -14.055,-24.344 -15.893,-27.527c-0.143,-0.248 -0.143,-0.554 -0,-0.801c1.838,-3.184 14.056,-24.346 15.894,-27.529c0.143,-0.248 0.407,-0.401 0.693,-0.401c3.676,0 28.112,-0.001 31.788,-0.001c0.286,-0 0.551,0.152 0.694,0.4c1.838,3.183 14.056,24.344 15.894,27.528Z" style="fill:rgb(254,255,254);stroke:rgb(17,18,24);stroke-width:4.17px;"/>
                        <ellipse cx="856.131" cy="774.126" rx="17.08" ry="17.079" style="fill:rgb(131,133,136);"/>
                        <path d="M856.131,754.314c10.935,-0 19.813,8.877 19.813,19.812c-0,10.934 -8.878,19.811 -19.813,19.811c-10.935,0 -19.812,-8.877 -19.812,-19.811c-0,-10.935 8.877,-19.812 19.812,-19.812Zm0,2.733c-9.427,-0 -17.08,7.652 -17.08,17.079c0,9.426 7.653,17.079 17.08,17.079c9.427,-0 17.08,-7.653 17.08,-17.079c0,-9.427 -7.653,-17.079 -17.08,-17.079Z" style="fill:rgb(131,133,136);"/>
                    </g>
                    <g id="Jack11" serif:id="Jack">
                        <path d="M976.13,773.724c0.143,0.247 0.143,0.553 0,0.801c-1.838,3.183 -14.056,24.345 -15.894,27.528c-0.143,0.248 -0.407,0.401 -0.694,0.401c-3.675,0 -28.111,0.001 -31.787,0.001c-0.286,0 -0.551,-0.152 -0.694,-0.4c-1.838,-3.183 -14.056,-24.344 -15.894,-27.527c-0.143,-0.248 -0.143,-0.554 0,-0.801c1.838,-3.184 14.056,-24.346 15.894,-27.529c0.143,-0.248 0.408,-0.401 0.694,-0.401c3.675,0 28.112,-0.001 31.787,-0.001c0.287,-0 0.551,0.152 0.694,0.4c1.838,3.183 14.056,24.344 15.894,27.528Z" style="fill:rgb(254,255,254);stroke:rgb(17,18,24);stroke-width:4.17px;"/>
                        <ellipse cx="943.649" cy="774.126" rx="17.08" ry="17.079" style="fill:rgb(131,133,136);"/>
                        <path d="M943.649,754.314c10.935,-0 19.812,8.877 19.812,19.812c0,10.934 -8.877,19.811 -19.812,19.811c-10.935,0 -19.813,-8.877 -19.813,-19.811c-0,-10.935 8.878,-19.812 19.813,-19.812Zm-0,2.733c-9.427,-0 -17.08,7.652 -17.08,17.079c-0,9.426 7.653,17.079 17.08,17.079c9.426,-0 17.08,-7.653 17.08,-17.079c-0,-9.427 -7.654,-17.079 -17.08,-17.079Z" style="fill:rgb(131,133,136);"/>
                    </g>
                    <g id="Jack12" serif:id="Jack">
                        <path d="M888.613,875.018c0.143,0.247 0.143,0.553 -0,0.801c-1.838,3.183 -14.056,24.345 -15.894,27.528c-0.143,0.248 -0.408,0.401 -0.694,0.401c-3.676,0 -28.112,0.001 -31.788,0.001c-0.286,0 -0.55,-0.152 -0.694,-0.4c-1.837,-3.183 -14.055,-24.344 -15.893,-27.527c-0.143,-0.248 -0.143,-0.554 -0,-0.801c1.838,-3.184 14.056,-24.346 15.894,-27.529c0.143,-0.248 0.407,-0.401 0.693,-0.401c3.676,0 28.112,-0.001 31.788,-0.001c0.286,-0 0.551,0.153 0.694,0.4c1.838,3.184 14.056,24.344 15.894,27.528Z" style="fill:rgb(254,255,254);stroke:rgb(17,18,24);stroke-width:4.17px;"/>
                        <ellipse cx="856.131" cy="875.42" rx="17.08" ry="17.079" style="fill:rgb(131,133,136);"/>
                        <path d="M856.131,855.608c10.935,0 19.813,8.877 19.813,19.812c-0,10.934 -8.878,19.811 -19.813,19.811c-10.935,0 -19.812,-8.877 -19.812,-19.811c-0,-10.935 8.877,-19.812 19.812,-19.812Zm0,2.733c-9.427,-0 -17.08,7.653 -17.08,17.079c0,9.426 7.653,17.079 17.08,17.079c9.427,-0 17.08,-7.653 17.08,-17.079c0,-9.426 -7.653,-17.079 -17.08,-17.079Z" style="fill:rgb(131,133,136);"/>
                    </g>
                    <g id="Jack13" serif:id="Jack">
                        <path d="M976.13,875.018c0.143,0.247 0.143,0.553 0,0.801c-1.838,3.183 -14.056,24.345 -15.894,27.528c-0.143,0.248 -0.407,0.401 -0.694,0.401c-3.675,0 -28.111,0.001 -31.787,0.001c-0.286,0 -0.551,-0.152 -0.694,-0.4c-1.838,-3.183 -14.056,-24.344 -15.894,-27.527c-0.143,-0.248 -0.143,-0.554 0,-0.801c1.838,-3.184 14.056,-24.346 15.894,-27.529c0.143,-0.248 0.408,-0.401 0.694,-0.401c3.675,0 28.112,-0.001 31.787,-0.001c0.287,-0 0.551,0.153 0.694,0.4c1.838,3.184 14.056,24.344 15.894,27.528Z" style="fill:rgb(254,255,254);stroke:rgb(17,18,24);stroke-width:4.17px;"/>
                        <ellipse cx="943.649" cy="875.42" rx="17.08" ry="17.079" style="fill:rgb(131,133,136);"/>
                        <path d="M943.649,855.608c10.935,0 19.812,8.877 19.812,19.812c0,10.934 -8.877,19.811 -19.812,19.811c-10.935,0 -19.813,-8.877 -19.813,-19.811c-0,-10.935 8.878,-19.812 19.813,-19.812Zm-0,2.733c-9.427,-0 -17.08,7.653 -17.08,17.079c-0,9.426 7.653,17.079 17.08,17.079c9.426,-0 17.08,-7.653 17.08,-17.079c-0,-9.426 -7.654,-17.079 -17.08,-17.079Z" style="fill:rgb(131,133,136);"/>
                    </g>
                    <g id="Jack14" serif:id="Jack">
                        <path d="M888.613,969.446c0.143,0.248 0.143,0.553 -0,0.801c-1.838,3.184 -14.056,24.346 -15.894,27.529c-0.143,0.248 -0.408,0.401 -0.694,0.401c-3.676,-0 -28.112,0.001 -31.788,0.001c-0.286,0 -0.55,-0.153 -0.694,-0.401c-1.837,-3.183 -14.055,-24.344 -15.893,-27.527c-0.143,-0.248 -0.143,-0.553 -0,-0.801c1.838,-3.183 14.056,-24.345 15.894,-27.529c0.143,-0.247 0.407,-0.4 0.693,-0.4c3.676,-0 28.112,-0.001 31.788,-0.002c0.286,0 0.551,0.153 0.694,0.401c1.838,3.183 14.056,24.344 15.894,27.527Z" style="fill:rgb(254,255,254);stroke:rgb(17,18,24);stroke-width:4.17px;"/>
                        <ellipse cx="856.131" cy="969.848" rx="17.08" ry="17.079" style="fill:rgb(131,133,136);"/>
                        <path d="M856.131,950.037c10.935,-0 19.813,8.877 19.813,19.811c-0,10.934 -8.878,19.812 -19.813,19.812c-10.935,-0 -19.812,-8.878 -19.812,-19.812c-0,-10.934 8.877,-19.811 19.812,-19.811Zm0,2.732c-9.427,0 -17.08,7.653 -17.08,17.079c0,9.426 7.653,17.079 17.08,17.079c9.427,0 17.08,-7.653 17.08,-17.079c0,-9.426 -7.653,-17.079 -17.08,-17.079Z" style="fill:rgb(131,133,136);"/>
                    </g>
                    <g id="Jack15" serif:id="Jack">
                        <path d="M976.13,969.446c0.143,0.248 0.143,0.553 0,0.801c-1.838,3.184 -14.056,24.346 -15.894,27.529c-0.143,0.248 -0.407,0.401 -0.694,0.401c-3.675,-0 -28.111,0.001 -31.787,0.001c-0.286,0 -0.551,-0.153 -0.694,-0.401c-1.838,-3.183 -14.056,-24.344 -15.894,-27.527c-0.143,-0.248 -0.143,-0.553 0,-0.801c1.838,-3.183 14.056,-24.345 15.894,-27.529c0.143,-0.247 0.408,-0.4 0.694,-0.4c3.675,-0 28.112,-0.001 31.787,-0.002c0.287,0 0.551,0.153 0.694,0.401c1.838,3.183 14.056,24.344 15.894,27.527Z" style="fill:rgb(254,255,254);stroke:rgb(17,18,24);stroke-width:4.17px;"/>
                        <ellipse cx="943.649" cy="969.848" rx="17.08" ry="17.079" style="fill:rgb(131,133,136);"/>
                        <path d="M943.649,950.037c10.935,-0 19.812,8.877 19.812,19.811c0,10.934 -8.877,19.812 -19.812,19.812c-10.935,-0 -19.813,-8.878 -19.813,-19.812c-0,-10.934 8.878,-19.811 19.813,-19.811Zm-0,2.732c-9.427,0 -17.08,7.653 -17.08,17.079c-0,9.426 7.653,17.079 17.08,17.079c9.426,0 17.08,-7.653 17.08,-17.079c-0,-9.426 -7.654,-17.079 -17.08,-17.079Z" style="fill:rgb(131,133,136);"/>
                    </g>
                    <ellipse cx="856.131" cy="288.194" rx="17.08" ry="17.079" style="fill:rgb(125,97,170);"/>
                    <ellipse cx="943.649" cy="288.194" rx="17.08" ry="17.079" style="fill:rgb(125,97,170);"/>
                    <ellipse cx="943.649" cy="382.041" rx="17.08" ry="17.079" style="fill:rgb(125,97,170);"/>
                    <ellipse cx="856.131" cy="382.041" rx="17.08" ry="17.079" style="fill:rgb(125,97,170);"/>
                    <ellipse cx="856.131" cy="483.296" rx="17.08" ry="17.079" style="fill:rgb(66,141,148);"/>
                    <ellipse cx="943.649" cy="483.296" rx="17.08" ry="17.079" style="fill:rgb(66,141,148);"/>
                    <ellipse cx="856.131" cy="577.751" rx="17.08" ry="17.079" style="fill:rgb(66,141,148);"/>
                    <ellipse cx="943.649" cy="577.751" rx="17.08" ry="17.079" style="fill:rgb(66,141,148);"/>
                    <ellipse cx="856.131" cy="680.343" rx="17.08" ry="17.079" style="fill:rgb(216,78,90);"/>
                    <ellipse cx="943.649" cy="680.343" rx="17.08" ry="17.079" style="fill:rgb(216,78,90);"/>
                    <ellipse cx="943.649" cy="774.126" rx="17.08" ry="17.079" style="fill:rgb(216,78,90);"/>
                    <ellipse cx="856.131" cy="774.126" rx="17.08" ry="17.079" style="fill:rgb(216,78,90);"/>
                    <path d="M908.713,172.294c2.882,-0.988 11.52,7.386 11.277,10.093c-0.084,0.929 -0.721,2.881 -1.72,2.677c-1.929,-0.394 -8.999,-3.008 -9.855,-5.041c-0.725,-1.72 -2.986,-6.603 0.298,-7.729Z" style="fill:rgb(131,133,136);"/>
                    <path d="M880.156,195.22c0.99,-0.012 1.566,0.543 2.718,3.035c0.956,2.066 1.013,8.068 2.608,11.789c1.695,3.953 8.181,10.055 8.602,11.46c0.857,2.863 -7.742,-5.414 -10.571,-9.25c-3.168,-4.295 -8.37,-15.827 -3.357,-17.034Z" style="fill:rgb(131,133,136);"/>
                    <ellipse cx="921.638" cy="188.145" rx="1.43" ry="1.436" style="fill:rgb(131,133,136);"/>
                    <path d="M902.695,261.956c-0.756,-0.979 -2.27,-2.935 -2.767,-6.399c-0.332,-2.319 0.759,-4.278 1.792,-6.957c0.658,-1.71 1.535,-5.733 0.695,-8.1c-1.154,-3.252 -1.094,-8.121 -1.074,-10.555c0.004,-0.465 -0.37,-0.846 -0.836,-0.85c-0.466,-0.004 -0.847,0.37 -0.851,0.836c-0.022,2.568 -0.047,7.702 1.171,11.133c0.719,2.027 -0.116,5.465 -0.68,6.929c-1.154,2.994 -2.259,5.212 -1.887,7.803c0.558,3.891 2.252,6.092 3.101,7.191c0.285,0.369 0.815,0.437 1.183,0.153c0.369,-0.285 0.437,-0.815 0.153,-1.184Z" style="fill:rgb(131,133,136);"/>
                    <path d="M967.006,1040.85c-4.07,0.275 -5.784,2.974 -6.695,5.818c-0.801,2.501 -1.698,5.083 -2.676,6.41c-0.542,0.737 -1.146,1.115 -1.733,1.115c-0.584,-0 -1.011,-0.308 -1.285,-0.886c-0.416,-0.879 -0.406,-2.601 -0.295,-4.325c0.087,-1.353 0.22,-2.705 0.162,-3.571c-0.009,-0.125 -0.035,-0.268 -0.058,-0.373c-0.05,0.026 -0.101,0.061 -0.153,0.101c-0.192,0.144 -0.381,0.354 -0.574,0.603c-0.667,0.866 -1.327,2.179 -1.951,3.319c-0.532,0.972 -1.049,1.823 -1.511,2.251c-0.314,0.29 -0.632,0.42 -0.917,0.42c-0.54,-0 -0.927,-0.329 -1.077,-1.015c-0.191,-0.877 0.075,-2.597 0.388,-4.316c0.249,-1.362 0.516,-2.722 0.526,-3.594c0.001,-0.111 -0.012,-0.236 -0.025,-0.333c-0.074,0.044 -0.148,0.109 -0.227,0.182c-0.241,0.222 -0.48,0.543 -0.723,0.926c-0.807,1.276 -1.611,3.209 -2.344,4.887c-0.603,1.382 -1.167,2.597 -1.641,3.205c-0.34,0.437 -0.703,0.612 -0.987,0.612c-0.539,0 -0.909,-0.28 -1.121,-0.802c-0.29,-0.715 -0.182,-2.119 0.024,-3.523c0.128,-0.871 0.282,-1.742 0.346,-2.412c0.016,-0.165 0.019,-0.35 0.016,-0.501c-0.048,0.024 -0.1,0.05 -0.155,0.078c-0.444,0.224 -1.016,0.586 -1.665,0.986c-1.138,0.702 -2.502,1.504 -3.854,1.979c-0.276,1.091 -0.72,2.127 -1.306,2.935c-0.778,1.074 -1.805,1.751 -2.999,1.751c-1.052,-0 -1.705,-0.534 -2.121,-1.292c-0.35,-0.639 -0.513,-1.458 -0.613,-2.188c-0.045,-0.33 -0.105,-0.722 -0.147,-0.991c-0.216,0.093 -0.505,0.221 -0.765,0.344c-0.459,0.218 -0.994,0.457 -1.569,0.652c-0.242,1.139 -0.658,2.225 -1.216,3.067c-0.737,1.11 -1.723,1.803 -2.86,1.803c-1.011,-0 -1.673,-0.562 -2.101,-1.382c-0.355,-0.681 -0.537,-1.554 -0.65,-2.332c-0.048,-0.332 -0.084,-0.645 -0.12,-0.911c-0.137,0.159 -0.284,0.345 -0.44,0.542c-0.462,0.584 -1.001,1.251 -1.606,1.694c-0.48,0.352 -1.002,0.569 -1.555,0.569c-0.996,0 -1.773,-0.484 -2.34,-1.324c-0.467,-0.691 -0.785,-1.648 -0.962,-2.754c-0.814,0.594 -1.717,1.11 -2.601,1.579c-0.003,0.115 -0.011,0.231 -0.022,0.345c-0.118,1.231 -0.707,2.579 -1.46,3.461c-0.581,0.682 -1.273,1.08 -1.921,1.08c-0.337,0 -0.731,-0.131 -1.076,-0.383c-0.493,-0.36 -0.881,-0.957 -0.881,-1.667c-0,-0.716 0.54,-1.406 1.499,-2.037c0.717,-0.472 1.682,-0.941 2.705,-1.465c-0.064,-0.694 -0.274,-1.362 -0.611,-1.848c-0.254,-0.365 -0.578,-0.626 -0.988,-0.626c-1.268,-0 -2.111,0.735 -2.715,1.664c-0.678,1.042 -1.068,2.326 -1.364,3.287c-0.206,0.669 -0.382,1.199 -0.55,1.46c-0.204,0.317 -0.461,0.417 -0.679,0.417c-0.117,0 -0.242,-0.031 -0.364,-0.122c-0.077,-0.058 -0.208,-0.202 -0.296,-0.475c-0.136,-0.426 -0.305,-1.479 -0.442,-2.89c-0.543,0.87 -1.079,1.664 -1.581,2.343c-0.8,1.081 -1.527,1.877 -2.078,2.262c-0.344,0.24 -0.654,0.34 -0.898,0.34c-1.063,0 -1.659,-0.746 -1.843,-1.996c-0.208,-1.413 0.124,-3.551 0.446,-5.41c0.164,-0.943 0.322,-1.812 0.39,-2.46c0.019,-0.175 0.022,-0.37 0.02,-0.517c-0.49,0.041 -1.025,0.157 -1.566,0.275c-0.362,1.976 -1.469,4.342 -2.914,6.051c-1.221,1.443 -2.689,2.402 -4.127,2.402c-1.743,0 -3.003,-0.68 -3.86,-1.725c-1.082,0.906 -2.282,1.47 -3.475,1.47c-1.26,0 -2.307,-0.956 -3.032,-2.604c-0.238,-0.541 -0.445,-1.16 -0.62,-1.836c-0.563,1.137 -1.132,2.169 -1.682,3.035c-0.656,1.033 -1.293,1.833 -1.86,2.312c-0.484,0.41 -0.948,0.6 -1.346,0.6c-0.862,-0 -1.473,-0.587 -1.813,-1.638c-0.385,-1.192 -0.436,-3.053 -0.416,-4.915c0.018,-1.762 0.095,-3.525 -0.052,-4.653c-0.033,-0.254 -0.076,-0.471 -0.141,-0.639c-0.01,-0.027 -0.026,-0.059 -0.041,-0.086c-0.036,0.023 -0.071,0.062 -0.112,0.101c-0.157,0.151 -0.31,0.37 -0.467,0.637c-0.549,0.939 -1.087,2.408 -1.617,3.875c-0.652,1.804 -1.297,3.605 -1.912,4.525c-0.396,0.593 -0.847,0.862 -1.231,0.862c-0.441,0 -0.822,-0.271 -1.038,-0.865c-0.276,-0.761 -0.294,-2.25 -0.283,-3.741c0.008,-1.169 0.026,-2.339 -0.111,-3.087c-0.023,-0.124 -0.073,-0.271 -0.106,-0.358c-0.261,0.057 -0.48,0.283 -0.705,0.568c-0.558,0.71 -1.043,1.822 -1.558,2.931c-0.561,1.21 -1.155,2.414 -1.86,3.188c-0.567,0.623 -1.214,0.985 -1.945,0.985c-1.165,0 -1.793,-0.826 -1.938,-2.283c-0.166,-1.671 0.306,-4.283 0.761,-6.894c0.163,-0.937 0.325,-1.874 0.448,-2.763c-0.21,0.041 -0.428,0.062 -0.655,0.062c-2.374,-0 -3.101,-2.221 -2.652,-4.037c0.311,-1.259 1.194,-2.243 2.327,-2.243c1.298,0 1.998,0.828 2.239,2.245c0.086,0.509 0.109,1.106 0.085,1.762c0.079,-0.109 0.154,-0.224 0.225,-0.344c0.577,-0.98 0.879,-2.289 0.919,-3.595c0.039,-1.304 -0.183,-2.61 -0.69,-3.588c-0.441,-0.852 -1.103,-1.45 -2.029,-1.45c-1.549,0 -2.839,0.925 -3.836,2.368c-1.613,2.336 -2.458,6.003 -2.325,9.723c0.172,4.793 1.203,9.676 0.64,12.174c-0.179,0.796 -0.517,1.381 -1.013,1.734c-0.352,0.25 -0.788,0.394 -1.331,0.394c-0.937,-0 -1.752,-0.578 -2.421,-1.524c-0.849,-1.202 -1.487,-3.017 -1.997,-4.598c-0.321,-0.995 -0.59,-1.89 -0.84,-2.447c-0.01,-0.022 -0.021,-0.045 -0.033,-0.068l-0.029,0.041c-0.299,0.448 -0.636,1.17 -1.005,1.97c-0.696,1.509 -1.501,3.277 -2.331,4.205c-0.475,0.53 -0.984,0.808 -1.47,0.808c-0.57,0 -1.063,-0.389 -1.354,-1.226c-0.45,-1.291 -0.493,-3.883 -0.462,-6.818c0.039,-3.627 0.173,-7.797 -0.362,-10.554c-0.163,-0.841 -0.384,-1.542 -0.707,-2.029c-0.241,-0.361 -0.536,-0.588 -0.933,-0.588c-0.685,-0 -1.162,0.589 -1.547,1.38c-0.71,1.457 -1.012,3.638 -0.977,5.426c0.056,2.963 1.059,4.847 1.059,4.847c0.149,0.277 0.046,0.623 -0.231,0.772c-0.277,0.149 -0.624,0.046 -0.773,-0.232c0,0 -1.133,-2.082 -1.195,-5.366c-0.038,-1.96 0.313,-4.348 1.091,-5.946c0.608,-1.248 1.492,-2.022 2.573,-2.022c1.208,0 2.065,0.953 2.542,2.62c0.593,2.076 0.663,5.319 0.637,8.563c-0.029,3.659 -0.182,7.319 0.252,9.185c0.062,0.266 0.134,0.49 0.227,0.661c0.051,0.094 0.078,0.187 0.16,0.187c0.119,-0 0.229,-0.072 0.346,-0.164c0.195,-0.155 0.385,-0.379 0.575,-0.646c0.66,-0.924 1.284,-2.325 1.845,-3.541c0.473,-1.025 0.91,-1.926 1.276,-2.377c0.292,-0.36 0.607,-0.498 0.854,-0.498c0.228,0 0.504,0.112 0.738,0.443c0.235,0.332 0.494,1.008 0.772,1.859c0.498,1.524 1.104,3.659 1.987,5.121c0.483,0.8 1.016,1.415 1.733,1.415c0.55,0 0.885,-0.276 1.081,-0.75c0.173,-0.417 0.254,-0.955 0.285,-1.585c0.129,-2.638 -0.656,-6.744 -0.801,-10.785c-0.143,-3.987 0.797,-7.909 2.526,-10.412c1.231,-1.782 2.861,-2.86 4.774,-2.86c1.108,-0 1.988,0.531 2.631,1.401c0.863,1.168 1.283,2.987 1.228,4.811c-0.055,1.82 -0.581,3.634 -1.532,4.798c-0.265,0.325 -0.562,0.602 -0.891,0.82c-0.127,1.095 -0.324,2.276 -0.53,3.457c-0.434,2.495 -0.908,4.988 -0.749,6.585c0.072,0.725 0.223,1.256 0.803,1.256c0.554,-0 0.984,-0.415 1.392,-0.969c0.51,-0.693 0.95,-1.619 1.379,-2.544c0.555,-1.197 1.094,-2.39 1.696,-3.156c0.515,-0.653 1.097,-1.017 1.728,-1.017c0.421,0 0.8,0.27 0.998,0.886c0.243,0.756 0.242,2.238 0.232,3.721c-0.008,1.163 -0.017,2.327 0.14,3.071c0.022,0.104 0.067,0.224 0.102,0.311c0.009,-0.008 0.018,-0.017 0.025,-0.024c0.142,-0.152 0.281,-0.373 0.426,-0.642c0.507,-0.944 1.026,-2.419 1.559,-3.893c0.655,-1.813 1.338,-3.622 2.021,-4.547c0.42,-0.57 0.887,-0.84 1.313,-0.84c0.441,-0 0.818,0.259 1.041,0.841c0.285,0.748 0.318,2.246 0.294,3.944c-0.029,2.021 -0.12,4.345 0.217,5.881c0.078,0.354 0.177,0.662 0.314,0.901c0.13,0.227 0.29,0.385 0.531,0.385c0.188,0 0.382,-0.137 0.61,-0.33c0.502,-0.423 1.054,-1.14 1.634,-2.053c0.74,-1.165 1.515,-2.642 2.262,-4.266c-0.26,-1.602 -0.383,-3.387 -0.373,-5.172c0.008,-1.335 0.09,-2.67 0.243,-3.929c-3.22,0.179 -4.824,0.459 -4.824,0.459c-0.248,0.043 -0.484,-0.123 -0.528,-0.371c-0.043,-0.248 0.123,-0.484 0.371,-0.528c0,0 1.697,-0.298 5.107,-0.48c0.316,-2.059 0.829,-3.846 1.513,-4.998c0.621,-1.044 1.404,-1.601 2.26,-1.601c0.735,-0 1.249,0.453 1.466,1.362c0.225,0.938 0.107,2.485 -0.285,4.351c-0.051,0.244 -0.106,0.493 -0.166,0.749c2.162,-0.014 4.679,0.03 7.553,0.17c0.252,0.012 0.446,0.226 0.433,0.478c-0.012,0.251 -0.226,0.445 -0.477,0.433c-2.962,-0.144 -5.541,-0.186 -7.737,-0.167c-0.769,2.939 -2.019,6.392 -3.378,9.4c0.207,1.166 0.495,2.215 0.868,3.064c0.502,1.14 1.116,1.923 1.988,1.923c0.987,0 1.96,-0.516 2.846,-1.29c-0.818,-1.573 -1.01,-3.603 -0.744,-5.422c0.211,-1.44 0.708,-2.731 1.363,-3.538c0.525,-0.646 1.159,-1 1.833,-1c0.727,0 1.268,0.232 1.656,0.609c0.541,0.525 0.793,1.378 0.736,2.423c-0.114,2.088 -1.452,5.019 -3.309,7.024l-0.079,0.084c0.668,0.828 1.652,1.365 3.033,1.365c0.974,-0 1.935,-0.614 2.802,-1.499c1.413,-1.441 2.554,-3.623 3.013,-5.52l0.013,-0.057c-0.284,0.043 -0.561,0.069 -0.827,0.069c-1.805,0 -2.511,-1.589 -2.224,-2.87c0.201,-0.897 0.872,-1.628 1.943,-1.628c0.725,0 1.269,0.235 1.664,0.619c0.537,0.524 0.803,1.37 0.782,2.406c0.628,-0.137 1.243,-0.264 1.787,-0.264c0.295,0 0.534,0.135 0.683,0.447c0.083,0.174 0.135,0.466 0.122,0.857c-0.024,0.688 -0.224,1.795 -0.437,3.024c-0.301,1.735 -0.636,3.73 -0.442,5.049c0.084,0.574 0.227,1.022 0.715,1.022c0.029,-0 0.058,-0.023 0.095,-0.042c0.104,-0.055 0.218,-0.137 0.342,-0.241c0.456,-0.383 1.011,-1.031 1.622,-1.857c0.736,-0.994 1.545,-2.242 2.346,-3.616c-0.243,-4.02 -0.168,-9.483 0.986,-12.507c0.619,-1.622 1.578,-2.571 2.82,-2.571c0.594,-0 1.049,0.176 1.392,0.473c0.334,0.29 0.566,0.706 0.685,1.239c0.192,0.861 0.078,2.079 -0.282,3.498c-0.752,2.961 -2.561,6.863 -4.441,10.136c0.008,0.127 0.017,0.251 0.026,0.373c0.069,0.953 0.154,1.797 0.243,2.468c0.319,-1.032 0.751,-2.364 1.462,-3.456c0.81,-1.246 1.97,-2.184 3.671,-2.184c0.779,0 1.442,0.422 1.924,1.117c0.362,0.521 0.619,1.204 0.745,1.932c0.894,-0.489 1.783,-1.036 2.545,-1.676c-0.013,-0.216 -0.021,-0.436 -0.025,-0.659c-0.056,-3.273 0.825,-7.115 2.2,-9.129c0.695,-1.017 1.535,-1.586 2.414,-1.586c0.51,-0 0.897,0.162 1.183,0.431c0.384,0.359 0.598,0.948 0.588,1.72c-0.031,2.336 -2.16,6.674 -4.991,9.514c-0.062,0.062 -0.125,0.124 -0.19,0.185c0.092,0.955 0.286,1.816 0.603,2.493c0.364,0.776 0.888,1.298 1.662,1.298c0.411,-0 0.776,-0.239 1.118,-0.54c0.428,-0.376 0.809,-0.861 1.149,-1.29c0.374,-0.473 0.712,-0.884 0.995,-1.092c0.226,-0.166 0.447,-0.236 0.641,-0.236c0.196,-0 0.392,0.074 0.546,0.29c0.058,0.081 0.117,0.203 0.162,0.368c0.057,0.209 0.102,0.532 0.15,0.916c0.087,0.689 0.192,1.61 0.494,2.357c0.23,0.568 0.571,1.046 1.217,1.046c0.776,0 1.407,-0.535 1.91,-1.293c0.395,-0.595 0.705,-1.33 0.92,-2.116c-0.285,0.046 -0.572,0.073 -0.859,0.073c-2.893,0 -3.979,-2.592 -3.583,-4.686c0.278,-1.464 1.274,-2.641 2.784,-2.641c1.99,-0 3.045,1.904 3.14,4.301c0.017,0.439 0.004,0.893 -0.04,1.35c0.5,-0.205 0.951,-0.432 1.318,-0.606c0.512,-0.244 0.912,-0.386 1.123,-0.386c0.244,0 0.475,0.106 0.638,0.395c0.112,0.197 0.195,0.595 0.258,1.1c0.079,0.634 0.157,1.48 0.443,2.166c0.218,0.523 0.57,0.948 1.239,0.948c0.838,0 1.529,-0.525 2.076,-1.279c0.396,-0.546 0.715,-1.211 0.948,-1.926c-0.288,0.049 -0.572,0.076 -0.85,0.076c-2.876,-0 -4.033,-2.597 -3.582,-4.687c0.311,-1.439 1.363,-2.621 3.081,-2.621c1.918,-0 2.927,1.873 2.957,4.237c0.006,0.441 -0.021,0.897 -0.08,1.356c1.062,-0.452 2.11,-1.095 3.01,-1.65c0.804,-0.496 1.498,-0.932 1.995,-1.15c0.297,-0.13 0.547,-0.19 0.734,-0.19c0.373,0 0.693,0.211 0.803,0.748c0.096,0.472 -0.015,1.422 -0.18,2.494c-0.189,1.223 -0.435,2.627 -0.354,3.556c0.013,0.148 0.034,0.28 0.07,0.393c0.015,0.047 0.018,0.098 0.037,0.127c0.04,-0.038 0.097,-0.095 0.137,-0.147c0.115,-0.148 0.235,-0.339 0.361,-0.563c0.526,-0.935 1.129,-2.398 1.771,-3.859c0.787,-1.791 1.638,-3.575 2.46,-4.488c0.474,-0.526 0.972,-0.788 1.43,-0.788c0.335,-0 0.592,0.149 0.769,0.45c0.133,0.227 0.214,0.603 0.208,1.095c-0.01,0.918 -0.283,2.352 -0.544,3.785c-0.245,1.347 -0.483,2.693 -0.434,3.555c0.007,0.129 0.041,0.279 0.066,0.376c0.027,-0.019 0.055,-0.041 0.077,-0.061c0.101,-0.093 0.204,-0.215 0.31,-0.357c0.472,-0.63 0.982,-1.617 1.515,-2.601c0.571,-1.053 1.168,-2.103 1.76,-2.777c0.513,-0.583 1.057,-0.895 1.561,-0.895c0.391,-0 0.73,0.226 0.897,0.769c0.178,0.584 0.141,1.755 0.049,3.081c-0.107,1.546 -0.271,3.324 -0.079,4.499c0.041,0.256 0.098,0.479 0.186,0.652c0.058,0.114 0.122,0.206 0.241,0.206c0.165,0 0.314,-0.106 0.471,-0.253c0.245,-0.229 0.479,-0.563 0.711,-0.967c0.778,-1.358 1.486,-3.466 2.141,-5.512c1.067,-3.329 3.126,-6.446 8.027,-6.625l0.065,-0.305c0.029,-0.135 0.163,-0.222 0.299,-0.193l0.304,0.065c0.136,0.029 0.223,0.162 0.194,0.298l-0.054,0.252c0.003,0.003 0.006,0.005 0.008,0.007l0.238,0.047l0.057,-0.265c0.04,-0.187 0.224,-0.307 0.411,-0.267l0.426,0.091c0.188,0.04 0.307,0.224 0.267,0.412l-0.053,0.247l0.227,0.045l0.049,-0.251c0.043,-0.218 0.252,-0.361 0.47,-0.324l3.851,0.663c0.226,0.039 0.376,0.256 0.332,0.481l-0.012,0.061l0.027,0.005c0.113,0.022 0.196,0.112 0.215,0.22l3.397,0.669c0.156,0.031 0.279,0.133 0.342,0.266l1.153,0.137l0.323,0.429l-0.075,0.38l-0.461,0.274l-1.117,-0.313c-0.109,0.101 -0.263,0.15 -0.419,0.119l-3.398,-0.669c-0.058,0.092 -0.168,0.144 -0.282,0.122l-0.027,-0.006l-0.012,0.061c-0.044,0.225 -0.265,0.369 -0.489,0.32l-3.815,-0.848c-0.216,-0.048 -0.355,-0.26 -0.312,-0.478l0.049,-0.251l-0.243,-0.048l-0.056,0.266c-0.04,0.187 -0.225,0.306 -0.412,0.266l-0.426,-0.091c-0.187,-0.04 -0.307,-0.224 -0.267,-0.411l0.053,-0.248l-0.247,-0.049l-0.058,0.27c-0.029,0.136 -0.162,0.223 -0.298,0.193l-0.304,-0.064c-0.136,-0.029 -0.223,-0.163 -0.194,-0.299l0.028,-0.131Zm-57.39,9.634c-0.43,0.221 -0.841,0.434 -1.22,0.644c-0.563,0.311 -1.046,0.609 -1.387,0.921c-0.229,0.21 -0.399,0.406 -0.399,0.64c0,0.321 0.191,0.584 0.414,0.746c0.131,0.097 0.275,0.164 0.403,0.164c0.369,0 0.723,-0.292 1.054,-0.68c0.536,-0.628 0.969,-1.544 1.135,-2.435Zm-25.746,-0.665c1.214,-1.365 2.172,-3.156 2.612,-4.742c0.216,-0.778 0.308,-1.504 0.225,-2.095c-0.049,-0.353 -0.158,-0.652 -0.369,-0.856c-0.199,-0.194 -0.487,-0.286 -0.861,-0.286c-0.359,-0 -0.669,0.235 -0.948,0.578c-0.551,0.678 -0.942,1.773 -1.119,2.984c-0.214,1.456 -0.118,3.107 0.46,4.417Zm42.415,-1.405c0.082,-0.573 0.114,-1.15 0.093,-1.7c-0.037,-0.916 -0.219,-1.758 -0.594,-2.368c-0.314,-0.51 -0.773,-0.838 -1.407,-0.838c-0.94,-0 -1.491,0.802 -1.663,1.714c-0.279,1.47 0.429,3.333 2.462,3.333c0.372,-0 0.745,-0.054 1.109,-0.141Zm9.546,-1.204c0.109,-0.592 0.162,-1.19 0.155,-1.76c-0.012,-0.892 -0.168,-1.713 -0.516,-2.308c-0.284,-0.487 -0.708,-0.803 -1.301,-0.803c-1.11,0 -1.765,0.792 -1.966,1.721c-0.315,1.462 0.456,3.307 2.467,3.307c0.377,-0 0.766,-0.057 1.161,-0.157Zm-33.265,-0.993c1.494,-2.798 2.83,-5.851 3.443,-8.262c0.306,-1.206 0.437,-2.238 0.274,-2.97c-0.059,-0.265 -0.154,-0.482 -0.32,-0.626c-0.157,-0.136 -0.373,-0.194 -0.644,-0.194c-0.827,0 -1.342,0.758 -1.754,1.838c-0.944,2.473 -1.115,6.642 -0.999,10.214Zm11.836,-0.369c1.989,-2.209 3.541,-5.121 3.985,-7.185c0.116,-0.537 0.157,-1.009 0.092,-1.383c-0.033,-0.187 -0.087,-0.343 -0.197,-0.446c-0.096,-0.09 -0.233,-0.123 -0.404,-0.123c-0.342,0 -0.656,0.181 -0.953,0.465c-0.375,0.356 -0.712,0.87 -1.014,1.486c-0.922,1.881 -1.489,4.676 -1.509,7.186Zm-34.884,-8.271c-0.849,0.016 -1.634,0.041 -2.352,0.072c-0.161,1.271 -0.246,2.632 -0.253,3.992c-0.006,1.054 0.034,2.108 0.124,3.121c0.989,-2.386 1.873,-4.928 2.481,-7.185Zm14.011,6.381c0.023,-0.334 0.015,-0.646 -0.03,-0.928c-0.06,-0.369 -0.178,-0.681 -0.397,-0.895c-0.204,-0.198 -0.493,-0.295 -0.868,-0.295c-0.469,-0 -0.743,0.343 -0.831,0.736c-0.146,0.653 0.192,1.481 1.112,1.481c0.324,0 0.665,-0.04 1.014,-0.099Zm-37.881,-4.839c0.092,-0.975 0.108,-1.853 -0.011,-2.555c-0.13,-0.764 -0.415,-1.296 -1.115,-1.296c-0.645,0 -1.043,0.66 -1.22,1.376c-0.283,1.145 0.049,2.624 1.545,2.624c0.288,-0 0.555,-0.053 0.801,-0.149Zm24.105,-2.458c0.083,-0.341 0.159,-0.674 0.226,-0.996c0.347,-1.653 0.491,-3.021 0.292,-3.852c-0.066,-0.274 -0.135,-0.487 -0.357,-0.487c-0.308,-0 -0.578,0.167 -0.829,0.432c-0.332,0.349 -0.62,0.857 -0.875,1.478c-0.392,0.953 -0.697,2.157 -0.913,3.494c0.751,-0.03 1.57,-0.054 2.456,-0.069Z" style="fill:rgb(131,133,136);"/>
                    <path d="M851.72,140.065l3.778,0l-1.746,8.186l5.724,-0l1.746,-8.186l3.778,0l-4.264,20.035l-3.778,-0l1.746,-8.243l-5.725,-0l-1.745,8.243l-3.75,-0l4.236,-20.035Z" style="fill:rgb(131,133,136);fill-rule:nonzero;"/>
                    <path d="M869.722,154.175c-0.038,0.153 -0.057,0.315 -0.057,0.487c0,0.687 0.263,1.259 0.787,1.717c0.525,0.458 1.217,0.687 2.075,0.687c0.897,-0 1.613,-0.162 2.147,-0.487c0.534,-0.324 0.944,-0.706 1.23,-1.145l2.862,1.804c-0.228,0.381 -0.529,0.763 -0.901,1.144c-0.372,0.382 -0.83,0.73 -1.374,1.045c-0.544,0.315 -1.183,0.572 -1.917,0.773c-0.735,0.2 -1.589,0.3 -2.562,0.3c-0.878,0 -1.684,-0.138 -2.418,-0.415c-0.735,-0.276 -1.365,-0.658 -1.889,-1.145c-0.525,-0.486 -0.935,-1.068 -1.231,-1.745c-0.296,-0.678 -0.444,-1.427 -0.444,-2.247c0,-1.298 0.196,-2.519 0.587,-3.664c0.391,-1.144 0.959,-2.146 1.703,-3.005c0.744,-0.858 1.66,-1.536 2.748,-2.032c1.087,-0.496 2.337,-0.744 3.749,-0.744c0.992,0 1.855,0.158 2.59,0.472c0.735,0.315 1.34,0.735 1.817,1.26c0.477,0.524 0.835,1.121 1.074,1.788c0.238,0.668 0.357,1.355 0.357,2.061c0,0.229 -0.014,0.463 -0.043,0.701c-0.028,0.239 -0.081,0.549 -0.157,0.931l-0.315,1.459l-10.418,0Zm4.522,-5.409c-0.896,-0 -1.674,0.224 -2.332,0.672c-0.658,0.449 -1.15,0.997 -1.474,1.646l6.697,0c0,-0.725 -0.224,-1.293 -0.672,-1.703c-0.449,-0.41 -1.188,-0.615 -2.219,-0.615Z" style="fill:rgb(131,133,136);fill-rule:nonzero;"/>
                    <path d="M893.191,159.756c-0.381,0.267 -0.773,0.458 -1.173,0.573c-0.401,0.114 -0.792,0.171 -1.174,0.171c-0.419,0 -0.82,-0.071 -1.202,-0.214c-0.381,-0.143 -0.715,-0.344 -1.001,-0.601c-0.287,-0.258 -0.511,-0.573 -0.673,-0.945c-0.162,-0.372 -0.243,-0.787 -0.243,-1.245c-0,-0.343 0.038,-0.677 0.114,-1.002l3.12,-13.022l-0.286,-0.2l-3.836,2.633l-1.803,-2.69l4.15,-2.805c0.382,-0.267 0.773,-0.458 1.174,-0.573c0.4,-0.114 0.792,-0.171 1.173,-0.171c0.42,-0 0.821,0.071 1.202,0.214c0.382,0.143 0.716,0.344 1.002,0.601c0.286,0.258 0.51,0.573 0.673,0.945c0.162,0.372 0.243,0.787 0.243,1.245c-0,0.305 -0.038,0.639 -0.115,1.001l-3.119,13.023l0.286,0.2l3.835,-2.633l1.803,2.69l-4.15,2.805Z" style="fill:rgb(131,133,136);fill-rule:nonzero;"/>
                    <path d="M910.907,159.756c-0.381,0.267 -0.773,0.458 -1.173,0.573c-0.401,0.114 -0.792,0.171 -1.174,0.171c-0.419,0 -0.82,-0.071 -1.202,-0.214c-0.381,-0.143 -0.715,-0.344 -1.001,-0.601c-0.287,-0.258 -0.511,-0.573 -0.673,-0.945c-0.162,-0.372 -0.243,-0.787 -0.243,-1.245c-0,-0.362 0.038,-0.696 0.114,-1.002l1.717,-7.183l-0.286,-0.201l-3.835,2.633l-1.803,-2.69l4.15,-2.805c0.382,-0.267 0.773,-0.458 1.173,-0.572c0.401,-0.115 0.792,-0.172 1.174,-0.172c0.42,0 0.82,0.072 1.202,0.215c0.382,0.143 0.715,0.343 1.002,0.601c0.286,0.257 0.51,0.572 0.672,0.944c0.162,0.372 0.243,0.787 0.243,1.245c0,0.363 -0.038,0.697 -0.114,1.002l-1.717,7.184l0.286,0.2l3.835,-2.633l1.803,2.69l-4.15,2.805Zm2.49,-18.059c0,0.381 -0.071,0.739 -0.214,1.073c-0.144,0.334 -0.339,0.62 -0.587,0.859c-0.248,0.238 -0.539,0.429 -0.873,0.572c-0.334,0.143 -0.682,0.215 -1.045,0.215c-0.381,-0 -0.734,-0.072 -1.059,-0.215c-0.324,-0.143 -0.61,-0.334 -0.858,-0.572c-0.248,-0.239 -0.444,-0.525 -0.587,-0.859c-0.143,-0.334 -0.215,-0.692 -0.215,-1.073c0,-0.382 0.072,-0.74 0.215,-1.074c0.143,-0.334 0.339,-0.62 0.587,-0.858c0.248,-0.239 0.534,-0.43 0.858,-0.573c0.325,-0.143 0.678,-0.214 1.059,-0.214c0.363,-0 0.711,0.071 1.045,0.214c0.334,0.143 0.625,0.334 0.873,0.573c0.248,0.238 0.443,0.524 0.587,0.858c0.143,0.334 0.214,0.692 0.214,1.074Z" style="fill:rgb(131,133,136);fill-rule:nonzero;"/>
                    <path d="M923.93,145.904l-1.775,8.243c-0.076,0.324 -0.114,0.639 -0.114,0.944c-0,0.725 0.2,1.264 0.601,1.617c0.4,0.353 0.935,0.53 1.602,0.53c1.012,-0 1.789,-0.33 2.333,-0.988c0.544,-0.658 0.949,-1.588 1.216,-2.79l1.603,-7.556l3.606,-0l-2.347,10.818l0.315,0.172l1.031,-0.744l1.803,2.633l-1.346,0.973c-0.362,0.267 -0.739,0.458 -1.13,0.573c-0.391,0.114 -0.778,0.171 -1.159,0.171c-0.782,0 -1.469,-0.224 -2.061,-0.672c-0.591,-0.449 -0.925,-1.102 -1.002,-1.961l-0.515,0c-0.42,0.973 -0.987,1.655 -1.703,2.047c-0.715,0.391 -1.521,0.586 -2.418,0.586c-1.24,0 -2.252,-0.377 -3.034,-1.13c-0.782,-0.754 -1.173,-1.808 -1.173,-3.163c-0,-0.477 0.057,-0.992 0.171,-1.545l1.889,-8.758l3.607,-0Z" style="fill:rgb(131,133,136);fill-rule:nonzero;"/>
                    <path d="M947.398,150.14c0.038,-0.153 0.058,-0.287 0.058,-0.401c-0,-0.534 -0.258,-0.801 -0.773,-0.801c-0.305,-0 -0.534,0.1 -0.687,0.3c-0.153,0.2 -0.258,0.444 -0.315,0.73l-2.175,10.132l-3.606,-0l2.118,-9.96c0.038,-0.191 0.057,-0.325 0.057,-0.401c-0,-0.534 -0.248,-0.801 -0.744,-0.801c-0.554,-0 -0.897,0.343 -1.031,1.03l-2.175,10.132l-3.577,-0l3.005,-14.196l3.606,-0l-0.286,1.374l0.515,-0c0.153,-0.592 0.439,-1.035 0.859,-1.331c0.419,-0.296 0.896,-0.444 1.431,-0.444c0.629,0 1.106,0.172 1.431,0.515c0.324,0.344 0.534,0.764 0.629,1.26l0.515,-0c0.21,-0.516 0.53,-0.94 0.959,-1.274c0.43,-0.334 0.988,-0.501 1.675,-0.501c0.801,0 1.416,0.258 1.846,0.773c0.429,0.515 0.644,1.135 0.644,1.86c-0,0.134 -0.005,0.253 -0.015,0.358c-0.009,0.105 -0.033,0.234 -0.071,0.386l-1.689,7.814l0.286,0.2l0.973,-0.687l1.803,2.691l-1.287,0.858c-0.382,0.267 -0.768,0.458 -1.16,0.573c-0.391,0.114 -0.777,0.171 -1.159,0.171c-0.419,0 -0.815,-0.071 -1.187,-0.214c-0.373,-0.143 -0.702,-0.349 -0.988,-0.616c-0.286,-0.267 -0.51,-0.596 -0.672,-0.987c-0.163,-0.391 -0.244,-0.835 -0.244,-1.331c0,-0.267 0.038,-0.591 0.115,-0.973l1.316,-6.239Z" style="fill:rgb(131,133,136);fill-rule:nonzero;"/>
                    <circle cx="900.074" cy="336.239" r="19.083" style="fill:rgb(209,201,227);"/>
                    <circle cx="900.074" cy="530.775" r="19.083" style="fill:rgb(214,229,233);"/>
                    <circle cx="900.074" cy="728.79" r="19.083" style="fill:rgb(245,191,197);"/>
                    <circle cx="900.074" cy="922.942" r="19.083" style="fill:rgb(203,202,190);"/>
                    <path d="M900.169,322.158c4.244,7.415 8.529,14.837 12.829,22.22c-8.544,-0.031 -17.115,-0.031 -25.658,0c4.299,-7.383 8.584,-14.805 12.829,-22.22Z" style="fill:rgb(137,114,179);"/>
                    <path d="M900.074,516.009l14.814,14.813l-14.814,14.814l-14.813,-14.814l14.813,-14.813Z" style="fill:rgb(66,141,148);"/>
                    <path d="M900.169,713.821l14.088,10.236l-5.381,16.562l-17.414,-0l-5.382,-16.562l14.089,-10.236Z" style="fill:rgb(216,78,90);"/>
                    <path d="M900.074,908.129l12.829,7.407l0,14.813l-12.829,7.407l-12.828,-7.407l-0,-14.813l12.828,-7.407Z" style="fill:rgb(131,133,136);"/>
                </g>
            </g>
        </g>
        <g id="Drills">
        </g>
        <g id="Silk">
        </g>
        <g id="LEDs">
        </g>
    </g>
    <g id="Left-in" serif:id="Left in">
        <path d="M671.827,470.223l5.339,-0.002l0.142,-4.522l20.66,-0.007l-0.142,4.522l5.379,-0.001l0.161,-5.149l7.602,-0.002c0.484,-1.68 2.074,-2.924 3.918,-2.925l69.678,-0.024c2.177,-0 3.891,1.734 3.824,3.87l-0.061,1.925l2.711,-0.001l-0.195,6.208l41.795,-0.014l-0.025,0.781l5.183,-0.002c1.217,-0 2.174,0.968 2.136,2.162l0.018,-0.565l14.75,-0.82l5.404,4.368l-0.155,5.234l-5.543,4.346l-14.823,-1.453l-0.008,0.276c-0.038,1.193 -1.056,2.162 -2.272,2.163l-5.184,0.001l-0.015,0.508l-41.795,0.014l-0.194,6.193l-2.712,0.001l-0.062,1.988c-0.067,2.136 -1.89,3.871 -4.067,3.872l-69.678,0.023c-1.774,0.001 -3.241,-1.151 -3.686,-2.733l-7.656,0.002l0.167,-5.312l-5.379,0.002l-0.143,4.578l-20.66,0.007l0.143,-4.578l-5.339,0.001l0.754,-24.002l-0.898,28.581l-19.526,0.007c-0.632,-0 -1.129,-0.503 -1.109,-1.123l0.365,-31.791c0.02,-0.619 0.548,-1.123 1.18,-1.123l20.16,-0.007l-0.142,4.523Zm-21.304,0.007l-0.151,24.936l0.151,-24.936Z" style="fill:rgb(66,141,148);"/>
        <path d="M647.323,482.57l0.075,-12.358c0.001,-0.229 0.027,-0.452 0.075,-0.667l0.032,-2.751c-0,-0.021 0,-0.041 0.001,-0.062c0.071,-2.274 1.984,-4.149 4.302,-4.15l20.16,-0.007c0.846,0 1.656,0.343 2.245,0.95c0.163,0.168 0.305,0.353 0.425,0.549c0.549,-0.901 1.541,-1.5 2.669,-1.5l20.66,-0.007c0.846,-0.001 1.656,0.342 2.245,0.949c0.1,0.104 0.192,0.213 0.277,0.328c0.475,-1.122 1.587,-1.904 2.876,-1.905c0,0 5.725,-0.002 5.725,-0.001c1.316,-1.766 3.435,-2.925 5.795,-2.926l69.678,-0.024c3.531,-0.001 6.37,2.522 6.872,5.82c0.699,0.089 1.351,0.413 1.847,0.924c0.589,0.608 0.906,1.428 0.88,2.273l-0.094,2.983l38.569,-0.012c0.764,-0.001 1.498,0.279 2.067,0.78l3.091,-0.001c1.466,-0 2.773,0.575 3.718,1.506l13.013,-0.724c0.773,-0.043 1.535,0.203 2.138,0.69l5.405,4.367c0.759,0.614 1.188,1.548 1.159,2.524l-0.155,5.234c-0.028,0.927 -0.466,1.793 -1.196,2.366l-5.543,4.347c-0.633,0.496 -1.433,0.729 -2.233,0.651l-12.439,-1.22c-0.986,1.338 -2.578,2.219 -4.358,2.22l-3.492,0.001c-0.491,0.321 -1.078,0.508 -1.707,0.508c-0,0 -38.767,0.013 -38.767,0.013l-0.1,3.167c-0.05,1.606 -1.306,2.898 -2.883,3.018c-0.607,3.308 -3.573,5.869 -7.08,5.87l-69.677,0.023c-2.3,0.001 -4.304,-1.075 -5.562,-2.733l-5.781,0.002c-0.846,0.001 -1.656,-0.342 -2.245,-0.95c-0.279,-0.287 -0.497,-0.623 -0.646,-0.986c-0.573,0.734 -1.465,1.204 -2.464,1.204l-20.66,0.007c-0.846,0 -1.656,-0.342 -2.245,-0.95c-0.163,-0.168 -0.305,-0.352 -0.425,-0.549c-0.549,0.901 -1.541,1.5 -2.669,1.501l-19.527,0.007c-2.416,0 -4.289,-1.943 -4.235,-4.303l0.184,-15.996Zm23.72,12.588l5.339,-0.001l-0.143,4.578l20.66,-0.007l0.143,-4.578l5.379,-0.002l-0.167,5.312l7.656,-0.002c0.445,1.582 1.912,2.734 3.686,2.733l69.678,-0.023c2.177,-0.001 4,-1.736 4.067,-3.872l0.062,-1.988l2.712,-0.001l0.194,-6.193l41.795,-0.014l0.015,-0.508l5.184,-0.001c0.005,-0 0.011,-0 0.016,-0.001c0.004,0.004 0.008,0.008 0.011,0.012c0.589,0.608 1.399,0.951 2.245,0.951l-1.194,-1.234c0.059,-0.032 0.116,-0.066 0.172,-0.103l1.03,1.061l2.935,-2.837l0.014,0.001l-2.685,2.825c0.009,-0.001 0.017,-0.002 0.026,-0.002l2.811,-2.725c0.004,-0.027 0.007,-0.055 0.009,-0.082l11.713,1.148l5.543,-4.346l0.155,-5.234l-5.404,-4.368l-14.75,0.82l-0.018,0.565c0.038,-1.194 -0.919,-2.162 -2.136,-2.162l-5.183,0.002l0.025,-0.781l-41.795,0.014l0.195,-6.208l-2.711,0.001l0.061,-1.925c0.067,-2.136 -1.647,-3.87 -3.824,-3.87l-69.678,0.024c-1.844,0.001 -3.434,1.245 -3.918,2.925l-7.602,0.002l-0.161,5.149l-5.379,0.001l0.142,-4.522l-20.66,0.007l-0.142,4.522l-5.339,0.002l0.142,-4.523l-20.16,0.007c-0.632,0 -1.16,0.504 -1.18,1.123l-0.365,31.791c-0.02,0.62 0.477,1.123 1.109,1.123l19.526,-0.007l0.144,-4.579Zm168.532,-3.605l0.245,-0.238l-0.018,-0.002l-0.227,0.24Z" style="fill:white;"/>
        <rect x="832.489" y="474.882" width="3.964" height="15.71" style="fill:rgb(35,31,32);"/>
        <rect x="442.742" y="472.685" width="211.005" height="19.934" style="fill:rgb(66,141,148);"/>
    </g>
    <g id="Left-in1" serif:id="Left in">
        <path d="M671.827,667.913l5.339,-0.001l0.142,-4.523l20.66,-0.007l-0.142,4.523l5.379,-0.002l0.161,-5.149l7.602,-0.002c0.484,-1.679 2.074,-2.924 3.918,-2.925l69.678,-0.023c2.177,-0.001 3.891,1.733 3.824,3.869l-0.061,1.925l2.711,-0.001l-0.195,6.208l41.795,-0.014l-0.025,0.781l5.183,-0.001c1.217,-0.001 2.174,0.968 2.136,2.161l0.018,-0.565l14.75,-0.82l5.404,4.368l-0.155,5.234l-5.543,4.347l-14.823,-1.454l-0.008,0.276c-0.038,1.193 -1.056,2.162 -2.272,2.163l-5.184,0.001l-0.015,0.508l-41.795,0.014l-0.194,6.193l-2.712,0.001l-0.062,1.988c-0.067,2.136 -1.89,3.871 -4.067,3.872l-69.678,0.024c-1.774,0 -3.241,-1.151 -3.686,-2.734l-7.656,0.002l0.167,-5.312l-5.379,0.002l-0.143,4.578l-20.66,0.007l0.143,-4.578l-5.339,0.001l0.754,-24.002l-0.898,28.581l-19.526,0.007c-0.632,-0 -1.129,-0.503 -1.109,-1.122l0.365,-31.792c0.02,-0.619 0.548,-1.123 1.18,-1.123l20.16,-0.007l-0.142,4.523Zm-21.304,0.008l-0.151,24.935l0.151,-24.935Z" style="fill:rgb(216,78,90);"/>
        <path d="M647.323,680.26l0.075,-12.358c0.001,-0.229 0.027,-0.452 0.075,-0.667l0.032,-2.751c-0,-0.02 0,-0.041 0.001,-0.062c0.071,-2.274 1.984,-4.149 4.302,-4.15l20.16,-0.007c0.846,0 1.656,0.343 2.245,0.95c0.163,0.168 0.305,0.353 0.425,0.55c0.549,-0.902 1.541,-1.501 2.669,-1.501l20.66,-0.007c0.846,-0.001 1.656,0.342 2.245,0.95c0.1,0.103 0.192,0.212 0.277,0.327c0.475,-1.122 1.587,-1.904 2.876,-1.905c0,0 5.725,-0.002 5.725,-0.001c1.316,-1.766 3.435,-2.925 5.795,-2.926l69.678,-0.023c3.531,-0.002 6.37,2.521 6.872,5.819c0.699,0.089 1.351,0.413 1.847,0.924c0.589,0.608 0.906,1.428 0.88,2.274l-0.094,2.983l38.569,-0.013c0.764,-0.001 1.498,0.279 2.067,0.781l3.091,-0.001c1.466,-0.001 2.773,0.574 3.718,1.505l13.013,-0.724c0.773,-0.043 1.535,0.203 2.138,0.69l5.405,4.368c0.759,0.613 1.188,1.547 1.159,2.523l-0.155,5.234c-0.028,0.927 -0.466,1.794 -1.196,2.366l-5.543,4.347c-0.633,0.496 -1.433,0.729 -2.233,0.651l-12.439,-1.22c-0.986,1.338 -2.578,2.219 -4.358,2.22l-3.492,0.001c-0.491,0.321 -1.078,0.508 -1.707,0.508c-0,0 -38.767,0.013 -38.767,0.013l-0.1,3.167c-0.05,1.606 -1.306,2.898 -2.883,3.018c-0.607,3.308 -3.573,5.869 -7.08,5.87l-69.677,0.024c-2.3,0 -4.304,-1.075 -5.562,-2.734l-5.781,0.002c-0.846,0.001 -1.656,-0.342 -2.245,-0.95c-0.279,-0.287 -0.497,-0.623 -0.646,-0.986c-0.573,0.734 -1.465,1.204 -2.464,1.204l-20.66,0.007c-0.846,0 -1.656,-0.342 -2.245,-0.95c-0.163,-0.168 -0.305,-0.352 -0.425,-0.549c-0.549,0.901 -1.541,1.501 -2.669,1.501l-19.527,0.007c-2.416,0.001 -4.289,-1.943 -4.235,-4.303l0.184,-15.996Zm192.252,8.983l0.245,-0.238l-0.018,-0.001l-0.227,0.239Zm-168.532,3.605l5.339,-0.001l-0.143,4.578l20.66,-0.007l0.143,-4.578l5.379,-0.002l-0.167,5.312l7.656,-0.002c0.445,1.583 1.912,2.734 3.686,2.734l69.678,-0.024c2.177,-0.001 4,-1.736 4.067,-3.872l0.062,-1.988l2.712,-0.001l0.194,-6.193l41.795,-0.014l0.015,-0.508l5.184,-0.001c0.005,-0 0.011,-0 0.016,-0c0.004,0.004 0.008,0.008 0.011,0.012c0.589,0.607 1.399,0.95 2.245,0.95l-1.194,-1.234c0.059,-0.032 0.116,-0.066 0.172,-0.103l1.03,1.061l2.935,-2.837l0.014,0.001l-2.685,2.825c0.009,-0.001 0.017,-0.001 0.026,-0.002l2.811,-2.725c0.004,-0.027 0.007,-0.054 0.009,-0.082l11.713,1.149l5.543,-4.347l0.155,-5.234l-5.404,-4.368l-14.75,0.82l-0.018,0.565c0.038,-1.193 -0.919,-2.162 -2.136,-2.161l-5.183,0.001l0.025,-0.781l-41.795,0.014l0.195,-6.208l-2.711,0.001l0.061,-1.925c0.067,-2.136 -1.647,-3.87 -3.824,-3.869l-69.678,0.023c-1.844,0.001 -3.434,1.246 -3.918,2.925l-7.602,0.002l-0.161,5.149l-5.379,0.002l0.142,-4.523l-20.66,0.007l-0.142,4.523l-5.339,0.001l0.142,-4.523l-20.16,0.007c-0.632,0 -1.16,0.504 -1.18,1.123l-0.365,31.792c-0.02,0.619 0.477,1.122 1.109,1.122l19.526,-0.007l0.144,-4.579Z" style="fill:white;"/>
        <rect x="832.489" y="672.572" width="3.964" height="15.71" style="fill:rgb(35,31,32);"/>
        <rect x="442.742" y="670.375" width="211.005" height="19.934" style="fill:rgb(216,78,90);"/>
    </g>
    <g id="Right-in" serif:id="Right in">
        <path d="M671.827,275.764l5.339,-0.001l0.142,-4.523l20.66,-0.007l-0.142,4.523l5.379,-0.002l0.161,-5.149l7.602,-0.002c0.484,-1.679 2.074,-2.924 3.918,-2.925l69.678,-0.023c2.177,-0.001 3.891,1.733 3.824,3.869l-0.061,1.925l2.711,-0l-0.195,6.207l41.795,-0.014l-0.025,0.781l5.183,-0.001c1.217,-0.001 2.174,0.968 2.136,2.161l0.018,-0.564l14.75,-0.821l5.404,4.368l-0.155,5.234l-5.543,4.347l-14.823,-1.454l-0.008,0.276c-0.038,1.193 -1.056,2.162 -2.272,2.163l-5.184,0.002l-0.015,0.507l-41.795,0.014l-0.194,6.193l-2.712,0.001l-0.062,1.988c-0.067,2.136 -1.89,3.871 -4.067,3.872l-69.678,0.024c-1.774,0 -3.241,-1.151 -3.686,-2.734l-7.656,0.002l0.167,-5.312l-5.379,0.002l-0.143,4.578l-20.66,0.007l0.143,-4.578l-5.339,0.002l0.754,-24.002l-0.898,28.58l-19.526,0.007c-0.632,0 -1.129,-0.503 -1.109,-1.122l0.365,-31.792c0.02,-0.619 0.548,-1.122 1.18,-1.123l20.16,-0.006l-0.142,4.522Zm-21.304,0.008l-0.151,24.935l0.151,-24.935Z" style="fill:rgb(125,97,170);"/>
        <path d="M647.323,288.111l0.075,-12.358c0.001,-0.229 0.027,-0.452 0.075,-0.667l0.032,-2.751c-0,-0.02 0,-0.041 0.001,-0.062c0.071,-2.274 1.984,-4.149 4.302,-4.15l20.16,-0.006c0.846,-0.001 1.656,0.342 2.245,0.949c0.163,0.169 0.305,0.353 0.425,0.55c0.549,-0.902 1.541,-1.501 2.669,-1.501l20.66,-0.007c0.846,-0 1.656,0.342 2.245,0.95c0.1,0.103 0.192,0.213 0.277,0.327c0.475,-1.121 1.587,-1.904 2.876,-1.905c0,0 5.725,-0.002 5.725,-0.001c1.316,-1.766 3.435,-2.925 5.795,-2.926l69.678,-0.023c3.531,-0.002 6.37,2.521 6.872,5.819c0.699,0.089 1.351,0.413 1.847,0.924c0.589,0.608 0.906,1.428 0.88,2.274l-0.094,2.983l38.569,-0.013c0.764,-0.001 1.498,0.279 2.067,0.781l3.091,-0.001c1.466,-0.001 2.773,0.574 3.718,1.505l13.013,-0.724c0.773,-0.043 1.535,0.203 2.138,0.69l5.405,4.368c0.759,0.613 1.188,1.547 1.159,2.523l-0.155,5.234c-0.028,0.927 -0.466,1.794 -1.196,2.366l-5.543,4.347c-0.633,0.496 -1.433,0.729 -2.233,0.651l-12.439,-1.22c-0.986,1.338 -2.578,2.219 -4.358,2.22l-3.492,0.001c-0.491,0.321 -1.078,0.508 -1.707,0.508c-0,0 -38.767,0.013 -38.767,0.013l-0.1,3.167c-0.05,1.606 -1.306,2.898 -2.883,3.018c-0.607,3.308 -3.573,5.869 -7.08,5.87l-69.677,0.024c-2.3,0 -4.304,-1.075 -5.562,-2.733l-5.781,0.001c-0.846,0.001 -1.656,-0.342 -2.245,-0.949c-0.279,-0.288 -0.497,-0.624 -0.646,-0.987c-0.573,0.734 -1.465,1.204 -2.464,1.204l-20.66,0.007c-0.846,0.001 -1.656,-0.342 -2.245,-0.95c-0.163,-0.168 -0.305,-0.352 -0.425,-0.549c-0.549,0.901 -1.541,1.501 -2.669,1.501l-19.527,0.007c-2.416,0.001 -4.289,-1.943 -4.235,-4.303l0.184,-15.996Zm192.252,8.983l0.245,-0.238l-0.018,-0.001l-0.227,0.239Zm-168.532,3.606l5.339,-0.002l-0.143,4.578l20.66,-0.007l0.143,-4.578l5.379,-0.002l-0.167,5.312l7.656,-0.002c0.445,1.583 1.912,2.734 3.686,2.734l69.678,-0.024c2.177,-0.001 4,-1.736 4.067,-3.872l0.062,-1.988l2.712,-0.001l0.194,-6.193l41.795,-0.014l0.015,-0.507l5.184,-0.002c0.005,-0 0.011,-0 0.016,-0c0.004,0.004 0.008,0.008 0.011,0.012c0.589,0.607 1.399,0.95 2.245,0.95l-1.194,-1.234c0.059,-0.032 0.116,-0.066 0.172,-0.102l1.03,1.06l2.935,-2.837l0.014,0.001l-2.685,2.825c0.009,-0.001 0.017,-0.001 0.026,-0.002l2.811,-2.725c0.004,-0.027 0.007,-0.054 0.009,-0.082l11.713,1.149l5.543,-4.347l0.155,-5.234l-5.404,-4.368l-14.75,0.821l-0.018,0.564c0.038,-1.193 -0.919,-2.162 -2.136,-2.161l-5.183,0.001l0.025,-0.781l-41.795,0.014l0.195,-6.207l-2.711,0l0.061,-1.925c0.067,-2.136 -1.647,-3.87 -3.824,-3.869l-69.678,0.023c-1.844,0.001 -3.434,1.246 -3.918,2.925l-7.602,0.002l-0.161,5.149l-5.379,0.002l0.142,-4.523l-20.66,0.007l-0.142,4.523l-5.339,0.001l0.142,-4.522l-20.16,0.006c-0.632,0.001 -1.16,0.504 -1.18,1.123l-0.365,31.792c-0.02,0.619 0.477,1.122 1.109,1.122l19.526,-0.007l0.144,-4.578Z" style="fill:white;"/>
        <rect x="832.489" y="280.423" width="3.964" height="15.71" style="fill:rgb(35,31,32);"/>
        <rect x="442.742" y="278.226" width="211.005" height="19.934" style="fill:rgb(125,97,170);"/>
    </g>
</svg>
