<?xml version="1.0" encoding="UTF-8" standalone="no"?>
<!DOCTYPE svg PUBLIC "-//W3C//DTD SVG 1.1//EN" "http://www.w3.org/Graphics/SVG/1.1/DTD/svg11.dtd">
<svg width="100%" height="100%" viewBox="0 0 2000 12850" version="1.1" xmlns="http://www.w3.org/2000/svg" xmlns:xlink="http://www.w3.org/1999/xlink" xml:space="preserve" xmlns:serif="http://www.serif.com/" style="fill-rule:evenodd;clip-rule:evenodd;stroke-linejoin:round;stroke-miterlimit:2;">
    <rect id="EdgeCuts" x="0" y="0" width="2000" height="12850" style="fill:rgb(42,42,42);"/>
    <path id="FCu" d="M1978.63,29.789L21.368,29.789L21.368,12817.8L1978.63,12817.8L1978.63,29.789ZM448.733,10735.9C267.905,10735.9 121.094,10882.7 121.094,11063.5C121.094,11244.4 267.905,11391.2 448.733,11391.2C629.562,11391.2 776.372,11244.4 776.372,11063.5C776.372,10882.7 629.562,10735.9 448.733,10735.9ZM1549.4,10735.9C1368.57,10735.9 1221.76,10882.7 1221.76,11063.5C1221.76,11244.4 1368.57,11391.2 1549.4,11391.2C1730.23,11391.2 1877.04,11244.4 1877.04,11063.5C1877.04,10882.7 1730.23,10735.9 1549.4,10735.9ZM1000,10235.7C1132.13,10235.7 1239.4,10343 1239.4,10475.1C1239.4,10607.2 1132.13,10714.5 1000,10714.5C867.872,10714.5 760.6,10607.2 760.6,10475.1C760.6,10343 867.872,10235.7 1000,10235.7ZM1549.4,9550.56C1368.57,9550.56 1221.76,9697.37 1221.76,9878.2C1221.76,10059 1368.57,10205.8 1549.4,10205.8C1730.23,10205.8 1877.04,10059 1877.04,9878.2C1877.04,9697.37 1730.23,9550.56 1549.4,9550.56ZM448.733,9550.56C267.905,9550.56 121.094,9697.37 121.094,9878.2C121.094,10059 267.905,10205.8 448.733,10205.8C629.562,10205.8 776.372,10059 776.372,9878.2C776.372,9697.37 629.562,9550.56 448.733,9550.56ZM1549.4,8280.56C1368.57,8280.56 1221.76,8427.37 1221.76,8608.2C1221.76,8789.03 1368.57,8935.84 1549.4,8935.84C1730.23,8935.84 1877.04,8789.03 1877.04,8608.2C1877.04,8427.37 1730.23,8280.56 1549.4,8280.56ZM448.733,8280.56C267.905,8280.56 121.094,8427.37 121.094,8608.2C121.094,8789.03 267.905,8935.84 448.733,8935.84C629.562,8935.84 776.372,8789.03 776.372,8608.2C776.372,8427.37 629.562,8280.56 448.733,8280.56ZM1000,7800.07C1132.13,7800.07 1239.4,7907.34 1239.4,8039.47C1239.4,8171.6 1132.13,8278.87 1000,8278.87C867.872,8278.87 760.6,8171.6 760.6,8039.47C760.6,7907.34 867.872,7800.07 1000,7800.07ZM448.733,7103.69C267.905,7103.69 121.094,7250.51 121.094,7431.33C121.094,7612.16 267.905,7758.97 448.733,7758.97C629.562,7758.97 776.372,7612.16 776.372,7431.33C776.372,7250.51 629.562,7103.69 448.733,7103.69ZM1549.4,7103.69C1368.57,7103.69 1221.76,7250.51 1221.76,7431.33C1221.76,7612.16 1368.57,7758.97 1549.4,7758.97C1730.23,7758.97 1877.04,7612.16 1877.04,7431.33C1877.04,7250.51 1730.23,7103.69 1549.4,7103.69ZM448.733,5816.76C267.905,5816.76 121.094,5963.57 121.094,6144.4C121.094,6325.23 267.905,6472.04 448.733,6472.04C629.562,6472.04 776.372,6325.23 776.372,6144.4C776.372,5963.57 629.562,5816.76 448.733,5816.76ZM1549.4,5816.76C1368.57,5816.76 1221.76,5963.57 1221.76,6144.4C1221.76,6325.23 1368.57,6472.04 1549.4,6472.04C1730.23,6472.04 1877.04,6325.23 1877.04,6144.4C1877.04,5963.57 1730.23,5816.76 1549.4,5816.76ZM1000,5315.98C1132.13,5315.98 1239.4,5423.25 1239.4,5555.38C1239.4,5687.51 1132.13,5794.78 1000,5794.78C867.872,5794.78 760.6,5687.51 760.6,5555.38C760.6,5423.25 867.872,5315.98 1000,5315.98ZM448.733,4631.43C267.905,4631.43 121.094,4778.24 121.094,4959.07C121.094,5139.9 267.905,5286.71 448.733,5286.71C629.562,5286.71 776.372,5139.9 776.372,4959.07C776.372,4778.24 629.562,4631.43 448.733,4631.43ZM1549.4,4631.43C1368.57,4631.43 1221.76,4778.24 1221.76,4959.07C1221.76,5139.9 1368.57,5286.71 1549.4,5286.71C1730.23,5286.71 1877.04,5139.9 1877.04,4959.07C1877.04,4778.24 1730.23,4631.43 1549.4,4631.43ZM448.733,3361.43C267.905,3361.43 121.094,3508.24 121.094,3689.07C121.094,3869.89 267.905,4016.71 448.733,4016.71C629.562,4016.71 776.372,3869.89 776.372,3689.07C776.372,3508.24 629.562,3361.43 448.733,3361.43ZM1549.4,3361.43C1368.57,3361.43 1221.76,3508.24 1221.76,3689.07C1221.76,3869.89 1368.57,4016.71 1549.4,4016.71C1730.23,4016.71 1877.04,3869.89 1877.04,3689.07C1877.04,3508.24 1730.23,3361.43 1549.4,3361.43ZM1000,2875.52C1132.13,2875.52 1239.4,2982.79 1239.4,3114.92C1239.4,3247.05 1132.13,3354.32 1000,3354.32C867.872,3354.32 760.6,3247.05 760.6,3114.92C760.6,2982.79 867.872,2875.52 1000,2875.52ZM448.733,2184.56C267.905,2184.56 121.094,2331.37 121.094,2512.2C121.094,2693.03 267.905,2839.84 448.733,2839.84C629.562,2839.84 776.372,2693.03 776.372,2512.2C776.372,2331.37 629.562,2184.56 448.733,2184.56ZM1549.4,2184.56C1368.57,2184.56 1221.76,2331.37 1221.76,2512.2C1221.76,2693.03 1368.57,2839.84 1549.4,2839.84C1730.23,2839.84 1877.04,2693.03 1877.04,2512.2C1877.04,2331.37 1730.23,2184.56 1549.4,2184.56Z" style="fill:rgb(189,24,28);"/>
    <rect id="BCu" x="21.368" y="11525.6" width="1957.26" height="829.036" style="fill:rgb(96,0,7);"/>
    <g id="BMask">
        <circle cx="1000" cy="3114.92" r="239.4" style="fill:rgb(21,103,243);"/>
        <circle cx="1000" cy="5555.38" r="239.4" style="fill:rgb(21,103,243);"/>
        <circle cx="1000" cy="8039.47" r="239.4" style="fill:rgb(21,103,243);"/>
        <circle cx="1000" cy="10475.1" r="239.4" style="fill:rgb(21,103,243);"/>
    </g>
    <g id="BSilkS">
        <path id="Waves" d="M1297.71,8789.12C1337.3,8844.08 1394.44,8885.57 1460.89,8905.36C1338.55,8941.98 1216.16,8980.44 1093.76,9018.84C563.185,9185.29 32.375,9350.65 -498.257,9372.89L-498.257,9214.03C16.675,9191.54 531.344,9028.9 1046.24,8867.37C1130.06,8841.07 1213.88,8814.8 1297.71,8789.12ZM1858.47,8632.31C2071.75,8580.72 2285.02,8541.02 2498.26,8522.41L2498.26,8681.63C2258.83,8703.36 2019.43,8752.64 1780.05,8815.24C1824.35,8765.93 1853.08,8702.36 1858.47,8632.31ZM760.785,8048.96C528.429,7989.03 295.649,7854.35 63.783,7717.32C-123.955,7606.37 -310.971,7493.61 -498.257,7429.3L-498.257,7264.31C-283.948,7329.87 -69.31,7454.27 144.55,7580.65C161.807,7590.85 179.058,7601.06 196.341,7611.27C247.734,7683.2 329.092,7732.28 422.104,7740.2C550.345,7809.02 678.469,7867.06 806.795,7898.15C777.755,7937.77 760.6,7986.63 760.6,8039.47C760.6,8042.65 760.662,8045.82 760.785,8048.96ZM1193.2,7898.15C1321.65,7867.03 1449.89,7808.92 1578.27,7740C1669.52,7731.56 1749.37,7683.49 1800.41,7613.19C1818.77,7602.35 1837.11,7591.49 1855.45,7580.65C2069.31,7454.27 2283.95,7329.87 2498.26,7264.31L2498.26,7429.3C2310.97,7493.61 2123.95,7606.37 1936.22,7717.32C1704.35,7854.35 1471.57,7989.03 1239.21,8048.96C1239.34,8045.82 1239.4,8042.65 1239.4,8039.47C1239.4,7986.63 1222.25,7937.77 1193.2,7898.15ZM1859.4,6143.77C1906.33,6124.32 1953.3,6113.73 2000,6113.73C2081.22,6113.73 2163.3,6145.76 2244.53,6200.81C2328.94,6258.01 2413.71,6340.9 2498.26,6428.98L2498.26,6659.48C2479.6,6640.01 2460.94,6620.28 2442.29,6600.54C2361.67,6515.18 2281.26,6429.58 2200.64,6365.56C2133.18,6311.99 2067.45,6272.48 2000,6272.48C1932.55,6272.48 1866.82,6311.99 1799.36,6365.56C1718.74,6429.58 1638.33,6515.18 1557.71,6600.54C1453.49,6710.89 1348.74,6820.66 1244.53,6891.28C1163.3,6946.32 1081.22,6978.36 1000,6978.36C918.776,6978.36 836.697,6946.32 755.472,6891.28C651.257,6820.66 546.508,6710.89 442.293,6600.54C361.668,6515.18 281.263,6429.58 200.638,6365.56C133.185,6311.99 67.453,6272.48 0,6272.48C-67.453,6272.48 -133.185,6311.99 -200.638,6365.56C-281.263,6429.58 -361.668,6515.18 -442.293,6600.54C-460.937,6620.28 -479.599,6640.01 -498.257,6659.48L-498.257,6428.98C-413.706,6340.9 -328.942,6258.01 -244.528,6200.81C-163.303,6145.76 -81.224,6113.73 0,6113.73C46.078,6113.73 92.432,6124.04 138.737,6143C138.734,6143.48 138.733,6143.94 138.733,6144.4C138.733,6315.49 277.64,6454.4 448.733,6454.4C471.694,6454.4 494.075,6451.9 515.635,6447.15C529.663,6461.87 543.69,6476.7 557.707,6491.54C638.332,6576.91 718.737,6662.51 799.362,6726.53C866.815,6780.1 932.547,6819.61 1000,6819.61C1067.45,6819.61 1133.18,6780.1 1200.64,6726.53C1281.26,6662.51 1361.67,6576.91 1442.29,6491.54C1456.21,6476.81 1470.13,6462.09 1484.04,6447.49C1505.13,6452.02 1526.99,6454.4 1549.4,6454.4C1720.49,6454.4 1859.4,6315.49 1859.4,6144.4L1859.4,6143.77ZM1851.67,5028.1C1865.99,5035.76 1880.28,5044.46 1894.53,5054.11C1969.58,5104.97 2045.16,5183.86 2120.21,5263.32C2176.53,5322.95 2232.63,5382.81 2288.95,5427.54C2332.1,5461.81 2373.51,5488.45 2416.67,5488.45C2444.27,5488.45 2471.17,5477.54 2498.26,5460.72L2498.26,5633.96C2470.99,5642.62 2443.74,5647.2 2416.67,5647.2C2354.89,5647.2 2292.25,5623.4 2230.47,5581.53C2155.42,5530.67 2079.84,5451.78 2004.79,5372.32C1948.47,5312.69 1892.37,5252.83 1836.06,5208.11C1816.55,5192.61 1797.39,5178.68 1778.28,5168.06C1813.81,5129.19 1839.57,5081.23 1851.67,5028.1ZM146.667,5028.99C158.923,5082.08 184.832,5129.97 220.49,5168.75C201.779,5179.28 183.032,5192.95 163.945,5208.11C107.626,5252.83 51.526,5312.69 -4.793,5372.32C-79.842,5451.78 -155.424,5530.67 -230.472,5581.53C-292.253,5623.4 -354.886,5647.2 -416.667,5647.2C-443.745,5647.2 -470.987,5642.62 -498.257,5633.96L-498.257,5460.72C-471.166,5477.54 -444.272,5488.45 -416.667,5488.45C-373.513,5488.45 -332.099,5461.81 -288.945,5427.54C-232.626,5382.81 -176.526,5322.95 -120.207,5263.32C-45.158,5183.86 30.424,5104.97 105.472,5054.11C119.169,5044.83 132.908,5036.44 146.667,5028.99ZM760.995,5541.53C703.384,5493.69 645.599,5433.17 588.127,5372.32C553.929,5336.11 519.813,5299.82 485.68,5266.88C544.967,5259.83 599.141,5236.01 643.333,5200.32C663.426,5220.93 683.502,5242.1 703.54,5263.32C744.991,5307.21 786.323,5351.22 827.708,5389.23C789.162,5429.19 764.37,5482.51 760.995,5541.53ZM1172.29,5389.23C1213.68,5351.22 1255.01,5307.21 1296.46,5263.32C1316.23,5242.39 1336.03,5221.5 1355.85,5201.16C1400.26,5236.72 1454.64,5260.33 1514.12,5267.08C1480.05,5299.96 1446,5336.18 1411.87,5372.32C1354.4,5433.17 1296.62,5493.69 1239.01,5541.53C1235.63,5482.52 1210.84,5429.2 1172.29,5389.23ZM435.417,3998.79C417.044,4027.04 398.669,4057.26 380.229,4087.43C321.695,4183.22 261.476,4277.76 202.942,4326.61C163.553,4359.48 122.721,4375.42 83.333,4375.42C43.945,4375.42 3.113,4359.48 -36.275,4326.61C-94.809,4277.76 -155.028,4183.22 -213.563,4087.43C-249.776,4028.18 -285.738,3968.75 -321.951,3924.31C-333.723,3909.86 -345.336,3897.18 -357.108,3887.36C-363.667,3881.89 -368.441,3875.42 -375,3875.42C-381.559,3875.42 -386.333,3881.89 -392.892,3887.36C-404.664,3897.18 -416.277,3909.86 -428.049,3924.31C-451.512,3953.1 -474.869,3988.19 -498.257,4025.44L-498.257,3768.58C-497.044,3767.53 -495.826,3766.49 -494.608,3765.48C-455.22,3732.61 -414.388,3716.67 -375,3716.67C-335.612,3716.67 -294.78,3732.61 -255.392,3765.48C-196.858,3814.33 -136.638,3908.87 -78.104,4004.65C-41.891,4063.91 -5.929,4123.34 30.284,4167.78C42.057,4182.23 53.669,4194.9 65.442,4204.73C72,4210.2 76.775,4216.67 83.333,4216.67C89.892,4216.67 94.667,4210.2 101.225,4204.73C112.998,4194.9 124.61,4182.23 136.382,4167.78C172.596,4123.34 208.558,4063.91 244.771,4004.65C256.261,3985.85 267.816,3967.1 279.414,3948.72C324.616,3978.28 378.008,3996.36 435.417,3998.79ZM1720.04,3947.85C1731.82,3966.5 1743.56,3985.55 1755.23,4004.65C1791.44,4063.91 1827.4,4123.34 1863.62,4167.78C1875.39,4182.23 1887,4194.9 1898.78,4204.73C1905.33,4210.2 1910.11,4216.67 1916.67,4216.67C1923.23,4216.67 1928,4210.2 1934.56,4204.73C1946.33,4194.9 1957.94,4182.23 1969.72,4167.78C2005.93,4123.34 2041.89,4063.91 2078.1,4004.65C2136.64,3908.87 2196.86,3814.33 2255.39,3765.48C2294.78,3732.61 2335.61,3716.67 2375,3716.67C2414.39,3716.67 2455.22,3732.61 2494.61,3765.48C2495.83,3766.49 2497.04,3767.53 2498.26,3768.58L2498.26,4025.44C2474.87,3988.19 2451.51,3953.1 2428.05,3924.31C2416.28,3909.86 2404.66,3897.18 2392.89,3887.36C2386.33,3881.89 2381.56,3875.42 2375,3875.42C2368.44,3875.42 2363.67,3881.89 2357.11,3887.36C2345.34,3897.18 2333.72,3909.86 2321.95,3924.31C2285.74,3968.75 2249.78,4028.18 2213.56,4087.43C2155.03,4183.22 2094.81,4277.76 2036.28,4326.61C1996.89,4359.48 1956.06,4375.42 1916.67,4375.42C1877.28,4375.42 1836.45,4359.48 1797.06,4326.61C1738.52,4277.76 1678.31,4183.22 1619.77,4087.43C1601.31,4057.23 1582.92,4026.98 1564.53,3998.7C1621.81,3995.95 1675.03,3977.62 1720.04,3947.85ZM723.696,3832.27C762.078,3881.17 800.673,3942.65 838.563,4004.65C874.776,4063.91 910.738,4123.34 946.951,4167.78C958.723,4182.23 970.336,4194.9 982.108,4204.73C988.667,4210.2 993.441,4216.67 1000,4216.67C1006.56,4216.67 1011.33,4210.2 1017.89,4204.73C1029.66,4194.9 1041.28,4182.23 1053.05,4167.78C1089.26,4123.34 1125.22,4063.91 1161.44,4004.65C1198.96,3943.26 1237.17,3882.37 1275.19,3833.7C1300.67,3881.88 1338.49,3922.56 1384.41,3951.5C1355.23,3991.6 1326.14,4039.57 1296.9,4087.43C1238.36,4183.22 1178.14,4277.76 1119.61,4326.61C1080.22,4359.48 1039.39,4375.42 1000,4375.42C960.612,4375.42 919.78,4359.48 880.392,4326.61C821.858,4277.76 761.638,4183.22 703.104,4087.43C673.659,4039.25 644.38,3990.96 614.995,3950.7C660.803,3921.5 698.443,3880.62 723.696,3832.27ZM621.997,2255.17C650.525,2227.84 681.213,2216.67 708.333,2216.67C742.111,2216.67 781.424,2233.99 815.202,2278.29C852.34,2326.99 891.006,2421.78 928.145,2517.27C950.482,2574.71 972.673,2632.22 995.011,2676.42C996.508,2679.38 998.193,2682.48 1000,2685.6C1001.81,2682.48 1003.49,2679.38 1004.99,2676.42C1027.33,2632.22 1049.52,2574.71 1071.86,2517.27C1108.99,2421.78 1147.66,2326.99 1184.8,2278.29C1218.58,2233.99 1257.89,2216.67 1291.67,2216.67C1318.54,2216.67 1348.92,2227.64 1377.23,2254.43C1294.15,2310.06 1239.4,2404.79 1239.4,2512.2C1239.4,2516.19 1239.48,2520.16 1239.62,2524.11C1233.03,2540.79 1226.42,2557.8 1219.81,2574.81C1182.67,2670.31 1144.01,2765.09 1106.87,2813.8C1073.09,2858.1 1033.78,2875.42 1000,2875.42C966.222,2875.42 926.909,2858.1 893.132,2813.8C855.993,2765.09 817.327,2670.31 780.189,2574.81C772.994,2556.31 765.814,2537.8 758.643,2519.74C758.703,2517.22 758.733,2514.72 758.733,2512.2C758.733,2405.27 704.473,2310.91 621.997,2255.17ZM1762.02,2286.69C1764.06,2283.76 1766.1,2280.95 1768.13,2278.29C1801.91,2233.99 1841.22,2216.67 1875,2216.67C1908.78,2216.67 1948.09,2233.99 1981.87,2278.29C2019.01,2326.99 2057.67,2421.78 2094.81,2517.27C2117.15,2574.71 2139.34,2632.22 2161.68,2676.42C2163.17,2679.38 2164.86,2682.48 2166.67,2685.6C2168.47,2682.48 2170.16,2679.38 2171.66,2676.42C2193.99,2632.22 2216.18,2574.71 2238.52,2517.27C2275.66,2421.78 2314.33,2326.99 2351.47,2278.29C2385.24,2233.99 2424.56,2216.67 2458.33,2216.67C2471.05,2216.67 2484.56,2219.12 2498.26,2224.55L2498.26,2493.94C2486.62,2465.49 2474.99,2438.76 2463.32,2415.67C2461.83,2412.7 2460.14,2409.61 2458.33,2406.49C2456.53,2409.61 2454.84,2412.7 2453.34,2415.67C2431.01,2459.87 2408.82,2517.37 2386.48,2574.81C2349.34,2670.31 2310.67,2765.09 2273.53,2813.8C2239.76,2858.1 2200.44,2875.42 2166.67,2875.42C2132.89,2875.42 2093.58,2858.1 2059.8,2813.8C2022.66,2765.09 1983.99,2670.31 1946.86,2574.81C1924.52,2517.37 1902.33,2459.87 1879.99,2415.67C1878.49,2412.7 1876.81,2409.61 1875,2406.49C1873.19,2409.61 1871.51,2412.7 1870.01,2415.67C1864.45,2426.68 1858.89,2438.51 1853.34,2450.97C1840.48,2386.87 1807.82,2329.89 1762.02,2286.69ZM1715.89,2773.68C1707.28,2789.1 1698.7,2802.65 1690.2,2813.8C1656.42,2858.1 1617.11,2875.42 1583.33,2875.42C1549.56,2875.42 1510.24,2858.1 1476.46,2813.8L1476.24,2813.5C1499.69,2819.19 1524.2,2822.2 1549.4,2822.2C1610.65,2822.2 1667.78,2804.4 1715.89,2773.68ZM285.131,2775.5C332.623,2805.1 388.697,2822.2 448.733,2822.2C474.757,2822.2 500.035,2818.99 524.188,2812.94C523.973,2813.22 523.754,2813.51 523.535,2813.8C489.758,2858.1 450.444,2875.42 416.667,2875.42C382.889,2875.42 343.576,2858.1 309.798,2813.8C301.639,2803.1 293.406,2790.17 285.131,2775.5ZM145.379,2448.11C140.252,2436.69 135.125,2425.83 129.989,2415.67C128.492,2412.7 126.807,2409.61 125,2406.49C123.193,2409.61 121.508,2412.7 120.011,2415.67C97.673,2459.87 75.482,2517.37 53.145,2574.81C16.006,2670.31 -22.66,2765.09 -59.798,2813.8C-93.576,2858.1 -132.889,2875.42 -166.667,2875.42C-200.444,2875.42 -239.758,2858.1 -273.535,2813.8C-310.673,2765.09 -349.34,2670.31 -386.478,2574.81C-408.816,2517.37 -431.006,2459.87 -453.344,2415.67C-454.841,2412.7 -456.527,2409.61 -458.333,2406.49C-460.14,2409.61 -461.826,2412.7 -463.323,2415.67C-474.994,2438.76 -486.625,2465.49 -498.257,2493.94L-498.257,2224.55C-484.56,2219.12 -471.054,2216.67 -458.333,2216.67C-424.556,2216.67 -385.242,2233.99 -351.465,2278.29C-314.327,2326.99 -275.66,2421.78 -238.522,2517.27C-216.184,2574.71 -193.994,2632.22 -171.656,2676.42C-170.159,2679.38 -168.473,2682.48 -166.667,2685.6C-164.86,2682.48 -163.174,2679.38 -161.677,2676.42C-139.34,2632.22 -117.149,2574.71 -94.811,2517.27C-57.673,2421.78 -19.007,2326.99 18.132,2278.29C51.909,2233.99 91.222,2216.67 125,2216.67C158.778,2216.67 198.091,2233.99 231.868,2278.29C233.655,2280.63 235.445,2283.08 237.238,2285.63C191.536,2328.32 158.74,2384.65 145.379,2448.11Z" style="fill:white;"/>
    </g>
    <g id="FMask">
        <g>
            <path d="M1097.22,1754.08C1097.23,1733.04 1068.82,1708.1 1046.72,1708.08L955.896,1705.24C933.79,1705.23 912.478,1727.37 912.462,1748.42C912.446,1769.46 922.282,1781.26 944.389,1781.27L1059.35,1781.35C1081.45,1781.37 1097.2,1775.12 1097.22,1754.08Z" style="fill:rgb(255,162,0);"/>
            <path d="M1078.32,1772.87C1078.33,1754.71 1059.19,1743.31 1040.12,1743.3L970.556,1743.3C951.476,1743.28 932.322,1754.14 932.308,1772.3C932.294,1790.46 944.111,1808.13 963.915,1814.23C992.497,1823.04 1021.08,1820.5 1049.66,1808.54C1068.74,1808.56 1078.3,1791.03 1078.32,1772.87Z" style="fill:rgb(255,162,0);"/>
            <path d="M1005.67,1017.47C1199.14,1017.47 1322.88,1146.68 1322.88,1350.58C1322.88,1554.48 1143.36,1720.78 1010.33,1781.35C877.574,1710.35 677.118,1571.41 677.118,1367.51C677.118,1163.62 812.201,1017.47 1005.67,1017.47ZM750.123,1345.84C762.546,1345.69 769.765,1352.66 784.226,1383.93C796.212,1409.84 796.927,1485.13 816.943,1531.81C838.209,1581.41 919.57,1657.96 924.849,1675.58C935.605,1711.49 827.733,1607.66 792.242,1559.54C752.49,1505.65 687.243,1360.99 750.123,1345.84ZM1270.52,1239.08C1280.42,1239.08 1288.46,1247.15 1288.46,1257.09C1288.46,1267.03 1280.42,1275.11 1270.52,1275.11C1260.62,1275.11 1252.58,1267.03 1252.58,1257.09C1252.58,1247.15 1260.62,1239.08 1270.52,1239.08ZM1108.37,1058.25C1144.52,1045.85 1252.88,1150.9 1249.84,1184.86C1248.79,1196.51 1240.8,1221 1228.26,1218.44C1204.06,1213.5 1115.38,1180.7 1104.63,1155.21C1095.53,1133.63 1067.18,1072.37 1108.37,1058.25Z" style="fill:rgb(255,162,0);"/>
        </g>
        <path d="M1001.18,2938.28C1054.43,3031.3 1108.19,3124.42 1162.12,3217.03C1054.94,3216.64 947.423,3216.64 840.246,3217.03C894.179,3124.42 947.94,3031.3 1001.18,2938.28Z" style="fill:rgb(163,211,255);"/>
        <path d="M1000,10289.3L1160.94,10382.2L1160.94,10568L1000,10660.9L839.063,10568L839.063,10382.2L1000,10289.3Z" style="fill:rgb(163,211,255);"/>
        <path d="M1000,5370.13L1185.83,5555.97L1000,5741.8L814.166,5555.97L1000,5370.13Z" style="fill:rgb(163,211,255);"/>
        <path d="M1001.18,7851.68L1177.92,7980.09L1110.41,8187.86L891.953,8187.86L824.444,7980.09L1001.18,7851.68Z" style="fill:rgb(163,211,255);"/>
        <circle cx="448.733" cy="2516.43" r="475" style="fill:rgb(255,162,0);"/>
        <circle cx="448.733" cy="4959.07" r="475" style="fill:rgb(255,162,0);"/>
        <circle cx="1549.4" cy="9878.2" r="475" style="fill:rgb(255,162,0);"/>
        <circle cx="448.733" cy="11063.5" r="475" style="fill:rgb(255,162,0);"/>
        <circle cx="448.733" cy="9878.2" r="475" style="fill:rgb(255,162,0);"/>
        <circle cx="448.733" cy="7431.33" r="475" style="fill:rgb(255,162,0);"/>
        <path id="Stars" d="M1756,12705.5C1750.08,12702.6 1742.86,12705 1739.9,12710.9C1736.94,12716.8 1739.35,12724 1745.27,12727C1751.19,12729.9 1758.4,12727.5 1761.36,12721.6C1764.32,12715.7 1761.92,12708.5 1756,12705.5ZM586.993,12613C581.071,12610 573.86,12612.5 570.899,12618.4C567.938,12624.3 570.342,12631.5 576.263,12634.5C582.185,12637.4 589.396,12635 592.357,12629.1C595.318,12623.2 592.914,12616 586.993,12613ZM1638.89,12556.2C1632.97,12553.3 1625.76,12555.7 1622.8,12561.6C1619.84,12567.5 1622.24,12574.7 1628.16,12577.7C1634.09,12580.7 1641.3,12578.2 1644.26,12572.3C1647.22,12566.4 1644.82,12559.2 1638.89,12556.2ZM1438.3,12533.1C1432.38,12530.2 1425.17,12532.6 1422.21,12538.5C1419.25,12544.4 1421.65,12551.6 1427.58,12554.6C1433.5,12557.5 1440.71,12555.1 1443.67,12549.2C1446.63,12543.3 1444.23,12536.1 1438.3,12533.1ZM644.751,12477.7C638.829,12474.7 631.618,12477.1 628.657,12483.1C625.696,12489 628.1,12496.2 634.022,12499.1C639.943,12502.1 647.155,12499.7 650.115,12493.8C653.076,12487.9 650.672,12480.6 644.751,12477.7ZM322.582,12319.1C315.18,12312.2 303.562,12312.6 296.653,12320C289.745,12327.4 290.145,12339.1 297.547,12346C304.949,12352.9 316.568,12352.5 323.476,12345.1C330.385,12337.7 329.984,12326.1 322.582,12319.1ZM1032.7,12319.7C1037.09,12319.7 1041.31,12317.3 1043.4,12313.1C1046.36,12307.2 1043.95,12300 1038.03,12297C1036.32,12296.1 1034.5,12295.7 1032.71,12295.7L1032.67,12295.7C1028.28,12295.7 1024.04,12298.2 1021.94,12302.4C1018.98,12308.3 1021.38,12315.5 1027.3,12318.4C1029.03,12319.3 1030.86,12319.7 1032.66,12319.7L1032.7,12319.7ZM1329.88,12216.5C1318.61,12206.6 1301.5,12207.8 1291.69,12219.1C1281.87,12230.3 1283.05,12247.5 1294.31,12257.3C1305.57,12267.1 1322.69,12265.9 1332.5,12254.6C1342.32,12243.4 1341.14,12226.3 1329.88,12216.5ZM1737.91,12180.3C1726.64,12170.5 1709.53,12171.7 1699.72,12183C1689.9,12194.2 1691.08,12211.3 1702.34,12221.1C1713.6,12231 1730.72,12229.8 1740.53,12218.5C1750.35,12207.3 1749.17,12190.1 1737.91,12180.3ZM836.009,12158C840.394,12158 844.612,12155.5 846.705,12151.3C849.666,12145.4 847.263,12138.2 841.341,12135.3C839.629,12134.4 837.809,12134 836.016,12134L835.98,12134C831.582,12134 827.346,12136.4 825.247,12140.6C822.286,12146.5 824.69,12153.8 830.612,12156.7C832.335,12157.6 834.167,12158 835.973,12158L836.009,12158ZM554.289,12089.1C548.367,12086.1 541.155,12088.5 538.195,12094.4C535.234,12100.4 537.638,12107.6 543.559,12110.5C549.481,12113.5 556.692,12111.1 559.653,12105.2C562.614,12099.2 560.21,12092 554.289,12089.1ZM124.595,12038C128.98,12037.9 133.198,12035.5 135.291,12031.3C138.252,12025.4 135.848,12018.2 129.927,12015.2C128.215,12014.4 126.395,12014 124.602,12014L124.566,12014C120.168,12014 115.932,12016.4 113.833,12020.6C110.872,12026.5 113.276,12033.7 119.197,12036.7C120.921,12037.6 122.753,12038 124.559,12038L124.595,12038ZM1361.73,12022.6C1366.11,12022.6 1370.33,12020.2 1372.42,12016C1375.39,12010.1 1372.98,12002.9 1367.06,11999.9C1365.35,11999 1363.53,11998.6 1361.74,11998.6L1361.7,11998.6C1357.3,11998.6 1353.07,12001.1 1350.97,12005.3C1348.01,12011.2 1350.41,12018.4 1356.33,12021.4C1358.05,12022.2 1359.89,12022.6 1361.69,12022.6L1361.73,12022.6ZM879.454,11806.3C864.878,11793 842.257,11794.1 828.972,11808.7C815.686,11823.2 816.734,11845.9 831.31,11859.1C845.887,11872.4 868.507,11871.4 881.793,11856.8C895.079,11842.2 894.031,11819.6 879.454,11806.3ZM1818.39,11731.2C1812.47,11728.2 1805.25,11730.6 1802.29,11736.6C1799.33,11742.5 1801.74,11749.7 1807.66,11752.7C1813.58,11755.6 1820.79,11753.2 1823.75,11747.3C1826.71,11741.4 1824.31,11734.2 1818.39,11731.2ZM124.278,11521.4C113.123,11509.5 94.434,11509 82.569,11520.1C70.704,11531.3 70.127,11550 81.282,11561.8C92.437,11573.7 111.126,11574.3 122.99,11563.1C134.855,11552 135.432,11533.3 124.278,11521.4ZM422.136,11462.4C414.734,11455.5 403.116,11455.9 396.207,11463.3C389.299,11470.7 389.699,11482.3 397.101,11489.2C404.504,11496.2 416.122,11495.8 423.031,11488.4C429.939,11480.9 429.538,11469.3 422.136,11462.4ZM1243.34,11471C1248.23,11471 1253.12,11469 1256.72,11465.2C1263.63,11457.8 1263.23,11446.2 1255.83,11439.2C1252.31,11436 1247.85,11434.3 1243.39,11434.3L1243.34,11434.3C1238.42,11434.3 1233.51,11436.3 1229.9,11440.1C1222.99,11447.5 1223.39,11459.2 1230.79,11466.1C1234.32,11469.4 1238.81,11471 1243.28,11471L1243.34,11471ZM576.814,11416.1C589.379,11416.1 599.58,11405.7 599.58,11392.9C599.58,11380 589.379,11369.6 576.814,11369.6C564.25,11369.6 554.049,11380 554.049,11392.9C554.049,11405.7 564.25,11416.1 576.814,11416.1ZM1156.55,11328.1C1141.34,11323.3 1125.1,11331.7 1120.3,11346.9C1115.5,11362.1 1123.95,11378.4 1139.16,11383.2C1154.36,11388 1170.6,11379.5 1175.4,11364.3C1180.2,11349.1 1171.75,11332.9 1156.55,11328.1ZM892.568,11344.5C885.166,11337.6 873.548,11338 866.639,11345.4C859.73,11352.8 860.131,11364.4 867.533,11371.3C874.935,11378.2 886.554,11377.8 893.462,11370.4C900.371,11363 899.97,11351.4 892.568,11344.5ZM119.597,11131.7C113.675,11128.8 106.464,11131.2 103.503,11137.1C100.542,11143 102.946,11150.2 108.868,11153.2C114.789,11156.2 122.001,11153.8 124.962,11147.8C127.922,11141.9 125.519,11134.7 119.597,11131.7ZM1351.5,10829.7C1344.1,10822.8 1332.48,10823.2 1325.57,10830.6C1318.66,10838 1319.06,10849.6 1326.46,10856.5C1333.87,10863.4 1345.49,10863 1352.39,10855.6C1359.3,10848.2 1358.9,10836.6 1351.5,10829.7ZM1790.69,10679.5C1784.77,10676.5 1777.56,10679 1774.6,10684.9C1771.64,10690.8 1774.04,10698 1779.97,10701C1785.89,10703.9 1793.1,10701.5 1796.06,10695.6C1799.02,10689.7 1796.62,10682.5 1790.69,10679.5ZM138.899,10599.7C144.183,10599.6 149.334,10596.9 152.237,10592.1C156.635,10584.7 154.223,10575.2 146.853,10570.8C144.378,10569.3 141.656,10568.6 138.965,10568.6L138.918,10568.6C133.616,10568.6 128.444,10571.3 125.532,10576.1C121.134,10583.5 123.547,10593.1 130.916,10597.5C133.407,10598.9 136.146,10599.7 138.852,10599.7L138.899,10599.7ZM1614.98,10497.6C1609.06,10494.6 1601.85,10497.1 1598.89,10503C1595.93,10508.9 1598.33,10516.1 1604.25,10519.1C1610.17,10522 1617.38,10519.6 1620.35,10513.7C1623.31,10507.8 1620.9,10500.6 1614.98,10497.6ZM832.715,10461.5C826.793,10458.5 819.582,10460.9 816.621,10466.8C813.66,10472.7 816.064,10479.9 821.986,10482.9C827.907,10485.9 835.119,10483.5 838.08,10477.5C841.041,10471.6 838.637,10464.4 832.715,10461.5ZM138.733,10384.5C128.209,10370.7 108.507,10368.1 94.763,10378.6C81.02,10389.2 78.406,10408.9 88.93,10422.6C99.454,10436.3 119.157,10439 132.9,10428.4C146.644,10417.9 149.258,10398.2 138.733,10384.5ZM1478.64,9913.35C1468.27,9904.96 1453.05,9906.57 1444.66,9916.93C1436.27,9927.29 1437.87,9942.51 1448.24,9950.9C1458.6,9959.29 1473.82,9957.69 1482.21,9947.33C1490.6,9936.96 1489,9921.74 1478.64,9913.35ZM1288.51,9675.1C1281.14,9670.7 1271.58,9673.12 1267.19,9680.49C1262.79,9687.85 1265.2,9697.41 1272.57,9701.81C1279.94,9706.2 1289.49,9703.79 1293.89,9696.42C1298.29,9689.05 1295.88,9679.5 1288.51,9675.1ZM580.027,9608.59C570.185,9603.25 557.858,9606.91 552.516,9616.75C547.175,9626.59 550.829,9638.92 560.671,9644.26C570.514,9649.6 582.841,9645.94 588.182,9636.1C593.524,9626.26 589.87,9613.93 580.027,9608.59ZM535.744,9557.9C519.78,9545.63 496.851,9548.62 484.574,9564.58C472.297,9580.55 475.291,9603.48 491.255,9615.76C507.22,9628.03 530.149,9625.04 542.426,9609.07C554.703,9593.11 551.709,9570.18 535.744,9557.9ZM1091.65,9471.1C1084.28,9466.7 1074.73,9469.11 1070.33,9476.48C1065.93,9483.85 1068.35,9493.41 1075.71,9497.8C1083.09,9502.2 1092.64,9499.79 1097.04,9492.42C1101.43,9485.05 1099.02,9475.5 1091.65,9471.1ZM59.841,9463.66C52.471,9459.26 42.918,9461.68 38.52,9469.05C34.122,9476.42 36.534,9485.97 43.904,9490.37C51.273,9494.76 60.827,9492.35 65.225,9484.98C69.623,9477.61 67.21,9468.06 59.841,9463.66ZM1578.98,9243.13C1571.61,9238.73 1562.05,9241.14 1557.65,9248.51C1553.26,9255.88 1555.67,9265.43 1563.04,9269.83C1570.41,9274.23 1579.96,9271.82 1584.36,9264.45C1588.76,9257.08 1586.35,9247.53 1578.98,9243.13ZM1195.97,9105.52C1189.11,9097.69 1177.19,9096.89 1169.35,9103.75C1161.52,9110.6 1160.72,9122.53 1167.57,9130.36C1174.43,9138.2 1186.35,9139 1194.19,9132.14C1202.03,9125.29 1202.82,9113.36 1195.97,9105.52ZM2000,9019.51C1996.71,9020.68 1993.8,9022.96 1991.88,9026.18C1987.48,9033.55 1989.89,9043.11 1997.26,9047.51C1998.14,9048.03 1999.06,9048.47 2000,9048.8L2000,9019.51ZM960.563,8872.48C954.652,8866.11 944.684,8865.74 938.318,8871.65C931.952,8877.56 931.582,8887.53 937.493,8893.9C943.403,8900.26 953.371,8900.63 959.737,8894.72C966.104,8888.81 966.473,8878.84 960.563,8872.48ZM392.697,8728.06C387.454,8716.6 373.898,8711.56 362.445,8716.81C350.992,8722.05 345.951,8735.6 351.195,8747.06C356.439,8758.51 369.994,8763.55 381.447,8758.31C392.9,8753.06 397.941,8739.51 392.697,8728.06ZM1268.51,8720.45C1262.14,8715.1 1252.63,8715.92 1247.28,8722.29C1241.92,8728.65 1242.75,8738.17 1249.11,8743.52C1255.48,8748.87 1264.99,8748.05 1270.35,8741.68C1275.7,8735.32 1274.88,8725.8 1268.51,8720.45ZM1185.37,8635.13C1182.93,8633.28 1179.45,8633.75 1177.6,8636.19C1175.74,8638.62 1176.21,8642.1 1178.65,8643.96C1181.08,8645.81 1184.57,8645.34 1186.42,8642.9C1188.27,8640.47 1187.8,8636.99 1185.37,8635.13ZM1018.53,8530.15C1016.13,8529.47 1013.63,8530.88 1012.96,8533.29C1012.28,8535.69 1013.69,8538.19 1016.1,8538.87C1018.5,8539.54 1021,8538.13 1021.68,8535.73C1022.35,8533.32 1020.94,8530.82 1018.53,8530.15ZM1177.37,8422.31C1177.51,8424.79 1179.64,8426.69 1182.11,8426.55C1184.59,8426.4 1186.49,8424.28 1186.35,8421.8C1186.21,8419.32 1184.08,8417.42 1181.6,8417.56C1179.12,8417.7 1177.23,8419.83 1177.37,8422.31ZM809.478,8396.5C804.565,8387.83 793.541,8384.79 784.876,8389.7C776.21,8394.61 773.164,8405.64 778.077,8414.3C782.99,8422.97 794.014,8426.01 802.679,8421.1C811.345,8416.19 814.391,8405.16 809.478,8396.5ZM398.154,8199.05C393.484,8196.27 387.43,8197.8 384.643,8202.47C381.856,8207.14 383.385,8213.19 388.055,8215.98C392.725,8218.76 398.779,8217.23 401.566,8212.56C404.353,8207.89 402.824,8201.84 398.154,8199.05ZM803.013,8157.3C801.912,8154.09 798.412,8152.38 795.202,8153.48C791.992,8154.58 790.279,8158.08 791.38,8161.29C792.481,8164.5 795.981,8166.21 799.191,8165.11C802.401,8164.01 804.114,8160.51 803.013,8157.3ZM1231.41,8108.03C1230.84,8107.3 1230.2,8106.61 1229.48,8105.98C1223.2,8100.48 1213.65,8101.11 1208.15,8107.39C1202.65,8113.66 1203.29,8123.21 1209.56,8128.71C1215.83,8134.2 1225.38,8133.57 1230.88,8127.3C1234.36,8123.34 1235.38,8118.05 1234.08,8113.32C1234.63,8112.74 1234.98,8111.9 1234.98,8110.97C1234.98,8109.24 1233.79,8107.84 1232.32,8107.84C1232,8107.84 1231.7,8107.9 1231.41,8108.03ZM211.01,8074C206.34,8071.21 200.286,8072.74 197.499,8077.41C194.712,8082.08 196.241,8088.14 200.911,8090.92C205.581,8093.71 211.635,8092.18 214.422,8087.51C217.209,8082.84 215.68,8076.79 211.01,8074ZM1862.87,7862.33C1852.07,7857.12 1839.06,7861.65 1833.85,7872.45C1828.63,7883.26 1833.17,7896.26 1843.97,7901.47C1854.77,7906.69 1867.78,7902.15 1872.99,7891.35C1878.2,7880.55 1873.67,7867.55 1862.87,7862.33ZM1345.82,7816.73C1331.55,7803.33 1309.09,7804.04 1295.69,7818.32C1282.3,7832.59 1283.01,7855.05 1297.29,7868.45C1311.56,7881.84 1334.02,7881.13 1347.42,7866.85C1360.81,7852.58 1360.1,7830.12 1345.82,7816.73ZM1673.06,7753.86C1666.79,7748.36 1657.23,7748.99 1651.73,7755.27C1646.24,7761.54 1646.87,7771.09 1653.14,7776.59C1659.41,7782.09 1668.97,7781.46 1674.46,7775.18C1679.96,7768.91 1679.33,7759.36 1673.06,7753.86ZM487.524,7665.18C480.155,7660.78 470.601,7663.19 466.203,7670.56C461.805,7677.93 464.218,7687.49 471.587,7691.88C478.957,7696.28 488.511,7693.87 492.908,7686.5C497.306,7679.13 494.894,7669.58 487.524,7665.18ZM471.472,7634.97C464.102,7630.57 454.548,7632.98 450.151,7640.35C445.753,7647.72 448.165,7657.27 455.535,7661.67C462.904,7666.07 472.458,7663.65 476.856,7656.29C481.254,7648.92 478.841,7639.36 471.472,7634.97ZM1732.99,7591.67C1727.29,7589.44 1720.84,7592.25 1718.61,7597.95C1716.37,7603.65 1719.18,7610.1 1724.89,7612.34C1730.59,7614.57 1737.04,7611.76 1739.27,7606.06C1741.51,7600.36 1738.7,7593.91 1732.99,7591.67ZM1353.18,7391.94C1335.97,7374.47 1307.82,7374.26 1290.36,7391.46C1272.89,7408.67 1272.68,7436.81 1289.88,7454.28C1307.09,7471.75 1335.24,7471.96 1352.7,7454.76C1370.17,7437.55 1370.38,7409.4 1353.18,7391.94ZM1805.49,7345.27C1795.12,7328.43 1773.04,7323.17 1756.2,7333.54C1739.37,7343.9 1734.11,7365.98 1744.48,7382.82C1754.84,7399.66 1776.92,7404.91 1793.76,7394.55C1810.6,7384.19 1815.85,7362.1 1805.49,7345.27ZM346.706,7296.23C341.003,7293.99 334.557,7296.8 332.32,7302.51C330.083,7308.21 332.897,7314.66 338.6,7316.89C344.303,7319.13 350.749,7316.32 352.986,7310.61C355.223,7304.91 352.409,7298.46 346.706,7296.23ZM626.97,6900.99C609.766,6883.52 581.617,6883.31 564.151,6900.51C546.684,6917.72 546.471,6945.87 563.676,6963.33C580.88,6980.8 609.029,6981.01 626.496,6963.81C643.962,6946.6 644.175,6918.45 626.97,6900.99ZM259.703,6938.38C252.333,6933.98 242.78,6936.39 238.382,6943.76C233.984,6951.13 236.396,6960.68 243.766,6965.08C251.135,6969.48 260.689,6967.07 265.087,6959.7C269.485,6952.33 267.072,6942.77 259.703,6938.38ZM1318.61,6877.49C1312.34,6872 1302.78,6872.63 1297.29,6878.9C1291.79,6885.17 1292.42,6894.73 1298.69,6900.22C1304.97,6905.72 1314.52,6905.09 1320.02,6898.82C1325.51,6892.55 1324.88,6882.99 1318.61,6877.49ZM1834.88,6879.37C1829.18,6877.13 1822.73,6879.94 1820.5,6885.65C1818.26,6891.35 1821.07,6897.8 1826.78,6900.03C1832.48,6902.27 1838.92,6899.45 1841.16,6893.75C1843.4,6888.05 1840.58,6881.6 1834.88,6879.37ZM-0,6855.22L-0,6883.81C2.927,6882.57 5.498,6880.42 7.251,6877.48C11.649,6870.11 9.236,6860.56 1.867,6856.16C1.259,6855.8 0.636,6855.48 -0,6855.22ZM88.948,6847.19C94.232,6847.18 99.383,6844.47 102.286,6839.61C106.684,6832.24 104.272,6822.68 96.902,6818.29C94.427,6816.81 91.705,6816.1 89.014,6816.09L88.967,6816.09C83.665,6816.09 78.493,6818.79 75.581,6823.67C71.183,6831.04 73.596,6840.59 80.965,6844.99C83.456,6846.48 86.195,6847.19 88.901,6847.19L88.948,6847.19ZM314.112,6637.5C303.587,6623.76 283.885,6621.14 270.141,6631.67C256.398,6642.19 253.784,6661.89 264.309,6675.64C274.833,6689.38 294.535,6691.99 308.279,6681.47C322.022,6670.95 324.636,6651.24 314.112,6637.5ZM1106.94,6576.42C1096.42,6562.68 1076.72,6560.07 1062.97,6570.59C1049.23,6581.11 1046.62,6600.82 1057.14,6614.56C1067.66,6628.31 1087.37,6630.92 1101.11,6620.39C1114.85,6609.87 1117.47,6590.17 1106.94,6576.42ZM1066.19,6432.35C1074.94,6432.35 1082.04,6425.24 1082.04,6416.5C1082.04,6407.75 1074.94,6400.64 1066.19,6400.64C1057.44,6400.64 1050.33,6407.75 1050.33,6416.5C1050.33,6425.24 1057.44,6432.35 1066.19,6432.35ZM1060.03,6172.61C1049.5,6158.87 1029.8,6156.26 1016.06,6166.78C1002.31,6177.31 999.698,6197.01 1010.22,6210.75C1020.75,6224.5 1040.45,6227.11 1054.19,6216.59C1067.94,6206.06 1070.55,6186.36 1060.03,6172.61ZM713.344,6183.48C716.693,6183.47 719.957,6181.76 721.796,6178.67C724.583,6174 723.054,6167.95 718.384,6165.16C716.816,6164.23 715.091,6163.78 713.386,6163.77L713.356,6163.77C709.996,6163.77 706.719,6165.48 704.874,6168.57C702.087,6173.24 703.616,6179.3 708.286,6182.09C709.864,6183.03 711.6,6183.48 713.314,6183.48L713.344,6183.48ZM1282.28,5969.72C1277.61,5966.93 1271.56,5968.46 1268.77,5973.13C1265.99,5977.8 1267.52,5983.85 1272.18,5986.64C1276.86,5989.43 1282.91,5987.9 1285.7,5983.23C1288.48,5978.56 1286.95,5972.5 1282.28,5969.72ZM269.193,5945.84C277.943,5945.84 285.046,5938.74 285.046,5929.99C285.046,5921.24 277.943,5914.14 269.193,5914.14C260.443,5914.14 253.34,5921.24 253.34,5929.99C253.34,5938.74 260.443,5945.84 269.193,5945.84ZM51.281,5849.23C60.031,5849.23 67.135,5842.12 67.135,5833.37C67.135,5824.62 60.031,5817.52 51.281,5817.52C42.532,5817.52 35.428,5824.62 35.428,5833.37C35.428,5842.12 42.532,5849.23 51.281,5849.23ZM1475.27,5705.22C1480.55,5705.2 1485.7,5702.5 1488.61,5697.64C1493,5690.27 1490.59,5680.71 1483.22,5676.31C1480.75,5674.84 1478.02,5674.13 1475.33,5674.12L1475.29,5674.12C1469.98,5674.11 1464.81,5676.82 1461.9,5681.7C1457.5,5689.07 1459.91,5698.62 1467.28,5703.02C1469.77,5704.51 1472.51,5705.21 1475.22,5705.22L1475.27,5705.22ZM521.748,5529.99C511.224,5516.25 491.521,5513.63 477.778,5524.16C464.034,5534.68 461.421,5554.38 471.945,5568.13C482.469,5581.87 502.172,5584.48 515.915,5573.96C529.659,5563.44 532.272,5543.73 521.748,5529.99ZM1839.26,5484.42C1831.89,5480.02 1822.33,5482.43 1817.94,5489.8C1813.54,5497.17 1815.95,5506.72 1823.32,5511.12C1830.69,5515.52 1840.24,5513.11 1844.64,5505.74C1849.04,5498.37 1846.63,5488.81 1839.26,5484.42ZM1362.8,5362.67C1355.43,5358.27 1345.88,5360.68 1341.48,5368.05C1337.08,5375.42 1339.5,5384.98 1346.87,5389.37C1354.24,5393.77 1363.79,5391.36 1368.19,5383.99C1372.58,5376.62 1370.17,5367.07 1362.8,5362.67ZM634.658,5369C643.407,5369 650.511,5361.9 650.511,5353.15C650.511,5344.4 643.407,5337.3 634.658,5337.3C625.908,5337.3 618.804,5344.4 618.804,5353.15C618.804,5361.9 625.908,5369 634.658,5369ZM2000,5129.91C1994.56,5130.53 1989.21,5132.58 1984.55,5136.15C1970.8,5146.68 1968.19,5166.38 1978.71,5180.12C1984.09,5187.14 1991.85,5191.26 2000,5192.2L2000,5129.91ZM1830.21,4944.65C1833.56,4944.65 1836.82,4942.93 1838.66,4939.85C1841.44,4935.18 1839.92,4929.12 1835.25,4926.34C1833.68,4925.4 1831.95,4924.95 1830.25,4924.94L1830.22,4924.94C1826.86,4924.94 1823.58,4926.66 1821.74,4929.75C1818.95,4934.42 1820.48,4940.47 1825.15,4943.26C1826.73,4944.2 1828.46,4944.65 1830.18,4944.65L1830.21,4944.65ZM1573.57,4901.37C1568.9,4898.58 1562.84,4900.11 1560.06,4904.78C1557.27,4909.45 1558.8,4915.51 1563.47,4918.29C1568.14,4921.08 1574.19,4919.55 1576.98,4914.88C1579.76,4910.21 1578.24,4904.16 1573.57,4901.37ZM1149.45,4845.5C1158.18,4845.48 1165.25,4838.38 1165.25,4829.65C1165.25,4820.92 1158.18,4813.82 1149.45,4813.8L1149.4,4813.8C1140.65,4813.8 1133.55,4820.9 1133.55,4829.65C1133.55,4838.4 1140.65,4845.5 1149.4,4845.5L1149.45,4845.5ZM853.213,4723.51C842.688,4709.76 822.986,4707.15 809.242,4717.68C795.499,4728.2 792.885,4747.9 803.41,4761.65C813.934,4775.39 833.636,4778 847.38,4767.48C861.123,4756.95 863.737,4737.25 853.213,4723.51ZM969.761,4529.37C978.511,4529.37 985.614,4522.27 985.614,4513.52C985.614,4504.77 978.511,4497.66 969.761,4497.66C961.011,4497.66 953.908,4504.77 953.908,4513.52C953.908,4522.27 961.011,4529.37 969.761,4529.37ZM576.263,4431.72C585.013,4431.72 592.117,4424.62 592.117,4415.87C592.117,4407.12 585.013,4400.01 576.263,4400.01C567.514,4400.01 560.41,4407.12 560.41,4415.87C560.41,4424.62 567.514,4431.72 576.263,4431.72ZM1247.41,4363.87C1256.16,4363.87 1263.26,4356.77 1263.26,4348.02C1263.26,4339.27 1256.16,4332.16 1247.41,4332.16C1238.66,4332.16 1231.56,4339.27 1231.56,4348.02C1231.56,4356.77 1238.66,4363.87 1247.41,4363.87ZM480.727,4303.02C470.202,4289.27 450.5,4286.66 436.756,4297.18C423.013,4307.71 420.399,4327.41 430.923,4341.15C441.448,4354.9 461.15,4357.51 474.894,4346.99C488.637,4336.46 491.251,4316.76 480.727,4303.02ZM201.151,3995.18C209.901,3995.18 217.005,3988.08 217.005,3979.33C217.005,3970.58 209.901,3963.48 201.151,3963.48C192.402,3963.48 185.298,3970.58 185.298,3979.33C185.298,3988.08 192.402,3995.18 201.151,3995.18ZM2000,3901.39L2000,3872.68C1997.96,3871.72 1995.68,3871.18 1993.28,3871.18C1984.53,3871.18 1977.42,3878.29 1977.42,3887.04C1977.42,3895.78 1984.53,3902.89 1993.28,3902.89C1995.68,3902.89 1997.96,3902.35 2000,3901.39ZM1906.64,3880.04C1915.39,3880.04 1922.5,3872.93 1922.5,3864.18C1922.5,3855.43 1915.39,3848.33 1906.64,3848.33C1897.9,3848.33 1890.79,3855.43 1890.79,3864.18C1890.79,3872.93 1897.9,3880.04 1906.64,3880.04ZM506.357,3824.62C495.833,3810.88 476.131,3808.27 462.387,3818.79C448.644,3829.32 446.03,3849.02 456.554,3862.76C467.078,3876.51 486.781,3879.12 500.524,3868.59C514.268,3858.07 516.882,3838.37 506.357,3824.62ZM1548.65,3652.58C1553.04,3652.57 1557.26,3650.14 1559.35,3645.95C1562.31,3640.03 1559.91,3632.82 1553.99,3629.86C1552.27,3629 1550.45,3628.59 1548.66,3628.59L1548.62,3628.59C1544.23,3628.59 1539.99,3631.02 1537.89,3635.22C1534.93,3641.14 1537.33,3648.35 1543.26,3651.32C1544.98,3652.18 1546.81,3652.58 1548.62,3652.58L1548.65,3652.58ZM338.663,3652.48C343.049,3652.46 347.267,3650.03 349.36,3645.85C352.321,3639.93 349.917,3632.71 343.995,3629.75C342.283,3628.9 340.464,3628.49 338.671,3628.49L338.634,3628.49C334.237,3628.49 330.001,3630.92 327.901,3635.12C324.941,3641.04 327.344,3648.25 333.266,3651.21C334.989,3652.07 336.822,3652.48 338.627,3652.48L338.663,3652.48ZM1513.54,3643.25C1517.92,3643.24 1522.14,3640.81 1524.23,3636.62C1527.19,3630.7 1524.79,3623.49 1518.87,3620.53C1517.15,3619.67 1515.34,3619.26 1513.54,3619.26L1513.51,3619.26C1509.11,3619.26 1504.87,3621.69 1502.77,3625.89C1499.81,3631.81 1502.22,3639.03 1508.14,3641.99C1509.86,3642.85 1511.69,3643.26 1513.5,3643.25L1513.54,3643.25ZM1906.36,3619.13C1910.74,3619.11 1914.96,3616.68 1917.06,3612.49C1920.02,3606.57 1917.61,3599.36 1911.69,3596.4C1909.98,3595.55 1908.16,3595.14 1906.37,3595.13L1906.33,3595.13C1901.93,3595.14 1897.7,3597.57 1895.6,3601.77C1892.64,3607.69 1895.04,3614.9 1900.96,3617.86C1902.68,3618.72 1904.52,3619.13 1906.32,3619.13L1906.36,3619.13ZM1615.92,3587.31C1610,3584.35 1602.78,3586.76 1599.82,3592.68C1596.86,3598.6 1599.27,3605.81 1605.19,3608.77C1611.11,3611.73 1618.32,3609.33 1621.28,3603.41C1624.24,3597.49 1621.84,3590.27 1615.92,3587.31ZM1928.88,3423.74C1933.26,3423.72 1937.48,3421.29 1939.57,3417.1C1942.53,3411.18 1940.13,3403.97 1934.21,3401.01C1932.5,3400.15 1930.67,3399.75 1928.88,3399.74L1928.85,3399.74C1924.45,3399.75 1920.21,3402.18 1918.11,3406.37C1915.15,3412.3 1917.56,3419.51 1923.48,3422.47C1925.2,3423.33 1927.03,3423.74 1928.84,3423.74L1928.88,3423.74ZM43.38,3296.86C52.13,3296.86 59.233,3289.75 59.233,3281C59.233,3272.25 52.13,3265.15 43.38,3265.15C34.63,3265.15 27.526,3272.25 27.526,3281C27.526,3289.75 34.63,3296.86 43.38,3296.86ZM1670.79,3128.38C1658.62,3131.65 1651.4,3144.18 1654.67,3156.34C1657.93,3168.51 1670.46,3175.73 1682.63,3172.46C1694.79,3169.19 1702.02,3156.66 1698.75,3144.5C1695.48,3132.34 1682.95,3125.11 1670.79,3128.38ZM13.319,2950.54C15.025,2950.54 16.75,2950.09 18.321,2949.16C22.997,2946.38 24.54,2940.33 21.763,2935.66C19.93,2932.57 16.67,2930.85 13.321,2930.83L13.292,2930.83C11.577,2930.83 9.84,2931.28 8.26,2932.21C3.584,2934.99 2.041,2941.04 4.818,2945.72C6.656,2948.81 9.93,2950.53 13.29,2950.54L13.319,2950.54ZM161.227,2880.66C165.903,2877.88 167.445,2871.83 164.669,2867.16C161.892,2862.48 155.841,2860.94 151.165,2863.71C146.489,2866.49 144.947,2872.54 147.723,2877.22C150.5,2881.89 156.55,2883.44 161.227,2880.66ZM1907.56,2592.41C1900.3,2597.18 1898.28,2606.94 1903.05,2614.2C1907.82,2621.46 1917.59,2623.48 1924.85,2618.71C1932.11,2613.94 1934.13,2604.18 1929.36,2596.91C1924.59,2589.66 1914.82,2587.63 1907.56,2592.41ZM1579.62,2478.36C1578.55,2480.62 1579.53,2483.32 1581.79,2484.38C1584.05,2485.44 1586.75,2484.47 1587.81,2482.21C1588.88,2479.95 1587.9,2477.25 1585.64,2476.19C1583.38,2475.12 1580.68,2476.1 1579.62,2478.36ZM1710.87,2331.29C1708.63,2333.38 1708.52,2336.89 1710.61,2339.13C1712.71,2341.36 1716.22,2341.47 1718.45,2339.38C1720.68,2337.29 1720.8,2333.78 1718.7,2331.54C1716.61,2329.31 1713.1,2329.2 1710.87,2331.29ZM1499.67,2303.81C1502.14,2304.09 1504.36,2302.3 1504.64,2299.84C1504.91,2297.37 1503.13,2295.15 1500.66,2294.87C1498.19,2294.6 1495.97,2296.38 1495.7,2298.85C1495.42,2301.32 1497.2,2303.54 1499.67,2303.81ZM1808.81,2263.48C1802.48,2268.87 1801.71,2278.39 1807.1,2284.72C1812.48,2291.06 1822,2291.83 1828.34,2286.44C1834.67,2281.05 1835.44,2271.53 1830.05,2265.2C1824.67,2258.86 1815.15,2258.09 1808.81,2263.48ZM917.728,2162.43C914.069,2166.46 914.365,2172.7 918.389,2176.36C922.412,2180.01 928.649,2179.72 932.308,2175.69C935.967,2171.67 935.671,2165.43 931.647,2161.78C927.624,2158.12 921.387,2158.41 917.728,2162.43ZM1301.41,1907.72C1290.89,1893.98 1271.18,1891.36 1257.44,1901.88C1243.7,1912.41 1241.08,1932.11 1251.61,1945.86C1262.13,1959.6 1281.84,1962.21 1295.58,1951.69C1309.32,1941.16 1311.94,1921.46 1301.41,1907.72ZM1946.53,1842.31C1942.45,1847.52 1943.37,1855.07 1948.59,1859.15C1953.8,1863.22 1961.35,1862.3 1965.43,1857.09C1969.51,1851.87 1968.58,1844.32 1963.37,1840.25C1958.15,1836.17 1950.61,1837.09 1946.53,1842.31ZM1320.31,1789.63C1324.69,1789.61 1328.91,1787.19 1331,1783C1333.96,1777.08 1331.56,1769.87 1325.64,1766.9C1323.93,1766.05 1322.11,1765.64 1320.31,1765.64L1320.28,1765.64C1315.88,1765.64 1311.64,1768.07 1309.54,1772.27C1306.58,1778.19 1308.99,1785.4 1314.91,1788.36C1316.63,1789.23 1318.46,1789.63 1320.27,1789.63L1320.31,1789.63ZM448.733,1725.66C472.29,1718.86 485.896,1694.22 479.1,1670.66C472.303,1647.11 447.661,1633.5 424.105,1640.3C400.549,1647.1 386.942,1671.74 393.738,1695.29C400.535,1718.85 425.177,1732.46 448.733,1725.66ZM910.231,1670.85C914.907,1668.07 916.449,1662.02 913.673,1657.35C910.896,1652.67 904.846,1651.13 900.17,1653.9C895.493,1656.68 893.951,1662.73 896.728,1667.41C899.504,1672.08 905.555,1673.62 910.231,1670.85ZM1436.95,1599.81C1431.03,1596.85 1423.82,1599.25 1420.86,1605.17C1417.89,1611.1 1420.3,1618.31 1426.22,1621.27C1432.14,1624.23 1439.35,1621.83 1442.32,1615.9C1445.28,1609.98 1442.87,1602.77 1436.95,1599.81ZM589.383,1566.23C597.356,1572.47 608.896,1571.06 615.137,1563.09C621.379,1555.12 619.974,1543.58 612.001,1537.34C604.028,1531.09 592.488,1532.5 586.247,1540.47C580.005,1548.44 581.411,1559.99 589.383,1566.23ZM1388.9,1500.61C1397.65,1500.61 1404.76,1493.51 1404.76,1484.76C1404.76,1476.01 1397.65,1468.91 1388.9,1468.91C1380.15,1468.91 1373.05,1476.01 1373.05,1484.76C1373.05,1493.51 1380.15,1500.61 1388.9,1500.61ZM1076.11,1443.29C1080.79,1440.51 1082.33,1434.46 1079.55,1429.79C1076.78,1425.11 1070.73,1423.57 1066.05,1426.35C1061.37,1429.12 1059.83,1435.17 1062.61,1439.85C1065.38,1444.53 1071.43,1446.07 1076.11,1443.29ZM1824.81,1231.42C1826.55,1222.84 1821,1214.47 1812.42,1212.73C1803.85,1211 1795.48,1216.55 1793.74,1225.12C1792,1233.7 1797.55,1242.07 1806.13,1243.81C1814.7,1245.55 1823.08,1239.99 1824.81,1231.42ZM762.486,1155.64C758.827,1159.66 759.123,1165.9 763.146,1169.56C767.17,1173.22 773.407,1172.92 777.066,1168.9C780.724,1164.88 780.428,1158.64 776.405,1154.98C772.381,1151.32 766.144,1151.62 762.486,1155.64ZM222.04,883.17C218.381,887.194 218.677,893.431 222.7,897.09C226.724,900.749 232.961,900.453 236.62,896.429C240.279,892.406 239.982,886.169 235.959,882.51C231.936,878.851 225.698,879.147 222.04,883.17ZM1165.71,879.725C1161.63,884.94 1162.55,892.486 1167.77,896.564C1172.99,900.641 1180.53,899.718 1184.61,894.502C1188.69,889.287 1187.76,881.741 1182.55,877.663C1177.33,873.585 1169.79,874.509 1165.71,879.725ZM1537.36,796.252C1538.59,789.747 1534.31,783.466 1527.8,782.236C1521.3,781.006 1515.02,785.288 1513.79,791.793C1512.56,798.299 1516.84,804.579 1523.34,805.809C1529.85,807.04 1536.13,802.757 1537.36,796.252ZM1036.28,722.27C1032.2,727.486 1033.12,735.031 1038.34,739.109C1043.55,743.187 1051.1,742.263 1055.18,737.047C1059.26,731.832 1058.33,724.287 1053.12,720.209C1047.9,716.131 1040.36,717.054 1036.28,722.27ZM1436.25,717.799C1443.63,713.417 1446.07,703.869 1441.69,696.49C1437.3,689.11 1427.76,686.676 1420.38,691.058C1413,695.439 1410.56,704.988 1414.94,712.367C1419.33,719.746 1428.88,722.18 1436.25,717.799ZM1301.64,640.105C1302.88,633.6 1298.59,627.32 1292.09,626.089C1285.58,624.859 1279.3,629.141 1278.07,635.647C1276.84,642.152 1281.12,648.432 1287.63,649.663C1294.13,650.893 1300.41,646.611 1301.64,640.105ZM311.554,553.791C304.152,546.883 292.534,547.283 285.625,554.685C278.717,562.087 279.117,573.706 286.519,580.614C293.922,587.523 305.54,587.122 312.449,579.72C319.357,572.318 318.956,560.7 311.554,553.791ZM1021.67,554.361C1026.06,554.344 1030.28,551.916 1032.37,547.729C1035.33,541.808 1032.93,534.596 1027.01,531.636C1025.29,530.78 1023.47,530.372 1021.68,530.368L1021.64,530.368C1017.25,530.372 1013.01,532.802 1010.91,537C1007.95,542.922 1010.36,550.133 1016.28,553.094C1018,553.956 1019.83,554.363 1021.64,554.362L1021.67,554.361ZM1318.85,451.099C1307.59,441.284 1290.47,442.46 1280.66,453.723C1270.84,464.986 1272.02,482.099 1283.28,491.914C1294.55,501.729 1311.66,500.553 1321.47,489.29C1331.29,478.027 1330.11,460.915 1318.85,451.099ZM1726.88,414.974C1715.62,405.159 1698.5,406.335 1688.69,417.598C1678.87,428.861 1680.05,445.973 1691.31,455.789C1702.57,465.604 1719.69,464.428 1729.5,453.165C1739.32,441.902 1738.14,424.789 1726.88,414.974ZM824.981,392.627C829.366,392.61 833.584,390.181 835.678,385.995C838.638,380.073 836.235,372.862 830.313,369.901C828.601,369.045 826.781,368.637 824.988,368.634L824.952,368.634C820.554,368.637 816.318,371.067 814.219,375.266C811.258,381.187 813.662,388.399 819.584,391.36C821.307,392.221 823.139,392.628 824.945,392.627L824.981,392.627ZM543.261,323.718C537.339,320.757 530.128,323.161 527.167,329.082C524.206,335.004 526.61,342.215 532.531,345.176C538.453,348.137 545.664,345.733 548.625,339.812C551.586,333.89 549.182,326.679 543.261,323.718ZM113.567,272.611C117.952,272.594 122.17,270.166 124.264,265.979C127.224,260.057 124.821,252.846 118.899,249.885C117.187,249.029 115.367,248.622 113.574,248.618L113.538,248.618C109.14,248.621 104.904,251.051 102.805,255.25C99.844,261.171 102.248,268.383 108.17,271.344C109.893,272.205 111.725,272.613 113.531,272.611L113.567,272.611ZM1350.7,257.267C1355.09,257.25 1359.3,254.822 1361.4,250.635C1364.36,244.714 1361.95,237.502 1356.03,234.541C1354.32,233.685 1352.5,233.278 1350.71,233.274L1350.67,233.274C1346.27,233.277 1342.04,235.708 1339.94,239.906C1336.98,245.828 1339.38,253.039 1345.3,256C1347.03,256.861 1348.86,257.269 1350.66,257.267L1350.7,257.267ZM868.426,40.963C853.85,27.677 831.23,28.725 817.944,43.301C804.658,57.878 805.706,80.498 820.282,93.784C834.859,107.069 857.479,106.022 870.765,91.445C884.051,76.869 883.003,54.248 868.426,40.963Z" style="fill:rgb(255,184,40);"/>
    </g>
    <g id="FSilkS">
        <path d="M1108.37,1058.25C1144.52,1045.85 1252.88,1150.9 1249.84,1184.86C1248.79,1196.51 1240.8,1221 1228.26,1218.44C1204.06,1213.5 1115.38,1180.7 1104.63,1155.21C1095.53,1133.63 1067.18,1072.37 1108.37,1058.25Z" style="fill:white;"/>
        <path d="M750.123,1345.84C762.546,1345.69 769.765,1352.66 784.226,1383.93C796.212,1409.84 796.927,1485.13 816.943,1531.81C838.209,1581.41 919.57,1657.96 924.849,1675.58C935.605,1711.49 827.733,1607.66 792.242,1559.54C752.49,1505.65 687.243,1360.99 750.123,1345.84Z" style="fill:white;"/>
        <ellipse cx="1270.52" cy="1257.09" rx="17.938" ry="18.015" style="fill:white;"/>
        <path d="M1032.87,2183.05C1023.39,2170.77 1004.4,2146.23 998.167,2102.77C993.995,2073.69 1007.69,2049.11 1020.64,2015.49C1028.9,1994.05 1039.89,1943.58 1029.36,1913.88C1014.88,1873.09 1015.63,1812.01 1015.89,1781.48C1015.95,1775.64 1011.24,1770.86 1005.4,1770.81C999.561,1770.76 994.779,1775.46 994.729,1781.3C994.454,1813.51 994.136,1877.92 1009.41,1920.96C1018.43,1946.39 1007.97,1989.52 1000.89,2007.88C986.414,2045.44 972.552,2073.27 977.215,2105.78C984.216,2154.59 1005.47,2182.19 1016.12,2195.99C1019.69,2200.61 1026.34,2201.47 1030.96,2197.9C1035.58,2194.33 1036.44,2187.68 1032.87,2183.05Z" style="fill:white;"/>
        <path d="M393.398,653.934L440.791,653.934L418.89,756.62L490.698,756.62L512.6,653.934L559.993,653.934L506.496,905.264L459.102,905.264L481.004,801.86L409.195,801.86L387.294,905.264L340.259,905.264L393.398,653.934Z" style="fill:white;fill-rule:nonzero;"/>
        <path d="M619.235,830.942C618.757,832.857 618.517,834.892 618.517,837.046C618.517,845.663 621.809,852.844 628.391,858.588C634.973,864.333 643.65,867.205 654.422,867.205C665.672,867.205 674.648,865.171 681.35,861.102C688.052,857.033 693.198,852.245 696.789,846.74L732.693,869.36C729.82,874.147 726.051,878.934 721.383,883.721C716.715,888.509 710.971,892.877 704.149,896.826C697.327,900.776 689.309,904.007 680.093,906.521C670.878,909.034 660.166,910.291 647.959,910.291C636.948,910.291 626.835,908.555 617.62,905.084C608.404,901.614 600.505,896.826 593.923,890.723C587.34,884.619 582.194,877.318 578.484,868.821C574.774,860.324 572.919,850.929 572.919,840.636C572.919,824.36 575.372,809.041 580.279,794.679C585.186,780.317 592.307,767.751 601.642,756.979C610.977,746.208 622.467,737.711 636.11,731.487C649.754,725.264 665.432,722.152 683.145,722.152C695.592,722.152 706.423,724.127 715.638,728.076C724.854,732.026 732.453,737.292 738.437,743.874C744.422,750.457 748.91,757.937 751.902,766.314C754.894,774.692 756.39,783.309 756.39,792.166C756.39,795.038 756.21,797.97 755.851,800.962C755.492,803.954 754.834,807.844 753.876,812.631L749.927,830.942L619.235,830.942ZM675.964,763.083C664.714,763.083 654.96,765.896 646.702,771.521C638.444,777.146 632.281,784.027 628.211,792.166L712.227,792.166C712.227,783.07 709.415,775.949 703.79,770.803C698.165,765.656 688.89,763.083 675.964,763.083Z" style="fill:white;fill-rule:nonzero;"/>
        <path d="M913.65,900.955C908.863,904.307 903.956,906.7 898.93,908.136C893.903,909.572 888.996,910.291 884.209,910.291C878.943,910.291 873.916,909.393 869.129,907.598C864.342,905.803 860.153,903.289 856.562,900.058C852.972,896.826 850.16,892.877 848.125,888.209C846.09,883.542 845.073,878.336 845.073,872.591C845.073,868.283 845.552,864.094 846.509,860.025L885.645,696.66L882.055,694.147L833.943,727.179L811.323,693.429L863.384,658.243C868.172,654.892 873.078,652.498 878.105,651.062C883.132,649.626 888.039,648.908 892.826,648.908C898.092,648.908 903.118,649.805 907.906,651.6C912.693,653.396 916.882,655.909 920.472,659.14C924.062,662.372 926.875,666.321 928.91,670.989C930.944,675.656 931.961,680.862 931.961,686.607C931.961,690.437 931.483,694.626 930.525,699.174L891.39,862.538L894.98,865.051L943.092,832.019L965.711,865.769L913.65,900.955Z" style="fill:white;fill-rule:nonzero;"/>
        <path d="M1135.9,900.955C1131.11,904.307 1126.2,906.7 1121.18,908.136C1116.15,909.572 1111.24,910.291 1106.46,910.291C1101.19,910.291 1096.16,909.393 1091.38,907.598C1086.59,905.803 1082.4,903.289 1078.81,900.058C1075.22,896.826 1072.41,892.877 1070.37,888.209C1068.34,883.542 1067.32,878.336 1067.32,872.591C1067.32,868.043 1067.8,863.854 1068.76,860.025L1090.3,769.905L1086.71,767.392L1038.6,800.424L1015.98,766.674L1068.04,731.487C1072.83,728.136 1077.73,725.743 1082.76,724.307C1087.79,722.87 1092.69,722.152 1097.48,722.152C1102.75,722.152 1107.77,723.05 1112.56,724.845C1117.35,726.64 1121.54,729.154 1125.13,732.385C1128.72,735.616 1131.53,739.566 1133.56,744.233C1135.6,748.901 1136.62,754.107 1136.62,759.852C1136.62,764.4 1136.14,768.588 1135.18,772.418L1113.64,862.538L1117.23,865.051L1165.34,832.019L1187.96,865.769L1135.9,900.955ZM1167.13,674.4C1167.13,679.187 1166.24,683.675 1164.44,687.864C1162.65,692.053 1160.19,695.643 1157.08,698.635C1153.97,701.627 1150.32,704.021 1146.13,705.816C1141.94,707.611 1137.57,708.509 1133.03,708.509C1128.24,708.509 1123.81,707.611 1119.74,705.816C1115.67,704.021 1112.08,701.627 1108.97,698.635C1105.86,695.643 1103.4,692.053 1101.61,687.864C1099.81,683.675 1098.92,679.187 1098.92,674.4C1098.92,669.612 1099.81,665.124 1101.61,660.935C1103.4,656.747 1105.86,653.156 1108.97,650.164C1112.08,647.172 1115.67,644.779 1119.74,642.983C1123.81,641.188 1128.24,640.291 1133.03,640.291C1137.57,640.291 1141.94,641.188 1146.13,642.983C1150.32,644.779 1153.97,647.172 1157.08,650.164C1160.19,653.156 1162.65,656.747 1164.44,660.935C1166.24,665.124 1167.13,669.612 1167.13,674.4Z" style="fill:white;fill-rule:nonzero;"/>
        <path d="M1299.26,727.179L1277,830.583C1276.04,834.652 1275.57,838.602 1275.57,842.432C1275.57,851.527 1278.08,858.289 1283.11,862.717C1288.13,867.146 1294.83,869.36 1303.21,869.36C1315.9,869.36 1325.65,865.231 1332.47,856.973C1339.3,848.715 1344.38,837.046 1347.73,821.966L1367.84,727.179L1413.08,727.179L1383.64,862.897L1387.59,865.051L1400.51,855.716L1423.13,888.748L1406.26,900.955C1401.71,904.307 1396.98,906.7 1392.07,908.136C1387.17,909.572 1382.32,910.291 1377.53,910.291C1367.72,910.291 1359.1,907.478 1351.68,901.853C1344.26,896.228 1340.07,888.03 1339.12,877.259L1332.65,877.259C1327.39,889.466 1320.27,898.023 1311.29,902.93C1302.31,907.837 1292.2,910.291 1280.95,910.291C1265.39,910.291 1252.71,905.563 1242.89,896.108C1233.08,886.654 1228.17,873.429 1228.17,856.434C1228.17,850.45 1228.89,843.987 1230.33,837.046L1254.02,727.179L1299.26,727.179Z" style="fill:white;fill-rule:nonzero;"/>
        <path d="M1593.68,780.317C1594.16,778.402 1594.39,776.727 1594.39,775.291C1594.39,768.588 1591.16,765.237 1584.7,765.237C1580.87,765.237 1578,766.494 1576.08,769.007C1574.17,771.521 1572.85,774.572 1572.13,778.163L1544.85,905.264L1499.61,905.264L1526.18,780.317C1526.66,777.924 1526.89,776.248 1526.89,775.291C1526.89,768.588 1523.78,765.237 1517.56,765.237C1510.62,765.237 1506.31,769.546 1504.63,778.163L1477.35,905.264L1432.47,905.264L1470.17,727.179L1515.41,727.179L1511.82,744.413L1518.28,744.413C1520.19,736.993 1523.78,731.428 1529.05,727.717C1534.32,724.007 1540.3,722.152 1547,722.152C1554.9,722.152 1560.88,724.307 1564.95,728.615C1569.02,732.924 1571.66,738.189 1572.85,744.413L1579.32,744.413C1581.95,737.95 1585.96,732.624 1591.34,728.435C1596.73,724.247 1603.73,722.152 1612.35,722.152C1622.4,722.152 1630.12,725.384 1635.51,731.846C1640.89,738.309 1643.58,746.088 1643.58,755.184C1643.58,756.86 1643.52,758.356 1643.4,759.672C1643.29,760.989 1642.99,762.604 1642.51,764.519L1621.32,862.538L1624.91,865.051L1637.12,856.434L1659.74,890.184L1643.58,900.955C1638.8,904.307 1633.95,906.7 1629.04,908.136C1624.14,909.572 1619.29,910.291 1614.5,910.291C1609.24,910.291 1604.27,909.393 1599.6,907.598C1594.93,905.803 1590.81,903.229 1587.21,899.878C1583.62,896.527 1580.81,892.398 1578.78,887.491C1576.74,882.584 1575.73,877.019 1575.73,870.796C1575.73,867.445 1576.2,863.376 1577.16,858.588L1593.68,780.317Z" style="fill:white;fill-rule:nonzero;"/>
        <rect x="-0" y="11719.8" width="2000" height="492.339" style="fill:white;"/>
    </g>
    <g id="Drill">
        <circle cx="448.733" cy="2512.2" r="310"/>
        <circle cx="1549.4" cy="2512.2" r="310"/>
        <circle cx="1549.4" cy="3689.07" r="310"/>
        <circle cx="448.733" cy="3689.07" r="310"/>
        <circle cx="448.733" cy="4959.07" r="310"/>
        <circle cx="1549.4" cy="4959.07" r="310"/>
        <circle cx="1549.4" cy="6144.4" r="310"/>
        <circle cx="448.733" cy="6144.4" r="310"/>
        <circle cx="448.733" cy="7431.33" r="310"/>
        <circle cx="1549.4" cy="7431.33" r="310"/>
        <circle cx="1549.4" cy="8608.2" r="310"/>
        <circle cx="448.733" cy="8608.2" r="310"/>
        <circle cx="448.733" cy="9878.2" r="310"/>
        <circle cx="1549.4" cy="9878.2" r="310"/>
        <circle cx="1549.4" cy="11063.5" r="310"/>
        <circle cx="448.733" cy="11063.5" r="310"/>
    </g>
</svg>
