<?xml version="1.0" encoding="UTF-8" standalone="no"?>
<!DOCTYPE svg PUBLIC "-//W3C//DTD SVG 1.1//EN" "http://www.w3.org/Graphics/SVG/1.1/DTD/svg11.dtd">
<svg width="100%" height="100%" viewBox="0 0 1801 1201" version="1.1" xmlns="http://www.w3.org/2000/svg" xmlns:xlink="http://www.w3.org/1999/xlink" xml:space="preserve" xmlns:serif="http://www.serif.com/" style="fill-rule:evenodd;clip-rule:evenodd;stroke-linecap:round;stroke-linejoin:round;stroke-miterlimit:1.5;">
    <rect id="adder" x="0.155" y="0.208" width="1800" height="1200" style="fill:white;"/>
    <g id="Helium">
        <g id="Gold">
            <g id="Rings">
                <g>
                    <circle cx="856.286" cy="288.739" r="37.864" style="fill:rgb(203,202,190);"/>
                    <circle cx="856.286" cy="483.449" r="37.864" style="fill:rgb(203,202,190);"/>
                    <circle cx="944.024" cy="875.569" r="37.864" style="fill:rgb(203,202,190);"/>
                    <circle cx="856.286" cy="970.056" r="37.864" style="fill:rgb(203,202,190);"/>
                    <circle cx="856.286" cy="875.569" r="37.864" style="fill:rgb(203,202,190);"/>
                    <circle cx="856.286" cy="680.522" r="37.864" style="fill:rgb(203,202,190);"/>
                    <g>
                        <path d="M907.979,227.969c0.001,-1.677 -2.264,-3.665 -4.026,-3.666l-7.24,-0.227c-1.762,-0.001 -3.461,1.764 -3.462,3.442c-0.001,1.677 0.783,2.618 2.545,2.619l9.164,0.006c1.762,0.001 3.017,-0.496 3.019,-2.174Z" style="fill:rgb(203,202,190);"/>
                        <path d="M906.472,229.467c0.001,-1.448 -1.524,-2.356 -3.045,-2.357l-5.545,-0c-1.521,-0.001 -3.048,0.864 -3.049,2.312c-0.001,1.447 0.941,2.856 2.52,3.342c2.278,0.703 4.556,0.5 6.835,-0.453c1.521,0.001 2.283,-1.396 2.284,-2.844Z" style="fill:rgb(203,202,190);"/>
                        <path d="M900.681,169.252c15.423,-0 25.286,10.3 25.286,26.553c0,16.253 -14.31,29.51 -24.914,34.338c-10.583,-5.66 -26.562,-16.735 -26.562,-32.988c0,-16.253 10.768,-27.903 26.19,-27.903Zm-20.37,26.175c0.99,-0.012 1.565,0.544 2.718,3.036c0.956,2.066 1.013,8.067 2.608,11.789c1.695,3.953 8.181,10.055 8.602,11.46c0.857,2.863 -7.742,-5.414 -10.571,-9.25c-3.169,-4.295 -8.37,-15.827 -3.357,-17.035Zm41.482,-8.51c0.789,-0 1.43,0.643 1.43,1.436c-0,0.792 -0.641,1.436 -1.43,1.436c-0.789,-0 -1.43,-0.644 -1.43,-1.436c0,-0.793 0.641,-1.436 1.43,-1.436Zm-12.925,-14.415c2.882,-0.988 11.519,7.386 11.276,10.093c-0.083,0.928 -0.72,2.881 -1.719,2.677c-1.93,-0.394 -8.999,-3.008 -9.856,-5.041c-0.725,-1.72 -2.985,-6.603 0.299,-7.729Z" style="fill:rgb(203,202,190);"/>
                    </g>
                    <path id="EdgeCuts" d="M979.942,87.955l-159.426,-0l-0,1024.51l159.426,0l0,-1024.51Zm-99.622,987.746c7.086,0 12.838,5.753 12.838,12.838c0,7.086 -5.752,12.838 -12.838,12.838c-7.085,0 -12.838,-5.752 -12.838,-12.838c0,-7.085 5.753,-12.838 12.838,-12.838Zm0,-976.663c7.086,0 12.838,5.753 12.838,12.838c0,7.086 -5.752,12.838 -12.838,12.838c-7.085,0 -12.838,-5.752 -12.838,-12.838c0,-7.085 5.753,-12.838 12.838,-12.838Z" style="fill:none;stroke:rgb(12,12,12);stroke-width:4.17px;"/>
                    <g id="Jack">
                        <path d="M888.767,381.847c0.143,0.248 0.143,0.553 0,0.801c-1.838,3.184 -14.056,24.346 -15.893,27.529c-0.144,0.248 -0.408,0.4 -0.694,0.4c-3.676,0.001 -28.112,0.002 -31.788,0.002c-0.286,-0 -0.551,-0.153 -0.694,-0.401c-1.838,-3.183 -14.056,-24.344 -15.894,-27.527c-0.143,-0.248 -0.143,-0.553 0,-0.801c1.838,-3.183 14.056,-24.345 15.894,-27.529c0.143,-0.247 0.408,-0.4 0.694,-0.4c3.676,-0 28.112,-0.001 31.788,-0.002c0.286,0 0.55,0.153 0.694,0.401c1.837,3.183 14.055,24.344 15.893,27.527Z" style="fill:rgb(254,255,254);stroke:rgb(17,18,24);stroke-width:4.17px;"/>
                        <ellipse cx="856.286" cy="382.249" rx="17.08" ry="17.079" style="fill:rgb(131,133,136);"/>
                        <path d="M856.286,362.438c10.935,-0 19.813,8.877 19.813,19.811c-0,10.934 -8.878,19.812 -19.813,19.812c-10.935,-0 -19.813,-8.878 -19.813,-19.812c0,-10.934 8.878,-19.811 19.813,-19.811Zm-0,2.732c-9.427,0 -17.08,7.653 -17.08,17.079c-0,9.426 7.653,17.079 17.08,17.079c9.427,0 17.08,-7.653 17.08,-17.079c-0,-9.426 -7.653,-17.079 -17.08,-17.079Z" style="fill:rgb(131,133,136);"/>
                    </g>
                    <g id="Jack1" serif:id="Jack">
                        <path d="M976.285,381.847c0.143,0.248 0.143,0.553 -0,0.801c-1.838,3.184 -14.056,24.346 -15.894,27.529c-0.143,0.248 -0.408,0.4 -0.694,0.4c-3.675,0.001 -28.112,0.002 -31.787,0.002c-0.287,-0 -0.551,-0.153 -0.694,-0.401c-1.838,-3.183 -14.056,-24.344 -15.894,-27.527c-0.143,-0.248 -0.143,-0.553 -0,-0.801c1.838,-3.183 14.056,-24.345 15.894,-27.529c0.143,-0.247 0.407,-0.4 0.693,-0.4c3.676,-0 28.112,-0.001 31.788,-0.002c0.286,0 0.551,0.153 0.694,0.401c1.838,3.183 14.056,24.344 15.894,27.527Z" style="fill:rgb(254,255,254);stroke:rgb(17,18,24);stroke-width:4.17px;"/>
                        <ellipse cx="943.803" cy="382.249" rx="17.08" ry="17.079" style="fill:rgb(131,133,136);"/>
                        <path d="M943.803,362.438c10.935,-0 19.813,8.877 19.813,19.811c-0,10.934 -8.878,19.812 -19.813,19.812c-10.935,-0 -19.812,-8.878 -19.812,-19.812c-0,-10.934 8.877,-19.811 19.812,-19.811Zm0,2.732c-9.426,0 -17.08,7.653 -17.08,17.079c0,9.426 7.654,17.079 17.08,17.079c9.427,0 17.08,-7.653 17.08,-17.079c0,-9.426 -7.653,-17.079 -17.08,-17.079Z" style="fill:rgb(131,133,136);"/>
                    </g>
                    <g id="Jack2" serif:id="Jack">
                        <path d="M888.767,483.102c0.143,0.248 0.143,0.553 0,0.801c-1.838,3.184 -14.056,24.346 -15.893,27.529c-0.144,0.248 -0.408,0.401 -0.694,0.401c-3.676,-0 -28.112,0.001 -31.788,0.001c-0.286,0 -0.551,-0.153 -0.694,-0.4c-1.838,-3.184 -14.056,-24.345 -15.894,-27.528c-0.143,-0.248 -0.143,-0.553 0,-0.801c1.838,-3.183 14.056,-24.345 15.894,-27.529c0.143,-0.247 0.408,-0.4 0.694,-0.4c3.676,-0 28.112,-0.001 31.788,-0.002c0.286,0 0.55,0.153 0.694,0.401c1.837,3.183 14.055,24.344 15.893,27.527Z" style="fill:rgb(254,255,254);stroke:rgb(17,18,24);stroke-width:4.17px;"/>
                        <ellipse cx="856.286" cy="483.504" rx="17.08" ry="17.079" style="fill:rgb(131,133,136);"/>
                        <path d="M856.286,463.693c10.935,-0 19.813,8.877 19.813,19.811c-0,10.935 -8.878,19.812 -19.813,19.812c-10.935,-0 -19.813,-8.877 -19.813,-19.812c0,-10.934 8.878,-19.811 19.813,-19.811Zm-0,2.732c-9.427,0 -17.08,7.653 -17.08,17.079c-0,9.426 7.653,17.079 17.08,17.079c9.427,0 17.08,-7.653 17.08,-17.079c-0,-9.426 -7.653,-17.079 -17.08,-17.079Z" style="fill:rgb(131,133,136);"/>
                    </g>
                    <g id="Jack3" serif:id="Jack">
                        <path d="M976.285,483.102c0.143,0.248 0.143,0.553 -0,0.801c-1.838,3.184 -14.056,24.346 -15.894,27.529c-0.143,0.248 -0.408,0.401 -0.694,0.401c-3.675,-0 -28.112,0.001 -31.787,0.001c-0.287,0 -0.551,-0.153 -0.694,-0.4c-1.838,-3.184 -14.056,-24.345 -15.894,-27.528c-0.143,-0.248 -0.143,-0.553 -0,-0.801c1.838,-3.183 14.056,-24.345 15.894,-27.529c0.143,-0.247 0.407,-0.4 0.693,-0.4c3.676,-0 28.112,-0.001 31.788,-0.002c0.286,0 0.551,0.153 0.694,0.401c1.838,3.183 14.056,24.344 15.894,27.527Z" style="fill:rgb(254,255,254);stroke:rgb(17,18,24);stroke-width:4.17px;"/>
                        <ellipse cx="943.803" cy="483.504" rx="17.08" ry="17.079" style="fill:rgb(131,133,136);"/>
                        <path d="M943.803,463.693c10.935,-0 19.813,8.877 19.813,19.811c-0,10.935 -8.878,19.812 -19.813,19.812c-10.935,-0 -19.812,-8.877 -19.812,-19.812c-0,-10.934 8.877,-19.811 19.812,-19.811Zm0,2.732c-9.426,0 -17.08,7.653 -17.08,17.079c0,9.426 7.654,17.079 17.08,17.079c9.427,0 17.08,-7.653 17.08,-17.079c0,-9.426 -7.653,-17.079 -17.08,-17.079Z" style="fill:rgb(131,133,136);"/>
                    </g>
                    <g id="Jack4" serif:id="Jack">
                        <path d="M888.767,577.557c0.143,0.248 0.143,0.553 0,0.801c-1.838,3.184 -14.056,24.346 -15.893,27.529c-0.144,0.248 -0.408,0.401 -0.694,0.401c-3.676,-0 -28.112,0.001 -31.788,0.001c-0.286,0 -0.551,-0.153 -0.694,-0.401c-1.838,-3.183 -14.056,-24.344 -15.894,-27.527c-0.143,-0.248 -0.143,-0.553 0,-0.801c1.838,-3.183 14.056,-24.345 15.894,-27.529c0.143,-0.247 0.408,-0.4 0.694,-0.4c3.676,-0 28.112,-0.001 31.788,-0.002c0.286,0 0.55,0.153 0.694,0.401c1.837,3.183 14.055,24.344 15.893,27.527Z" style="fill:rgb(254,255,254);stroke:rgb(17,18,24);stroke-width:4.17px;"/>
                        <ellipse cx="856.286" cy="577.959" rx="17.08" ry="17.079" style="fill:rgb(131,133,136);"/>
                        <path d="M856.286,558.148c10.935,-0 19.813,8.877 19.813,19.811c-0,10.935 -8.878,19.812 -19.813,19.812c-10.935,-0 -19.813,-8.877 -19.813,-19.812c0,-10.934 8.878,-19.811 19.813,-19.811Zm-0,2.732c-9.427,0 -17.08,7.653 -17.08,17.079c-0,9.426 7.653,17.079 17.08,17.079c9.427,0 17.08,-7.653 17.08,-17.079c-0,-9.426 -7.653,-17.079 -17.08,-17.079Z" style="fill:rgb(131,133,136);"/>
                    </g>
                    <g id="Jack5" serif:id="Jack">
                        <path d="M976.285,577.557c0.143,0.248 0.143,0.553 -0,0.801c-1.838,3.184 -14.056,24.346 -15.894,27.529c-0.143,0.248 -0.408,0.401 -0.694,0.401c-3.675,-0 -28.112,0.001 -31.787,0.001c-0.287,0 -0.551,-0.153 -0.694,-0.401c-1.838,-3.183 -14.056,-24.344 -15.894,-27.527c-0.143,-0.248 -0.143,-0.553 -0,-0.801c1.838,-3.183 14.056,-24.345 15.894,-27.529c0.143,-0.247 0.407,-0.4 0.693,-0.4c3.676,-0 28.112,-0.001 31.788,-0.002c0.286,0 0.551,0.153 0.694,0.401c1.838,3.183 14.056,24.344 15.894,27.527Z" style="fill:rgb(254,255,254);stroke:rgb(17,18,24);stroke-width:4.17px;"/>
                        <ellipse cx="943.803" cy="577.959" rx="17.08" ry="17.079" style="fill:rgb(131,133,136);"/>
                        <path d="M943.803,558.148c10.935,-0 19.813,8.877 19.813,19.811c-0,10.935 -8.878,19.812 -19.813,19.812c-10.935,-0 -19.812,-8.877 -19.812,-19.812c-0,-10.934 8.877,-19.811 19.812,-19.811Zm0,2.732c-9.426,0 -17.08,7.653 -17.08,17.079c0,9.426 7.654,17.079 17.08,17.079c9.427,0 17.08,-7.653 17.08,-17.079c0,-9.426 -7.653,-17.079 -17.08,-17.079Z" style="fill:rgb(131,133,136);"/>
                    </g>
                    <g id="Jack6" serif:id="Jack">
                        <path d="M888.767,287.999c0.143,0.248 0.143,0.554 0,0.802c-1.838,3.183 -14.056,24.345 -15.893,27.528c-0.144,0.248 -0.408,0.401 -0.694,0.401c-3.676,0 -28.112,0.001 -31.788,0.001c-0.286,0 -0.551,-0.152 -0.694,-0.4c-1.838,-3.183 -14.056,-24.344 -15.894,-27.527c-0.143,-0.248 -0.143,-0.554 0,-0.802c1.838,-3.183 14.056,-24.345 15.894,-27.528c0.143,-0.248 0.408,-0.401 0.694,-0.401c3.676,0 28.112,-0.001 31.788,-0.001c0.286,-0 0.55,0.152 0.694,0.4c1.837,3.183 14.055,24.344 15.893,27.527Z" style="fill:rgb(254,255,254);stroke:rgb(17,18,24);stroke-width:4.17px;"/>
                        <ellipse cx="856.286" cy="288.402" rx="17.08" ry="17.079" style="fill:rgb(131,133,136);"/>
                        <path d="M856.286,268.59c10.935,-0 19.813,8.877 19.813,19.812c-0,10.934 -8.878,19.811 -19.813,19.811c-10.935,0 -19.813,-8.877 -19.813,-19.811c0,-10.935 8.878,-19.812 19.813,-19.812Zm-0,2.733c-9.427,-0 -17.08,7.652 -17.08,17.079c-0,9.426 7.653,17.078 17.08,17.078c9.427,0 17.08,-7.652 17.08,-17.078c-0,-9.427 -7.653,-17.079 -17.08,-17.079Z" style="fill:rgb(131,133,136);"/>
                    </g>
                    <g id="Jack7" serif:id="Jack">
                        <path d="M976.285,287.999c0.143,0.248 0.143,0.554 -0,0.802c-1.838,3.183 -14.056,24.345 -15.894,27.528c-0.143,0.248 -0.408,0.401 -0.694,0.401c-3.675,0 -28.112,0.001 -31.787,0.001c-0.287,0 -0.551,-0.152 -0.694,-0.4c-1.838,-3.183 -14.056,-24.344 -15.894,-27.527c-0.143,-0.248 -0.143,-0.554 -0,-0.802c1.838,-3.183 14.056,-24.345 15.894,-27.528c0.143,-0.248 0.407,-0.401 0.693,-0.401c3.676,0 28.112,-0.001 31.788,-0.001c0.286,-0 0.551,0.152 0.694,0.4c1.838,3.183 14.056,24.344 15.894,27.527Z" style="fill:rgb(254,255,254);stroke:rgb(17,18,24);stroke-width:4.17px;"/>
                        <ellipse cx="943.803" cy="288.402" rx="17.08" ry="17.079" style="fill:rgb(131,133,136);"/>
                        <path d="M943.803,268.59c10.935,-0 19.813,8.877 19.813,19.812c-0,10.934 -8.878,19.811 -19.813,19.811c-10.935,0 -19.812,-8.877 -19.812,-19.811c-0,-10.935 8.877,-19.812 19.812,-19.812Zm0,2.733c-9.426,-0 -17.08,7.652 -17.08,17.079c0,9.426 7.654,17.078 17.08,17.078c9.427,0 17.08,-7.652 17.08,-17.078c0,-9.427 -7.653,-17.079 -17.08,-17.079Z" style="fill:rgb(131,133,136);"/>
                    </g>
                    <g id="Jack8" serif:id="Jack">
                        <path d="M888.767,680.148c0.143,0.248 0.143,0.554 0,0.801c-1.838,3.184 -14.056,24.346 -15.893,27.529c-0.144,0.248 -0.408,0.401 -0.694,0.401c-3.676,-0 -28.112,0.001 -31.788,0.001c-0.286,0 -0.551,-0.152 -0.694,-0.4c-1.838,-3.183 -14.056,-24.344 -15.894,-27.528c-0.143,-0.247 -0.143,-0.553 0,-0.801c1.838,-3.183 14.056,-24.345 15.894,-27.528c0.143,-0.248 0.408,-0.401 0.694,-0.401c3.676,-0 28.112,-0.001 31.788,-0.001c0.286,-0 0.55,0.152 0.694,0.4c1.837,3.183 14.055,24.344 15.893,27.527Z" style="fill:rgb(254,255,254);stroke:rgb(17,18,24);stroke-width:4.17px;"/>
                        <ellipse cx="856.286" cy="680.55" rx="17.08" ry="17.079" style="fill:rgb(131,133,136);"/>
                        <path d="M856.286,660.739c10.935,-0 19.813,8.877 19.813,19.811c-0,10.935 -8.878,19.812 -19.813,19.812c-10.935,0 -19.813,-8.877 -19.813,-19.812c0,-10.934 8.878,-19.811 19.813,-19.811Zm-0,2.732c-9.427,0 -17.08,7.653 -17.08,17.079c-0,9.427 7.653,17.079 17.08,17.079c9.427,0 17.08,-7.652 17.08,-17.079c-0,-9.426 -7.653,-17.079 -17.08,-17.079Z" style="fill:rgb(131,133,136);"/>
                    </g>
                    <g id="Jack9" serif:id="Jack">
                        <path d="M976.285,680.148c0.143,0.248 0.143,0.554 -0,0.801c-1.838,3.184 -14.056,24.346 -15.894,27.529c-0.143,0.248 -0.408,0.401 -0.694,0.401c-3.675,-0 -28.112,0.001 -31.787,0.001c-0.287,0 -0.551,-0.152 -0.694,-0.4c-1.838,-3.183 -14.056,-24.344 -15.894,-27.528c-0.143,-0.247 -0.143,-0.553 -0,-0.801c1.838,-3.183 14.056,-24.345 15.894,-27.528c0.143,-0.248 0.407,-0.401 0.693,-0.401c3.676,-0 28.112,-0.001 31.788,-0.001c0.286,-0 0.551,0.152 0.694,0.4c1.838,3.183 14.056,24.344 15.894,27.527Z" style="fill:rgb(254,255,254);stroke:rgb(17,18,24);stroke-width:4.17px;"/>
                        <ellipse cx="943.803" cy="680.55" rx="17.08" ry="17.079" style="fill:rgb(131,133,136);"/>
                        <path d="M943.803,660.739c10.935,-0 19.813,8.877 19.813,19.811c-0,10.935 -8.878,19.812 -19.813,19.812c-10.935,0 -19.812,-8.877 -19.812,-19.812c-0,-10.934 8.877,-19.811 19.812,-19.811Zm0,2.732c-9.426,0 -17.08,7.653 -17.08,17.079c0,9.427 7.654,17.079 17.08,17.079c9.427,0 17.08,-7.652 17.08,-17.079c0,-9.426 -7.653,-17.079 -17.08,-17.079Z" style="fill:rgb(131,133,136);"/>
                    </g>
                    <g id="Jack10" serif:id="Jack">
                        <path d="M888.767,773.931c0.143,0.248 0.143,0.554 0,0.802c-1.838,3.183 -14.056,24.345 -15.893,27.528c-0.144,0.248 -0.408,0.401 -0.694,0.401c-3.676,-0 -28.112,0.001 -31.788,0.001c-0.286,0 -0.551,-0.152 -0.694,-0.4c-1.838,-3.183 -14.056,-24.344 -15.894,-27.527c-0.143,-0.248 -0.143,-0.554 0,-0.802c1.838,-3.183 14.056,-24.345 15.894,-27.528c0.143,-0.248 0.408,-0.401 0.694,-0.401c3.676,-0 28.112,-0.001 31.788,-0.001c0.286,-0 0.55,0.152 0.694,0.4c1.837,3.183 14.055,24.344 15.893,27.527Z" style="fill:rgb(254,255,254);stroke:rgb(17,18,24);stroke-width:4.17px;"/>
                        <ellipse cx="856.286" cy="774.333" rx="17.08" ry="17.079" style="fill:rgb(131,133,136);"/>
                        <path d="M856.286,754.522c10.935,-0 19.813,8.877 19.813,19.811c-0,10.935 -8.878,19.812 -19.813,19.812c-10.935,0 -19.813,-8.877 -19.813,-19.812c0,-10.934 8.878,-19.811 19.813,-19.811Zm-0,2.733c-9.427,-0 -17.08,7.652 -17.08,17.078c-0,9.427 7.653,17.079 17.08,17.079c9.427,0 17.08,-7.652 17.08,-17.079c-0,-9.426 -7.653,-17.078 -17.08,-17.078Z" style="fill:rgb(131,133,136);"/>
                    </g>
                    <g id="Jack11" serif:id="Jack">
                        <path d="M976.285,773.931c0.143,0.248 0.143,0.554 -0,0.802c-1.838,3.183 -14.056,24.345 -15.894,27.528c-0.143,0.248 -0.408,0.401 -0.694,0.401c-3.675,-0 -28.112,0.001 -31.787,0.001c-0.287,0 -0.551,-0.152 -0.694,-0.4c-1.838,-3.183 -14.056,-24.344 -15.894,-27.527c-0.143,-0.248 -0.143,-0.554 -0,-0.802c1.838,-3.183 14.056,-24.345 15.894,-27.528c0.143,-0.248 0.407,-0.401 0.693,-0.401c3.676,-0 28.112,-0.001 31.788,-0.001c0.286,-0 0.551,0.152 0.694,0.4c1.838,3.183 14.056,24.344 15.894,27.527Z" style="fill:rgb(254,255,254);stroke:rgb(17,18,24);stroke-width:4.17px;"/>
                        <ellipse cx="943.803" cy="774.333" rx="17.08" ry="17.079" style="fill:rgb(131,133,136);"/>
                        <path d="M943.803,754.522c10.935,-0 19.813,8.877 19.813,19.811c-0,10.935 -8.878,19.812 -19.813,19.812c-10.935,0 -19.812,-8.877 -19.812,-19.812c-0,-10.934 8.877,-19.811 19.812,-19.811Zm0,2.733c-9.426,-0 -17.08,7.652 -17.08,17.078c0,9.427 7.654,17.079 17.08,17.079c9.427,0 17.08,-7.652 17.08,-17.079c0,-9.426 -7.653,-17.078 -17.08,-17.078Z" style="fill:rgb(131,133,136);"/>
                    </g>
                    <g id="Jack12" serif:id="Jack">
                        <path d="M888.767,875.225c0.143,0.248 0.143,0.554 0,0.802c-1.838,3.183 -14.056,24.345 -15.893,27.528c-0.144,0.248 -0.408,0.401 -0.694,0.401c-3.676,0 -28.112,0.001 -31.788,0.001c-0.286,0 -0.551,-0.152 -0.694,-0.4c-1.838,-3.183 -14.056,-24.344 -15.894,-27.527c-0.143,-0.248 -0.143,-0.554 0,-0.802c1.838,-3.183 14.056,-24.345 15.894,-27.528c0.143,-0.248 0.408,-0.401 0.694,-0.401c3.676,0 28.112,-0.001 31.788,-0.001c0.286,-0 0.55,0.152 0.694,0.4c1.837,3.183 14.055,24.344 15.893,27.527Z" style="fill:rgb(254,255,254);stroke:rgb(17,18,24);stroke-width:4.17px;"/>
                        <ellipse cx="856.286" cy="875.628" rx="17.08" ry="17.079" style="fill:rgb(131,133,136);"/>
                        <path d="M856.286,855.816c10.935,-0 19.813,8.877 19.813,19.812c-0,10.934 -8.878,19.811 -19.813,19.811c-10.935,0 -19.813,-8.877 -19.813,-19.811c0,-10.935 8.878,-19.812 19.813,-19.812Zm-0,2.733c-9.427,-0 -17.08,7.652 -17.08,17.079c-0,9.426 7.653,17.078 17.08,17.078c9.427,0 17.08,-7.652 17.08,-17.078c-0,-9.427 -7.653,-17.079 -17.08,-17.079Z" style="fill:rgb(131,133,136);"/>
                    </g>
                    <g id="Jack13" serif:id="Jack">
                        <path d="M976.285,875.225c0.143,0.248 0.143,0.554 -0,0.802c-1.838,3.183 -14.056,24.345 -15.894,27.528c-0.143,0.248 -0.408,0.401 -0.694,0.401c-3.675,0 -28.112,0.001 -31.787,0.001c-0.287,0 -0.551,-0.152 -0.694,-0.4c-1.838,-3.183 -14.056,-24.344 -15.894,-27.527c-0.143,-0.248 -0.143,-0.554 -0,-0.802c1.838,-3.183 14.056,-24.345 15.894,-27.528c0.143,-0.248 0.407,-0.401 0.693,-0.401c3.676,0 28.112,-0.001 31.788,-0.001c0.286,-0 0.551,0.152 0.694,0.4c1.838,3.183 14.056,24.344 15.894,27.527Z" style="fill:rgb(254,255,254);stroke:rgb(17,18,24);stroke-width:4.17px;"/>
                        <ellipse cx="943.803" cy="875.628" rx="17.08" ry="17.079" style="fill:rgb(131,133,136);"/>
                        <path d="M943.803,855.816c10.935,-0 19.813,8.877 19.813,19.812c-0,10.934 -8.878,19.811 -19.813,19.811c-10.935,0 -19.812,-8.877 -19.812,-19.811c-0,-10.935 8.877,-19.812 19.812,-19.812Zm0,2.733c-9.426,-0 -17.08,7.652 -17.08,17.079c0,9.426 7.654,17.078 17.08,17.078c9.427,0 17.08,-7.652 17.08,-17.078c0,-9.427 -7.653,-17.079 -17.08,-17.079Z" style="fill:rgb(131,133,136);"/>
                    </g>
                    <g id="Jack14" serif:id="Jack">
                        <path d="M888.767,969.654c0.143,0.248 0.143,0.553 0,0.801c-1.838,3.183 -14.056,24.346 -15.893,27.529c-0.144,0.248 -0.408,0.4 -0.694,0.4c-3.676,0.001 -28.112,0.002 -31.788,0.002c-0.286,-0 -0.551,-0.153 -0.694,-0.401c-1.838,-3.183 -14.056,-24.344 -15.894,-27.527c-0.143,-0.248 -0.143,-0.553 0,-0.801c1.838,-3.183 14.056,-24.346 15.894,-27.529c0.143,-0.248 0.408,-0.4 0.694,-0.4c3.676,-0 28.112,-0.002 31.788,-0.002c0.286,0 0.55,0.153 0.694,0.401c1.837,3.183 14.055,24.344 15.893,27.527Z" style="fill:rgb(254,255,254);stroke:rgb(17,18,24);stroke-width:4.17px;"/>
                        <ellipse cx="856.286" cy="970.056" rx="17.08" ry="17.079" style="fill:rgb(131,133,136);"/>
                        <path d="M856.286,950.244c10.935,0 19.813,8.878 19.813,19.812c-0,10.934 -8.878,19.812 -19.813,19.812c-10.935,-0 -19.813,-8.878 -19.813,-19.812c0,-10.934 8.878,-19.812 19.813,-19.812Zm-0,2.733c-9.427,0 -17.08,7.653 -17.08,17.079c-0,9.426 7.653,17.079 17.08,17.079c9.427,-0 17.08,-7.653 17.08,-17.079c-0,-9.426 -7.653,-17.079 -17.08,-17.079Z" style="fill:rgb(131,133,136);"/>
                    </g>
                    <g id="Jack15" serif:id="Jack">
                        <path d="M976.285,969.654c0.143,0.248 0.143,0.553 -0,0.801c-1.838,3.183 -14.056,24.346 -15.894,27.529c-0.143,0.248 -0.408,0.4 -0.694,0.4c-3.675,0.001 -28.112,0.002 -31.787,0.002c-0.287,-0 -0.551,-0.153 -0.694,-0.401c-1.838,-3.183 -14.056,-24.344 -15.894,-27.527c-0.143,-0.248 -0.143,-0.553 -0,-0.801c1.838,-3.183 14.056,-24.346 15.894,-27.529c0.143,-0.248 0.407,-0.4 0.693,-0.4c3.676,-0 28.112,-0.002 31.788,-0.002c0.286,0 0.551,0.153 0.694,0.401c1.838,3.183 14.056,24.344 15.894,27.527Z" style="fill:rgb(254,255,254);stroke:rgb(17,18,24);stroke-width:4.17px;"/>
                        <ellipse cx="943.803" cy="970.056" rx="17.08" ry="17.079" style="fill:rgb(131,133,136);"/>
                        <path d="M943.803,950.244c10.935,0 19.813,8.878 19.813,19.812c-0,10.934 -8.878,19.812 -19.813,19.812c-10.935,-0 -19.812,-8.878 -19.812,-19.812c-0,-10.934 8.877,-19.812 19.812,-19.812Zm0,2.733c-9.426,0 -17.08,7.653 -17.08,17.079c0,9.426 7.654,17.079 17.08,17.079c9.427,-0 17.08,-7.653 17.08,-17.079c0,-9.426 -7.653,-17.079 -17.08,-17.079Z" style="fill:rgb(131,133,136);"/>
                    </g>
                    <ellipse cx="856.286" cy="288.402" rx="17.08" ry="17.079" style="fill:rgb(131,133,136);"/>
                    <ellipse cx="943.803" cy="288.402" rx="17.08" ry="17.079" style="fill:rgb(131,133,136);"/>
                    <ellipse cx="943.803" cy="382.249" rx="17.08" ry="17.079" style="fill:rgb(131,133,136);"/>
                    <ellipse cx="856.286" cy="382.249" rx="17.08" ry="17.079" style="fill:rgb(131,133,136);"/>
                    <ellipse cx="856.286" cy="483.504" rx="17.08" ry="17.079" style="fill:rgb(131,133,136);"/>
                    <ellipse cx="943.803" cy="483.504" rx="17.08" ry="17.079" style="fill:rgb(131,133,136);"/>
                    <ellipse cx="856.286" cy="577.959" rx="17.08" ry="17.079" style="fill:rgb(131,133,136);"/>
                    <ellipse cx="943.803" cy="577.959" rx="17.08" ry="17.079" style="fill:rgb(131,133,136);"/>
                    <ellipse cx="856.286" cy="680.55" rx="17.08" ry="17.079" style="fill:rgb(131,133,136);"/>
                    <ellipse cx="943.803" cy="680.55" rx="17.08" ry="17.079" style="fill:rgb(131,133,136);"/>
                    <ellipse cx="943.803" cy="774.333" rx="17.08" ry="17.079" style="fill:rgb(131,133,136);"/>
                    <ellipse cx="856.286" cy="774.333" rx="17.08" ry="17.079" style="fill:rgb(131,133,136);"/>
                    <ellipse cx="856.286" cy="875.569" rx="17.08" ry="17.079" style="fill:rgb(125,97,170);"/>
                    <ellipse cx="856.286" cy="970.056" rx="17.08" ry="17.079" style="fill:rgb(216,78,90);"/>
                    <ellipse cx="943.803" cy="970.056" rx="17.08" ry="17.079" style="fill:rgb(250,193,105);"/>
                    <ellipse cx="943.803" cy="875.628" rx="17.08" ry="17.079" style="fill:rgb(66,141,148);"/>
                    <path d="M908.868,172.502c2.882,-0.988 11.519,7.386 11.276,10.093c-0.083,0.928 -0.72,2.881 -1.719,2.677c-1.93,-0.394 -8.999,-3.008 -9.856,-5.041c-0.725,-1.72 -2.985,-6.603 0.299,-7.729Z" style="fill:rgb(131,133,136);"/>
                    <path d="M880.311,195.427c0.99,-0.012 1.565,0.544 2.718,3.036c0.956,2.066 1.013,8.067 2.608,11.789c1.695,3.953 8.181,10.055 8.602,11.46c0.857,2.863 -7.742,-5.414 -10.571,-9.25c-3.169,-4.295 -8.37,-15.827 -3.357,-17.035Z" style="fill:rgb(131,133,136);"/>
                    <ellipse cx="921.793" cy="188.353" rx="1.43" ry="1.436" style="fill:rgb(131,133,136);"/>
                    <path d="M902.849,262.164c-0.755,-0.979 -2.269,-2.935 -2.766,-6.399c-0.333,-2.319 0.759,-4.278 1.791,-6.958c0.659,-1.709 1.535,-5.732 0.695,-8.099c-1.153,-3.252 -1.094,-8.121 -1.073,-10.555c0.004,-0.465 -0.371,-0.847 -0.836,-0.85c-0.466,-0.004 -0.847,0.37 -0.851,0.836c-0.022,2.568 -0.047,7.702 1.17,11.133c0.72,2.027 -0.115,5.465 -0.679,6.929c-1.154,2.994 -2.259,5.212 -1.887,7.803c0.558,3.891 2.252,6.091 3.101,7.191c0.284,0.369 0.814,0.437 1.183,0.152c0.369,-0.284 0.437,-0.814 0.152,-1.183Z" style="fill:rgb(131,133,136);"/>
                    <path d="M967.161,1041.06c-4.07,0.275 -5.784,2.974 -6.695,5.818c-0.801,2.501 -1.699,5.083 -2.676,6.41c-0.542,0.736 -1.146,1.114 -1.734,1.114c-0.583,0 -1.01,-0.307 -1.284,-0.885c-0.417,-0.879 -0.406,-2.601 -0.296,-4.325c0.087,-1.353 0.221,-2.706 0.162,-3.571c-0.008,-0.126 -0.035,-0.268 -0.058,-0.373c-0.05,0.026 -0.1,0.061 -0.152,0.1c-0.192,0.145 -0.382,0.354 -0.574,0.604c-0.667,0.866 -1.327,2.179 -1.951,3.318c-0.532,0.973 -1.05,1.824 -1.511,2.252c-0.314,0.29 -0.632,0.42 -0.918,0.42c-0.539,-0 -0.926,-0.329 -1.076,-1.015c-0.191,-0.877 0.075,-2.598 0.388,-4.316c0.248,-1.362 0.516,-2.723 0.526,-3.594c0.001,-0.111 -0.012,-0.236 -0.025,-0.333c-0.074,0.043 -0.148,0.108 -0.228,0.182c-0.24,0.222 -0.48,0.543 -0.722,0.926c-0.808,1.276 -1.611,3.208 -2.344,4.887c-0.603,1.381 -1.167,2.597 -1.641,3.205c-0.34,0.437 -0.703,0.612 -0.988,0.612c-0.538,0 -0.908,-0.28 -1.12,-0.802c-0.29,-0.715 -0.182,-2.119 0.024,-3.523c0.128,-0.871 0.281,-1.742 0.346,-2.413c0.016,-0.164 0.018,-0.35 0.016,-0.5c-0.048,0.024 -0.1,0.05 -0.155,0.078c-0.445,0.224 -1.016,0.586 -1.666,0.986c-1.137,0.702 -2.501,1.504 -3.853,1.979c-0.276,1.09 -0.72,2.127 -1.306,2.935c-0.778,1.074 -1.805,1.75 -2.999,1.75c-1.052,0 -1.706,-0.533 -2.121,-1.291c-0.35,-0.639 -0.513,-1.458 -0.613,-2.188c-0.045,-0.33 -0.105,-0.722 -0.148,-0.991c-0.215,0.093 -0.504,0.221 -0.764,0.344c-0.459,0.218 -0.994,0.457 -1.569,0.652c-0.242,1.139 -0.658,2.225 -1.216,3.067c-0.737,1.11 -1.723,1.802 -2.86,1.802c-1.011,0 -1.673,-0.561 -2.101,-1.381c-0.356,-0.681 -0.537,-1.554 -0.65,-2.332c-0.049,-0.332 -0.085,-0.645 -0.12,-0.912c-0.137,0.159 -0.284,0.346 -0.44,0.543c-0.462,0.584 -1.002,1.251 -1.606,1.694c-0.48,0.352 -1.002,0.569 -1.556,0.569c-0.995,0 -1.772,-0.484 -2.339,-1.324c-0.467,-0.691 -0.785,-1.649 -0.962,-2.754c-0.814,0.594 -1.717,1.11 -2.601,1.579c-0.004,0.115 -0.011,0.23 -0.022,0.345c-0.119,1.231 -0.707,2.579 -1.46,3.461c-0.582,0.682 -1.273,1.08 -1.921,1.08c-0.338,0 -0.731,-0.131 -1.076,-0.383c-0.493,-0.36 -0.881,-0.957 -0.881,-1.667c-0,-0.716 0.54,-1.406 1.498,-2.037c0.717,-0.472 1.682,-0.941 2.705,-1.466c-0.063,-0.693 -0.273,-1.361 -0.611,-1.847c-0.253,-0.365 -0.578,-0.626 -0.987,-0.626c-1.269,-0 -2.111,0.735 -2.716,1.664c-0.677,1.041 -1.067,2.326 -1.363,3.287c-0.206,0.668 -0.383,1.199 -0.551,1.46c-0.204,0.316 -0.46,0.417 -0.678,0.417c-0.117,0 -0.242,-0.031 -0.364,-0.122c-0.077,-0.058 -0.208,-0.202 -0.296,-0.475c-0.136,-0.426 -0.305,-1.479 -0.442,-2.891c-0.544,0.871 -1.079,1.665 -1.581,2.344c-0.8,1.081 -1.527,1.877 -2.078,2.262c-0.344,0.24 -0.655,0.34 -0.898,0.34c-1.063,-0 -1.66,-0.746 -1.844,-1.997c-0.207,-1.412 0.125,-3.55 0.447,-5.409c0.164,-0.944 0.322,-1.812 0.39,-2.46c0.019,-0.175 0.022,-0.37 0.02,-0.517c-0.49,0.04 -1.025,0.157 -1.567,0.275c-0.361,1.976 -1.468,4.342 -2.913,6.05c-1.221,1.443 -2.69,2.403 -4.128,2.403c-1.742,0 -3.002,-0.68 -3.859,-1.725c-1.082,0.906 -2.282,1.47 -3.475,1.47c-1.26,0 -2.307,-0.957 -3.032,-2.604c-0.238,-0.542 -0.445,-1.16 -0.621,-1.836c-0.562,1.136 -1.131,2.169 -1.681,3.035c-0.656,1.032 -1.293,1.833 -1.86,2.312c-0.485,0.409 -0.948,0.6 -1.346,0.6c-0.863,-0 -1.474,-0.587 -1.813,-1.638c-0.386,-1.192 -0.436,-3.053 -0.417,-4.915c0.019,-1.763 0.096,-3.525 -0.052,-4.653c-0.033,-0.254 -0.076,-0.471 -0.14,-0.639c-0.01,-0.027 -0.027,-0.059 -0.041,-0.086c-0.037,0.023 -0.071,0.062 -0.112,0.101c-0.158,0.15 -0.311,0.37 -0.467,0.637c-0.549,0.939 -1.087,2.408 -1.617,3.875c-0.652,1.804 -1.297,3.605 -1.912,4.525c-0.397,0.593 -0.847,0.862 -1.231,0.862c-0.442,0 -0.822,-0.271 -1.038,-0.865c-0.276,-0.761 -0.294,-2.25 -0.284,-3.741c0.008,-1.169 0.027,-2.339 -0.11,-3.087c-0.023,-0.124 -0.074,-0.271 -0.106,-0.358c-0.262,0.057 -0.48,0.283 -0.705,0.568c-0.558,0.71 -1.044,1.822 -1.558,2.931c-0.561,1.209 -1.155,2.414 -1.86,3.188c-0.568,0.623 -1.214,0.985 -1.945,0.985c-1.165,0 -1.793,-0.826 -1.938,-2.283c-0.166,-1.671 0.306,-4.283 0.761,-6.894c0.163,-0.937 0.325,-1.874 0.448,-2.763c-0.21,0.041 -0.428,0.062 -0.655,0.062c-2.375,-0 -3.101,-2.221 -2.653,-4.037c0.311,-1.259 1.194,-2.243 2.328,-2.243c1.298,-0 1.998,0.828 2.239,2.244c0.086,0.51 0.109,1.106 0.085,1.763c0.079,-0.109 0.154,-0.224 0.225,-0.344c0.577,-0.98 0.879,-2.289 0.919,-3.595c0.039,-1.304 -0.183,-2.61 -0.69,-3.588c-0.442,-0.853 -1.103,-1.45 -2.029,-1.45c-1.549,0 -2.839,0.925 -3.836,2.368c-1.613,2.336 -2.458,6.003 -2.325,9.723c0.172,4.792 1.202,9.676 0.64,12.174c-0.18,0.795 -0.517,1.381 -1.013,1.734c-0.352,0.25 -0.789,0.393 -1.332,0.393c-0.937,0 -1.751,-0.577 -2.42,-1.523c-0.85,-1.202 -1.487,-3.017 -1.998,-4.599c-0.32,-0.994 -0.589,-1.889 -0.839,-2.446c-0.01,-0.022 -0.021,-0.045 -0.033,-0.068l-0.029,0.041c-0.299,0.448 -0.636,1.169 -1.005,1.97c-0.696,1.509 -1.502,3.276 -2.332,4.205c-0.474,0.53 -0.983,0.808 -1.469,0.808c-0.571,-0 -1.064,-0.389 -1.355,-1.226c-0.449,-1.292 -0.493,-3.883 -0.461,-6.818c0.038,-3.627 0.173,-7.797 -0.362,-10.554c-0.164,-0.841 -0.384,-1.542 -0.708,-2.029c-0.24,-0.361 -0.536,-0.589 -0.933,-0.589c-0.685,0 -1.162,0.59 -1.546,1.381c-0.71,1.457 -1.012,3.638 -0.977,5.425c0.056,2.964 1.059,4.848 1.059,4.848c0.149,0.277 0.045,0.623 -0.232,0.772c-0.277,0.149 -0.623,0.045 -0.772,-0.232c-0,0 -1.133,-2.082 -1.196,-5.366c-0.037,-1.96 0.314,-4.348 1.092,-5.947c0.608,-1.247 1.491,-2.021 2.572,-2.021c1.209,0 2.066,0.953 2.542,2.62c0.594,2.076 0.664,5.319 0.638,8.563c-0.029,3.659 -0.182,7.319 0.252,9.185c0.062,0.266 0.134,0.49 0.227,0.661c0.051,0.094 0.078,0.187 0.16,0.187c0.119,-0 0.228,-0.072 0.345,-0.164c0.196,-0.155 0.386,-0.379 0.576,-0.646c0.66,-0.924 1.284,-2.325 1.845,-3.541c0.472,-1.025 0.909,-1.926 1.275,-2.377c0.293,-0.361 0.608,-0.498 0.855,-0.498c0.228,0 0.504,0.112 0.738,0.443c0.235,0.332 0.493,1.008 0.772,1.859c0.498,1.523 1.104,3.659 1.987,5.121c0.483,0.8 1.016,1.415 1.732,1.415c0.55,0 0.886,-0.276 1.082,-0.75c0.173,-0.417 0.254,-0.955 0.285,-1.585c0.128,-2.639 -0.656,-6.744 -0.801,-10.785c-0.143,-3.987 0.797,-7.909 2.526,-10.412c1.231,-1.782 2.861,-2.86 4.774,-2.86c1.107,-0 1.987,0.531 2.63,1.401c0.863,1.168 1.283,2.987 1.228,4.811c-0.055,1.82 -0.581,3.634 -1.532,4.798c-0.265,0.325 -0.562,0.602 -0.89,0.82c-0.128,1.095 -0.324,2.276 -0.53,3.457c-0.434,2.495 -0.908,4.988 -0.749,6.584c0.072,0.726 0.223,1.257 0.803,1.257c0.554,-0 0.984,-0.415 1.391,-0.969c0.511,-0.693 0.951,-1.619 1.38,-2.544c0.555,-1.197 1.093,-2.39 1.696,-3.156c0.514,-0.653 1.097,-1.017 1.728,-1.017c0.421,0 0.8,0.27 0.998,0.886c0.243,0.756 0.242,2.238 0.232,3.721c-0.008,1.163 -0.018,2.327 0.14,3.071c0.022,0.104 0.067,0.224 0.102,0.311c0.009,-0.009 0.017,-0.017 0.025,-0.025c0.142,-0.151 0.281,-0.372 0.426,-0.641c0.507,-0.944 1.026,-2.419 1.558,-3.893c0.656,-1.814 1.339,-3.622 2.022,-4.547c0.42,-0.57 0.887,-0.84 1.313,-0.84c0.44,-0 0.818,0.258 1.04,0.841c0.286,0.748 0.319,2.246 0.295,3.944c-0.029,2.021 -0.12,4.345 0.217,5.88c0.077,0.355 0.176,0.663 0.314,0.902c0.129,0.227 0.289,0.385 0.531,0.385c0.187,0 0.382,-0.137 0.61,-0.33c0.502,-0.424 1.054,-1.14 1.634,-2.053c0.74,-1.165 1.515,-2.642 2.261,-4.266c-0.259,-1.602 -0.382,-3.387 -0.372,-5.172c0.008,-1.335 0.09,-2.67 0.243,-3.929c-3.221,0.179 -4.824,0.459 -4.824,0.459c-0.248,0.043 -0.485,-0.123 -0.528,-0.371c-0.043,-0.248 0.123,-0.485 0.371,-0.528c-0,0 1.697,-0.298 5.107,-0.481c0.316,-2.058 0.828,-3.846 1.513,-4.998c0.62,-1.043 1.404,-1.601 2.259,-1.601c0.736,0 1.249,0.454 1.467,1.363c0.224,0.938 0.106,2.485 -0.285,4.351c-0.051,0.244 -0.107,0.493 -0.167,0.748c2.162,-0.013 4.68,0.031 7.554,0.171c0.251,0.012 0.445,0.226 0.433,0.478c-0.012,0.251 -0.226,0.445 -0.478,0.433c-2.962,-0.144 -5.54,-0.186 -7.736,-0.168c-0.769,2.94 -2.019,6.393 -3.378,9.401c0.207,1.166 0.494,2.215 0.868,3.064c0.501,1.14 1.116,1.923 1.988,1.923c0.987,-0 1.96,-0.517 2.846,-1.29c-0.818,-1.573 -1.01,-3.603 -0.744,-5.423c0.211,-1.44 0.707,-2.73 1.363,-3.537c0.524,-0.646 1.159,-1 1.833,-1c0.727,0 1.267,0.232 1.655,0.608c0.542,0.526 0.794,1.379 0.737,2.423c-0.114,2.089 -1.452,5.02 -3.309,7.025l-0.079,0.083c0.668,0.829 1.652,1.366 3.032,1.366c0.975,-0 1.935,-0.614 2.803,-1.499c1.412,-1.442 2.554,-3.624 3.013,-5.52l0.013,-0.057c-0.284,0.042 -0.561,0.069 -0.827,0.069c-1.805,0 -2.511,-1.589 -2.225,-2.87c0.201,-0.897 0.873,-1.628 1.944,-1.628c0.725,0 1.269,0.235 1.663,0.619c0.538,0.524 0.803,1.37 0.783,2.405c0.628,-0.136 1.243,-0.263 1.786,-0.263c0.296,0 0.534,0.135 0.684,0.447c0.083,0.174 0.135,0.466 0.122,0.857c-0.024,0.688 -0.224,1.795 -0.437,3.024c-0.301,1.735 -0.636,3.73 -0.442,5.048c0.084,0.574 0.227,1.023 0.715,1.023c0.029,-0 0.058,-0.023 0.095,-0.043c0.104,-0.054 0.217,-0.136 0.341,-0.24c0.457,-0.383 1.012,-1.031 1.623,-1.857c0.736,-0.994 1.545,-2.242 2.346,-3.616c-0.243,-4.02 -0.168,-9.483 0.986,-12.507c0.619,-1.622 1.578,-2.571 2.819,-2.571c0.594,-0 1.05,0.176 1.392,0.473c0.334,0.29 0.567,0.706 0.685,1.238c0.192,0.862 0.079,2.08 -0.281,3.499c-0.752,2.961 -2.561,6.863 -4.442,10.136c0.009,0.127 0.017,0.251 0.026,0.373c0.07,0.953 0.155,1.797 0.244,2.468c0.319,-1.032 0.751,-2.364 1.462,-3.457c0.81,-1.246 1.97,-2.183 3.671,-2.183c0.779,0 1.442,0.422 1.924,1.117c0.362,0.521 0.619,1.204 0.745,1.932c0.894,-0.49 1.783,-1.036 2.545,-1.676c-0.013,-0.217 -0.022,-0.436 -0.025,-0.659c-0.056,-3.274 0.825,-7.115 2.2,-9.129c0.694,-1.017 1.535,-1.586 2.414,-1.586c0.509,-0 0.896,0.162 1.183,0.43c0.384,0.36 0.598,0.949 0.587,1.721c-0.03,2.336 -2.159,6.674 -4.99,9.514c-0.062,0.062 -0.126,0.124 -0.191,0.185c0.093,0.955 0.287,1.816 0.604,2.492c0.364,0.777 0.888,1.299 1.661,1.299c0.411,-0 0.777,-0.24 1.119,-0.54c0.427,-0.376 0.809,-0.861 1.149,-1.29c0.374,-0.473 0.711,-0.884 0.994,-1.092c0.227,-0.167 0.447,-0.236 0.642,-0.236c0.196,-0 0.391,0.074 0.546,0.29c0.057,0.081 0.117,0.203 0.162,0.368c0.057,0.209 0.101,0.531 0.15,0.915c0.087,0.69 0.192,1.611 0.494,2.358c0.229,0.568 0.57,1.046 1.217,1.046c0.775,0 1.407,-0.535 1.909,-1.293c0.395,-0.595 0.706,-1.33 0.921,-2.116c-0.285,0.046 -0.572,0.073 -0.859,0.073c-2.893,-0 -3.98,-2.592 -3.583,-4.686c0.277,-1.464 1.274,-2.642 2.784,-2.642c1.989,0 3.045,1.905 3.14,4.302c0.017,0.439 0.003,0.893 -0.04,1.349c0.5,-0.204 0.951,-0.431 1.318,-0.606c0.512,-0.243 0.912,-0.385 1.123,-0.385c0.243,0 0.475,0.106 0.638,0.395c0.111,0.197 0.195,0.595 0.258,1.1c0.079,0.634 0.157,1.48 0.443,2.166c0.217,0.523 0.57,0.948 1.239,0.948c0.838,0 1.529,-0.525 2.076,-1.279c0.395,-0.546 0.714,-1.211 0.948,-1.926c-0.288,0.049 -0.572,0.076 -0.85,0.076c-2.876,-0 -4.033,-2.597 -3.582,-4.687c0.311,-1.439 1.363,-2.621 3.08,-2.621c1.918,-0 2.928,1.873 2.958,4.236c0.005,0.442 -0.022,0.898 -0.08,1.357c1.062,-0.452 2.11,-1.096 3.01,-1.65c0.804,-0.496 1.498,-0.932 1.994,-1.15c0.297,-0.131 0.548,-0.19 0.735,-0.19c0.373,0 0.693,0.211 0.803,0.748c0.096,0.472 -0.015,1.421 -0.181,2.494c-0.188,1.222 -0.434,2.627 -0.353,3.556c0.013,0.147 0.034,0.28 0.07,0.393c0.014,0.047 0.017,0.098 0.037,0.127c0.04,-0.038 0.096,-0.095 0.137,-0.147c0.115,-0.148 0.235,-0.339 0.361,-0.563c0.526,-0.936 1.129,-2.398 1.771,-3.859c0.786,-1.791 1.638,-3.575 2.46,-4.488c0.474,-0.527 0.971,-0.789 1.429,-0.789c0.336,0 0.593,0.15 0.769,0.451c0.133,0.227 0.214,0.603 0.209,1.095c-0.011,0.918 -0.283,2.352 -0.544,3.785c-0.245,1.347 -0.484,2.693 -0.435,3.555c0.008,0.129 0.042,0.278 0.067,0.375c0.027,-0.019 0.055,-0.04 0.077,-0.06c0.101,-0.094 0.203,-0.215 0.31,-0.357c0.472,-0.63 0.982,-1.617 1.515,-2.601c0.57,-1.053 1.168,-2.103 1.76,-2.777c0.512,-0.583 1.056,-0.895 1.561,-0.895c0.391,-0 0.73,0.226 0.896,0.769c0.179,0.583 0.142,1.755 0.05,3.081c-0.107,1.546 -0.271,3.324 -0.08,4.499c0.042,0.256 0.099,0.479 0.187,0.652c0.058,0.114 0.122,0.206 0.24,0.206c0.166,0 0.315,-0.107 0.472,-0.253c0.245,-0.23 0.479,-0.563 0.71,-0.967c0.778,-1.358 1.487,-3.466 2.142,-5.512c1.066,-3.329 3.126,-6.446 8.027,-6.625l0.065,-0.305c0.029,-0.136 0.163,-0.222 0.299,-0.193l0.304,0.064c0.136,0.029 0.222,0.163 0.194,0.299l-0.054,0.252c0.003,0.002 0.005,0.005 0.008,0.007l0.238,0.047l0.057,-0.265c0.039,-0.188 0.224,-0.307 0.411,-0.267l0.426,0.091c0.188,0.04 0.307,0.224 0.267,0.412l-0.053,0.247l0.226,0.045l0.05,-0.252c0.043,-0.217 0.251,-0.361 0.47,-0.323l3.851,0.663c0.226,0.038 0.376,0.256 0.331,0.481l-0.012,0.06l0.028,0.006c0.113,0.022 0.196,0.112 0.214,0.22l3.398,0.669c0.155,0.031 0.278,0.133 0.341,0.266l1.154,0.137l0.322,0.429l-0.074,0.38l-0.461,0.274l-1.117,-0.313c-0.109,0.101 -0.263,0.15 -0.42,0.119l-3.397,-0.669c-0.058,0.092 -0.169,0.144 -0.282,0.122l-0.028,-0.006l-0.011,0.061c-0.045,0.225 -0.266,0.369 -0.489,0.32l-3.815,-0.848c-0.217,-0.048 -0.355,-0.26 -0.312,-0.478l0.049,-0.251l-0.243,-0.048l-0.056,0.265c-0.04,0.188 -0.225,0.307 -0.412,0.267l-0.426,-0.091c-0.188,-0.04 -0.307,-0.224 -0.267,-0.411l0.053,-0.248l-0.247,-0.049l-0.058,0.27c-0.029,0.135 -0.163,0.222 -0.298,0.193l-0.304,-0.065c-0.137,-0.029 -0.223,-0.162 -0.194,-0.298l0.028,-0.131Zm-57.39,9.634c-0.43,0.221 -0.842,0.434 -1.22,0.643c-0.563,0.312 -1.047,0.61 -1.387,0.922c-0.229,0.21 -0.399,0.406 -0.399,0.64c-0,0.321 0.191,0.583 0.413,0.746c0.132,0.096 0.275,0.164 0.404,0.164c0.369,0 0.723,-0.293 1.054,-0.68c0.536,-0.628 0.968,-1.545 1.135,-2.435Zm-25.746,-0.665c1.214,-1.366 2.172,-3.156 2.612,-4.742c0.216,-0.778 0.308,-1.504 0.225,-2.095c-0.05,-0.353 -0.158,-0.652 -0.369,-0.856c-0.199,-0.194 -0.487,-0.286 -0.861,-0.286c-0.359,-0 -0.669,0.235 -0.948,0.578c-0.551,0.678 -0.943,1.773 -1.12,2.984c-0.213,1.456 -0.118,3.107 0.461,4.417Zm42.415,-1.406c0.082,-0.572 0.114,-1.149 0.092,-1.699c-0.036,-0.916 -0.218,-1.758 -0.594,-2.369c-0.313,-0.509 -0.772,-0.837 -1.406,-0.837c-0.94,-0 -1.491,0.802 -1.664,1.714c-0.278,1.47 0.43,3.333 2.463,3.333c0.372,-0 0.745,-0.054 1.109,-0.142Zm9.545,-1.203c0.11,-0.592 0.163,-1.191 0.156,-1.76c-0.012,-0.892 -0.168,-1.713 -0.516,-2.308c-0.285,-0.487 -0.708,-0.803 -1.302,-0.803c-1.109,-0 -1.765,0.791 -1.965,1.721c-0.316,1.462 0.456,3.306 2.467,3.306c0.377,0 0.766,-0.057 1.16,-0.156Zm-33.264,-0.994c1.494,-2.797 2.83,-5.85 3.442,-8.261c0.306,-1.206 0.437,-2.238 0.274,-2.971c-0.059,-0.264 -0.154,-0.481 -0.319,-0.625c-0.157,-0.136 -0.373,-0.194 -0.645,-0.194c-0.826,-0 -1.341,0.758 -1.754,1.838c-0.943,2.473 -1.114,6.642 -0.998,10.213Zm11.836,-0.368c1.989,-2.21 3.541,-5.122 3.985,-7.185c0.116,-0.537 0.157,-1.01 0.091,-1.383c-0.032,-0.187 -0.086,-0.343 -0.196,-0.446c-0.096,-0.09 -0.233,-0.123 -0.404,-0.123c-0.342,0 -0.656,0.181 -0.954,0.464c-0.374,0.357 -0.712,0.871 -1.014,1.487c-0.922,1.881 -1.489,4.676 -1.508,7.186Zm-34.884,-8.271c-0.85,0.016 -1.634,0.041 -2.353,0.072c-0.16,1.271 -0.245,2.631 -0.253,3.992c-0.006,1.054 0.035,2.108 0.124,3.12c0.99,-2.385 1.874,-4.927 2.482,-7.184Zm14.01,6.381c0.024,-0.334 0.016,-0.646 -0.03,-0.928c-0.059,-0.369 -0.177,-0.681 -0.397,-0.895c-0.203,-0.199 -0.493,-0.295 -0.867,-0.295c-0.469,-0 -0.743,0.343 -0.831,0.736c-0.146,0.653 0.191,1.481 1.112,1.481c0.323,-0 0.665,-0.04 1.013,-0.099Zm-37.88,-4.839c0.092,-0.975 0.108,-1.853 -0.012,-2.556c-0.129,-0.763 -0.415,-1.295 -1.114,-1.295c-0.645,0 -1.044,0.66 -1.22,1.376c-0.283,1.145 0.048,2.623 1.545,2.623c0.288,0 0.555,-0.052 0.801,-0.148Zm24.105,-2.458c0.083,-0.341 0.159,-0.674 0.226,-0.996c0.347,-1.653 0.491,-3.021 0.292,-3.852c-0.066,-0.274 -0.135,-0.487 -0.358,-0.487c-0.307,-0 -0.577,0.167 -0.829,0.432c-0.332,0.349 -0.619,0.857 -0.875,1.478c-0.391,0.953 -0.696,2.157 -0.912,3.494c0.751,-0.03 1.569,-0.055 2.456,-0.069Z" style="fill:rgb(131,133,136);"/>
                    <path d="M851.875,140.273l3.778,0l-1.746,8.186l5.724,-0l1.746,-8.186l3.778,0l-4.265,20.034l-3.778,0l1.746,-8.242l-5.724,-0l-1.746,8.242l-3.749,0l4.236,-20.034Z" style="fill:rgb(131,133,136);fill-rule:nonzero;"/>
                    <path d="M869.877,154.383c-0.038,0.153 -0.057,0.315 -0.057,0.487c-0,0.686 0.262,1.259 0.787,1.717c0.525,0.458 1.216,0.687 2.075,0.687c0.897,-0 1.612,-0.163 2.146,-0.487c0.535,-0.324 0.945,-0.706 1.231,-1.145l2.862,1.803c-0.229,0.382 -0.529,0.764 -0.901,1.145c-0.372,0.382 -0.83,0.73 -1.374,1.045c-0.544,0.315 -1.183,0.572 -1.918,0.773c-0.734,0.2 -1.588,0.3 -2.561,0.3c-0.878,0 -1.684,-0.138 -2.419,-0.415c-0.734,-0.277 -1.364,-0.658 -1.889,-1.145c-0.524,-0.486 -0.935,-1.068 -1.23,-1.746c-0.296,-0.677 -0.444,-1.426 -0.444,-2.246c0,-1.298 0.196,-2.519 0.587,-3.664c0.391,-1.144 0.959,-2.146 1.703,-3.005c0.744,-0.858 1.66,-1.536 2.747,-2.032c1.088,-0.496 2.338,-0.744 3.75,-0.744c0.992,0 1.855,0.157 2.59,0.472c0.734,0.315 1.34,0.735 1.817,1.26c0.477,0.524 0.835,1.121 1.073,1.788c0.239,0.668 0.358,1.355 0.358,2.061c0,0.229 -0.014,0.463 -0.043,0.701c-0.028,0.239 -0.081,0.549 -0.157,0.93l-0.315,1.46l-10.418,-0Zm4.522,-5.409c-0.897,-0 -1.674,0.224 -2.332,0.672c-0.659,0.449 -1.15,0.997 -1.474,1.646l6.697,-0c-0,-0.725 -0.224,-1.293 -0.673,-1.703c-0.448,-0.41 -1.187,-0.615 -2.218,-0.615Z" style="fill:rgb(131,133,136);fill-rule:nonzero;"/>
                    <path d="M893.346,159.964c-0.382,0.267 -0.773,0.458 -1.174,0.572c-0.4,0.115 -0.791,0.172 -1.173,0.172c-0.42,0 -0.82,-0.071 -1.202,-0.215c-0.382,-0.143 -0.716,-0.343 -1.002,-0.601c-0.286,-0.257 -0.51,-0.572 -0.672,-0.944c-0.163,-0.372 -0.244,-0.787 -0.244,-1.245c0,-0.343 0.039,-0.677 0.115,-1.002l3.12,-13.022l-0.287,-0.2l-3.835,2.633l-1.803,-2.691l4.15,-2.804c0.382,-0.268 0.773,-0.458 1.173,-0.573c0.401,-0.114 0.792,-0.172 1.174,-0.172c0.42,0 0.82,0.072 1.202,0.215c0.382,0.143 0.715,0.344 1.002,0.601c0.286,0.258 0.51,0.573 0.672,0.945c0.162,0.372 0.244,0.787 0.244,1.245c-0,0.305 -0.039,0.639 -0.115,1.001l-3.12,13.023l0.287,0.2l3.835,-2.633l1.803,2.69l-4.15,2.805Z" style="fill:rgb(131,133,136);fill-rule:nonzero;"/>
                    <path d="M911.062,159.964c-0.382,0.267 -0.773,0.458 -1.173,0.572c-0.401,0.115 -0.792,0.172 -1.174,0.172c-0.42,0 -0.82,-0.071 -1.202,-0.215c-0.382,-0.143 -0.715,-0.343 -1.002,-0.601c-0.286,-0.257 -0.51,-0.572 -0.672,-0.944c-0.162,-0.372 -0.244,-0.787 -0.244,-1.245c0,-0.363 0.039,-0.696 0.115,-1.002l1.717,-7.183l-0.286,-0.201l-3.835,2.633l-1.803,-2.69l4.15,-2.805c0.381,-0.267 0.772,-0.458 1.173,-0.572c0.401,-0.115 0.792,-0.172 1.174,-0.172c0.419,0 0.82,0.072 1.202,0.215c0.381,0.143 0.715,0.343 1.001,0.601c0.287,0.257 0.511,0.572 0.673,0.944c0.162,0.372 0.243,0.787 0.243,1.245c0,0.363 -0.038,0.697 -0.114,1.002l-1.718,7.184l0.287,0.2l3.835,-2.633l1.803,2.69l-4.15,2.805Zm2.49,-18.06c-0,0.382 -0.072,0.74 -0.215,1.074c-0.143,0.334 -0.338,0.62 -0.586,0.858c-0.248,0.239 -0.539,0.43 -0.873,0.573c-0.334,0.143 -0.682,0.214 -1.045,0.214c-0.382,0 -0.735,-0.071 -1.059,-0.214c-0.324,-0.143 -0.611,-0.334 -0.859,-0.573c-0.248,-0.238 -0.443,-0.524 -0.586,-0.858c-0.143,-0.334 -0.215,-0.692 -0.215,-1.074c0,-0.381 0.072,-0.739 0.215,-1.073c0.143,-0.334 0.338,-0.62 0.586,-0.858c0.248,-0.239 0.535,-0.43 0.859,-0.573c0.324,-0.143 0.677,-0.214 1.059,-0.214c0.363,-0 0.711,0.071 1.045,0.214c0.334,0.143 0.625,0.334 0.873,0.573c0.248,0.238 0.443,0.524 0.586,0.858c0.143,0.334 0.215,0.692 0.215,1.073Z" style="fill:rgb(131,133,136);fill-rule:nonzero;"/>
                    <path d="M924.084,146.112l-1.774,8.242c-0.077,0.325 -0.115,0.64 -0.115,0.945c0,0.725 0.201,1.264 0.601,1.617c0.401,0.353 0.935,0.529 1.603,0.529c1.011,0 1.789,-0.329 2.333,-0.987c0.543,-0.658 0.949,-1.588 1.216,-2.791l1.603,-7.555l3.606,-0l-2.347,10.818l0.315,0.172l1.03,-0.744l1.803,2.633l-1.345,0.973c-0.362,0.267 -0.739,0.458 -1.13,0.572c-0.391,0.115 -0.778,0.172 -1.159,0.172c-0.783,0 -1.47,-0.224 -2.061,-0.672c-0.592,-0.449 -0.926,-1.102 -1.002,-1.961l-0.515,0c-0.42,0.973 -0.987,1.655 -1.703,2.046c-0.715,0.392 -1.522,0.587 -2.418,0.587c-1.241,0 -2.252,-0.377 -3.034,-1.13c-0.782,-0.754 -1.174,-1.808 -1.174,-3.163c0,-0.477 0.058,-0.992 0.172,-1.545l1.889,-8.758l3.606,-0Z" style="fill:rgb(131,133,136);fill-rule:nonzero;"/>
                    <path d="M947.553,150.348c0.038,-0.153 0.057,-0.287 0.057,-0.401c0,-0.534 -0.257,-0.802 -0.772,-0.802c-0.306,0 -0.535,0.101 -0.687,0.301c-0.153,0.2 -0.258,0.444 -0.315,0.73l-2.175,10.131l-3.607,0l2.118,-9.959c0.039,-0.191 0.058,-0.325 0.058,-0.401c-0,-0.534 -0.248,-0.802 -0.744,-0.802c-0.554,0 -0.897,0.344 -1.031,1.031l-2.175,10.131l-3.578,0l3.006,-14.195l3.606,-0l-0.286,1.373l0.515,0c0.152,-0.591 0.439,-1.035 0.858,-1.33c0.42,-0.296 0.897,-0.444 1.431,-0.444c0.63,0 1.107,0.172 1.431,0.515c0.325,0.344 0.535,0.763 0.63,1.259l0.515,0c0.21,-0.515 0.53,-0.939 0.959,-1.273c0.429,-0.334 0.987,-0.501 1.674,-0.501c0.802,0 1.417,0.258 1.846,0.773c0.43,0.515 0.644,1.135 0.644,1.86c0,0.134 -0.004,0.253 -0.014,0.358c-0.01,0.105 -0.033,0.234 -0.072,0.386l-1.688,7.814l0.286,0.2l0.973,-0.687l1.803,2.69l-1.288,0.859c-0.381,0.267 -0.768,0.458 -1.159,0.572c-0.391,0.115 -0.777,0.172 -1.159,0.172c-0.42,0 -0.816,-0.071 -1.188,-0.215c-0.372,-0.143 -0.701,-0.348 -0.987,-0.615c-0.286,-0.267 -0.511,-0.596 -0.673,-0.987c-0.162,-0.391 -0.243,-0.835 -0.243,-1.331c0,-0.267 0.038,-0.592 0.114,-0.973l1.317,-6.239Z" style="fill:rgb(131,133,136);fill-rule:nonzero;"/>
                    <circle cx="900.229" cy="336.446" r="19.083" style="fill:rgb(203,202,190);"/>
                    <circle cx="900.229" cy="530.983" r="19.083" style="fill:rgb(203,202,190);"/>
                    <circle cx="900.229" cy="728.998" r="19.083" style="fill:rgb(203,202,190);"/>
                    <circle cx="900.229" cy="923.15" r="19.083" style="fill:rgb(250,217,164);"/>
                    <path d="M900.323,322.366c4.245,7.415 8.53,14.837 12.829,22.22c-8.543,-0.032 -17.114,-0.032 -25.657,0c4.299,-7.383 8.584,-14.805 12.828,-22.22Z" style="fill:rgb(131,133,136);"/>
                    <path d="M900.229,516.217l14.814,14.813l-14.814,14.814l-14.813,-14.814l14.813,-14.813Z" style="fill:rgb(131,133,136);"/>
                    <path d="M900.323,714.029l14.089,10.235l-5.381,16.562l-17.415,0l-5.381,-16.562l14.088,-10.235Z" style="fill:rgb(131,133,136);"/>
                    <path d="M900.229,908.337l12.829,7.406l-0,14.814l-12.829,7.407l-12.829,-7.407l0,-14.814l12.829,-7.406Z" style="fill:rgb(250,193,105);"/>
                </g>
            </g>
        </g>
        <g id="Drills">
        </g>
        <g id="Silk">
        </g>
        <g id="LEDs">
        </g>
    </g>
    <g id="Left-in" serif:id="Left in">
        <path d="M1132.19,887.998l-5.339,0.002l-0.142,4.523l-20.66,0.007l0.142,-4.523l-5.379,0.002l-0.161,5.149l-7.602,0.002c-0.484,1.679 -2.074,2.924 -3.919,2.925l-69.677,0.023c-2.177,0.001 -3.891,-1.733 -3.824,-3.869l0.061,-1.926l-2.711,0.001l0.195,-6.207l-41.795,0.014l0.025,-0.781l-5.184,0.001c-1.216,0.001 -2.173,-0.968 -2.135,-2.161l-0.018,0.564l-14.75,0.82l-5.405,-4.367l0.156,-5.234l5.543,-4.347l14.823,1.454l0.008,-0.276c0.038,-1.193 1.056,-2.162 2.272,-2.163l5.183,-0.002l0.016,-0.507l41.795,-0.014l0.194,-6.193l2.711,-0.001l0.063,-1.988c0.067,-2.136 1.89,-3.872 4.067,-3.872l69.677,-0.024c1.775,-0 3.242,1.151 3.687,2.734l7.656,-0.003l-0.167,5.313l5.378,-0.002l0.144,-4.578l20.66,-0.007l-0.143,4.578l5.339,-0.002l-0.755,24.002l0.899,-28.58l19.526,-0.007c0.632,-0 1.128,0.503 1.109,1.122l-0.365,31.792c-0.02,0.619 -0.549,1.122 -1.18,1.123l-20.16,0.006l0.142,-4.523Zm21.304,-0.007l0.15,-24.935l-0.15,24.935Z" style="fill:rgb(66,141,148);"/>
        <path d="M962.356,866.726c0.986,-1.338 2.578,-2.219 4.358,-2.22l3.491,-0.001c0.492,-0.322 1.079,-0.508 1.708,-0.508c0,-0 38.767,-0.013 38.767,-0.013l0.1,-3.167c0.05,-1.607 1.306,-2.898 2.883,-3.018c0.606,-3.308 3.573,-5.869 7.08,-5.87l69.677,-0.024c2.3,-0.001 4.304,1.075 5.562,2.733l5.781,-0.002c0.846,0 1.656,0.343 2.245,0.95c0.279,0.288 0.497,0.624 0.646,0.987c0.572,-0.734 1.465,-1.204 2.464,-1.204l20.66,-0.007c0.846,-0.001 1.656,0.342 2.245,0.95c0.163,0.168 0.305,0.352 0.425,0.549c0.549,-0.901 1.541,-1.501 2.669,-1.501l19.527,-0.007c2.416,-0.001 4.289,1.943 4.235,4.303l-0.184,15.996l-0.075,12.358c-0.001,0.229 -0.027,0.452 -0.075,0.667l-0.032,2.751c0,0.02 -0,0.041 -0.001,0.062c-0.071,2.274 -1.984,4.149 -4.302,4.15l-20.16,0.006c-0.846,0.001 -1.656,-0.342 -2.245,-0.95c-0.163,-0.168 -0.305,-0.352 -0.425,-0.549c-0.549,0.902 -1.541,1.501 -2.669,1.501l-20.66,0.007c-0.846,0 -1.656,-0.342 -2.245,-0.95c-0.1,-0.103 -0.192,-0.213 -0.277,-0.327c-0.476,1.121 -1.587,1.904 -2.876,1.905c-0,-0 -5.725,0.002 -5.725,0.001c-1.316,1.766 -3.435,2.925 -5.796,2.926l-69.677,0.023c-3.531,0.001 -6.37,-2.521 -6.873,-5.819c-0.698,-0.089 -1.351,-0.413 -1.846,-0.924c-0.589,-0.608 -0.906,-1.428 -0.88,-2.274l0.094,-2.983l-38.569,0.013c-0.764,0 -1.498,-0.279 -2.067,-0.781l-3.091,0.001c-1.466,0.001 -2.773,-0.574 -3.718,-1.505l-13.013,0.724c-0.773,0.043 -1.535,-0.203 -2.138,-0.69l-5.405,-4.368c-0.759,-0.613 -1.188,-1.547 -1.159,-2.523l0.155,-5.234c0.028,-0.927 0.466,-1.794 1.196,-2.366l5.543,-4.347c0.633,-0.496 1.433,-0.729 2.233,-0.651l12.439,1.22Zm191.398,-7.126c0.019,-0.619 -0.477,-1.122 -1.109,-1.122l-19.526,0.007l-0.144,4.578l-5.339,0.002l0.143,-4.578l-20.66,0.007l-0.144,4.578l-5.378,0.002l0.167,-5.313l-7.656,0.003c-0.445,-1.583 -1.912,-2.734 -3.687,-2.734l-69.677,0.024c-2.177,0 -4,1.736 -4.067,3.872l-0.063,1.988l-2.711,0.001l-0.194,6.193l-41.795,0.014l-0.016,0.507l-5.183,0.002c-1.216,0.001 -2.234,0.97 -2.272,2.163l-0.008,0.276l-14.823,-1.454l-5.543,4.347l-0.156,5.234l5.405,4.367l14.75,-0.82l0.018,-0.564c-0.038,1.193 0.919,2.162 2.135,2.161l5.184,-0.001l-0.025,0.781l41.795,-0.014l-0.195,6.207l2.711,-0.001l-0.061,1.926c-0.067,2.136 1.647,3.87 3.824,3.869l69.677,-0.023c1.845,-0.001 3.435,-1.246 3.919,-2.925l7.602,-0.002l0.161,-5.149l5.379,-0.002l-0.142,4.523l20.66,-0.007l0.142,-4.523l5.339,-0.002l-0.142,4.523l20.16,-0.006c0.631,-0.001 1.16,-0.504 1.18,-1.123l0.365,-31.792Z" style="fill:white;"/>
        <rect x="967.566" y="867.63" width="3.964" height="15.71" style="fill:rgb(35,31,32);"/>
        <rect x="1150.27" y="865.602" width="211.005" height="19.934" style="fill:rgb(66,141,148);"/>
    </g>
    <g id="Left-in1" serif:id="Left in">
        <path d="M668.118,957.627l5.339,-0.002l0.143,-4.523l20.66,-0.007l-0.142,4.523l5.378,-0.002l0.162,-5.148l7.602,-0.003c0.484,-1.679 2.073,-2.924 3.918,-2.925l69.677,-0.023c2.178,-0.001 3.891,1.733 3.824,3.87l-0.06,1.925l2.711,-0.001l-0.195,6.207l41.794,-0.014l-0.024,0.782l5.183,-0.002c1.216,-0 2.173,0.968 2.136,2.161l0.018,-0.564l14.749,-0.82l5.405,4.368l-0.156,5.233l-5.543,4.347l-14.822,-1.453l-0.009,0.275c-0.037,1.194 -1.055,2.163 -2.272,2.163l-5.183,0.002l-0.016,0.508l-41.794,0.014l-0.195,6.193l-2.711,0.001l-0.062,1.987c-0.068,2.137 -1.89,3.872 -4.068,3.873l-69.677,0.023c-1.775,0.001 -3.241,-1.151 -3.687,-2.734l-7.655,0.003l0.167,-5.313l-5.379,0.002l-0.144,4.579l-20.66,0.007l0.144,-4.579l-5.339,0.002l0.754,-24.002l-0.898,28.58l-19.527,0.007c-0.631,0 -1.128,-0.502 -1.109,-1.122l0.366,-31.791c0.019,-0.62 0.548,-1.123 1.179,-1.123l20.16,-0.007l-0.142,4.523Zm-21.304,0.007l-0.15,24.935l0.15,-24.935Z" style="fill:rgb(216,78,90);"/>
        <path d="M643.615,969.973l0.074,-12.358l0.068,0.001l0.039,-3.418c0,-0.021 0.001,-0.042 0.002,-0.062c0.071,-2.274 1.984,-4.149 4.301,-4.15l20.16,-0.007c0.846,-0 1.656,0.342 2.245,0.95c0.163,0.168 0.305,0.352 0.425,0.549c0.549,-0.901 1.541,-1.5 2.67,-1.501l20.66,-0.007c0.846,-0 1.656,0.343 2.244,0.95c0.101,0.103 0.193,0.213 0.277,0.328c0.476,-1.122 1.587,-1.905 2.877,-1.905c-0,-0 5.725,-0.002 5.725,-0.002c1.315,-1.766 3.435,-2.925 5.795,-2.926l69.677,-0.023c3.532,-0.001 6.37,2.521 6.873,5.819c0.699,0.09 1.351,0.413 1.847,0.925c0.589,0.607 0.906,1.427 0.879,2.273l-0.093,2.983l38.568,-0.013c0.764,-0 1.499,0.279 2.068,0.781l3.091,-0.001c1.466,-0 2.773,0.574 3.717,1.505l13.014,-0.723c0.773,-0.043 1.535,0.202 2.137,0.689l5.405,4.368c0.76,0.614 1.189,1.547 1.16,2.523l-0.156,5.234c-0.028,0.927 -0.465,1.794 -1.195,2.366l-5.543,4.347c-0.633,0.496 -1.433,0.73 -2.234,0.651l-12.439,-1.22c-0.985,1.339 -2.577,2.22 -4.358,2.22l-3.491,0.001c-0.491,0.322 -1.078,0.508 -1.708,0.509c0,-0 -38.767,0.013 -38.767,0.013l-0.099,3.167c-0.051,1.606 -1.307,2.898 -2.884,3.018c-0.606,3.308 -3.572,5.868 -7.08,5.87l-69.677,0.023c-2.299,0.001 -4.303,-1.075 -5.561,-2.733l-5.781,0.002c-0.846,0 -1.656,-0.343 -2.245,-0.95c-0.279,-0.288 -0.497,-0.623 -0.647,-0.987c-0.572,0.734 -1.464,1.204 -2.464,1.205l-20.66,0.007c-0.846,-0 -1.656,-0.343 -2.245,-0.95c-0.163,-0.168 -0.305,-0.353 -0.425,-0.549c-0.549,0.901 -1.541,1.5 -2.669,1.5l-19.527,0.007c-2.415,0.001 -4.288,-1.942 -4.234,-4.303l0.184,-15.996Zm193.251,8.82l-0.772,-0.076l-0.228,0.239c0.35,0 0.686,-0.057 1,-0.163Zm-169.531,3.769l5.339,-0.002l-0.144,4.579l20.66,-0.007l0.144,-4.579l5.379,-0.002l-0.167,5.313l7.655,-0.003c0.446,1.583 1.912,2.735 3.687,2.734l69.677,-0.023c2.178,-0.001 4,-1.736 4.068,-3.873l0.062,-1.987l2.711,-0.001l0.195,-6.193l41.794,-0.014l0.016,-0.508l5.183,-0.002c0.459,0 0.89,-0.138 1.25,-0.374l1.031,1.061l2.935,-2.838l0.014,0.002l-2.685,2.825c1.495,-0.126 2.7,-1.306 2.846,-2.809l11.712,1.148l5.543,-4.347l0.156,-5.233l-5.405,-4.368l-14.749,0.82l-0.018,0.564c0.037,-1.193 -0.92,-2.161 -2.136,-2.161l-5.183,0.002l0.024,-0.782l-41.794,0.014l0.195,-6.207l-2.711,0.001l0.06,-1.925c0.067,-2.137 -1.646,-3.871 -3.824,-3.87l-69.677,0.023c-1.845,0.001 -3.434,1.246 -3.918,2.925l-7.602,0.003l-0.162,5.148l-5.378,0.002l0.142,-4.523l-20.66,0.007l-0.143,4.523l-5.339,0.002l0.142,-4.523l-20.16,0.007c-0.631,-0 -1.16,0.503 -1.179,1.123l-0.366,31.791c-0.019,0.62 0.478,1.122 1.109,1.122l19.527,-0.007l0.144,-4.578Z" style="fill:white;"/>
        <rect x="828.78" y="962.285" width="3.964" height="15.71" style="fill:rgb(35,31,32);"/>
        <rect x="439.033" y="960.089" width="211.005" height="19.934" style="fill:rgb(216,78,90);"/>
    </g>
    <g id="Right-in" serif:id="Right in">
        <path d="M668.118,863.14l5.339,-0.002l0.143,-4.523l20.66,-0.007l-0.142,4.523l5.378,-0.001l0.162,-5.149l7.602,-0.003c0.484,-1.679 2.073,-2.924 3.918,-2.924l69.677,-0.024c2.178,-0 3.891,1.733 3.824,3.87l-0.06,1.925l2.711,-0.001l-0.195,6.207l41.794,-0.014l-0.024,0.782l5.183,-0.002c1.216,-0 2.173,0.968 2.136,2.162l0.018,-0.565l14.749,-0.82l5.405,4.368l-0.156,5.234l-5.543,4.346l-14.822,-1.453l-0.009,0.276c-0.037,1.193 -1.055,2.162 -2.272,2.162l-5.183,0.002l-0.016,0.508l-41.794,0.014l-0.195,6.193l-2.711,0.001l-0.062,1.987c-0.068,2.137 -1.89,3.872 -4.068,3.873l-69.677,0.023c-1.775,0.001 -3.241,-1.151 -3.687,-2.734l-7.655,0.003l0.167,-5.312l-5.379,0.001l-0.144,4.579l-20.66,0.007l0.144,-4.579l-5.339,0.002l0.754,-24.002l-0.898,28.581l-19.527,0.006c-0.631,0.001 -1.128,-0.502 -1.109,-1.122l0.366,-31.791c0.019,-0.62 0.548,-1.123 1.179,-1.123l20.16,-0.007l-0.142,4.523Zm-21.304,0.007l-0.15,24.935l0.15,-24.935Z" style="fill:rgb(125,97,170);"/>
        <path d="M643.615,875.486l0.074,-12.358l0.068,0.001l0.039,-3.418c0,-0.021 0.001,-0.041 0.002,-0.062c0.071,-2.274 1.984,-4.149 4.301,-4.15l20.16,-0.007c0.846,-0 1.656,0.343 2.245,0.95c0.163,0.168 0.305,0.353 0.425,0.549c0.549,-0.901 1.541,-1.5 2.67,-1.501l20.66,-0.007c0.846,0 1.656,0.343 2.244,0.95c0.101,0.104 0.193,0.213 0.277,0.328c0.476,-1.122 1.587,-1.905 2.877,-1.905c-0,-0 5.725,-0.002 5.725,-0.002c1.315,-1.765 3.435,-2.924 5.795,-2.925l69.677,-0.024c3.532,-0.001 6.37,2.522 6.873,5.819c0.699,0.09 1.351,0.414 1.847,0.925c0.589,0.607 0.906,1.428 0.879,2.273l-0.093,2.983l38.568,-0.013c0.764,0 1.499,0.28 2.068,0.781l3.091,-0.001c1.466,-0 2.773,0.575 3.717,1.505l13.014,-0.723c0.773,-0.043 1.535,0.203 2.137,0.689l5.405,4.368c0.76,0.614 1.189,1.548 1.16,2.524l-0.156,5.233c-0.028,0.927 -0.465,1.794 -1.195,2.367l-5.543,4.346c-0.633,0.497 -1.433,0.73 -2.234,0.651l-12.439,-1.219c-0.985,1.338 -2.577,2.219 -4.358,2.219l-3.491,0.002c-0.491,0.321 -1.078,0.508 -1.708,0.508c0,-0 -38.767,0.013 -38.767,0.013l-0.099,3.167c-0.051,1.606 -1.307,2.898 -2.884,3.018c-0.606,3.308 -3.572,5.869 -7.08,5.87l-69.677,0.023c-2.299,0.001 -4.303,-1.075 -5.561,-2.733l-5.781,0.002c-0.846,0 -1.656,-0.342 -2.245,-0.95c-0.279,-0.288 -0.497,-0.623 -0.647,-0.986c-0.572,0.733 -1.464,1.204 -2.464,1.204l-20.66,0.007c-0.846,0 -1.656,-0.343 -2.245,-0.95c-0.163,-0.168 -0.305,-0.353 -0.425,-0.549c-0.549,0.901 -1.541,1.5 -2.669,1.501l-19.527,0.006c-2.415,0.001 -4.288,-1.942 -4.234,-4.302l0.184,-15.997Zm193.251,8.82l-0.772,-0.076l-0.228,0.24c0.35,-0 0.686,-0.058 1,-0.164Zm-169.531,3.769l5.339,-0.002l-0.144,4.579l20.66,-0.007l0.144,-4.579l5.379,-0.001l-0.167,5.312l7.655,-0.003c0.446,1.583 1.912,2.735 3.687,2.734l69.677,-0.023c2.178,-0.001 4,-1.736 4.068,-3.873l0.062,-1.987l2.711,-0.001l0.195,-6.193l41.794,-0.014l0.016,-0.508l5.183,-0.002c0.459,0 0.89,-0.138 1.25,-0.374l1.031,1.061l2.935,-2.837l0.014,0.001l-2.685,2.825c1.495,-0.125 2.7,-1.305 2.846,-2.809l11.712,1.148l5.543,-4.346l0.156,-5.234l-5.405,-4.368l-14.749,0.82l-0.018,0.565c0.037,-1.194 -0.92,-2.162 -2.136,-2.162l-5.183,0.002l0.024,-0.782l-41.794,0.014l0.195,-6.207l-2.711,0.001l0.06,-1.925c0.067,-2.137 -1.646,-3.87 -3.824,-3.87l-69.677,0.024c-1.845,0 -3.434,1.245 -3.918,2.924l-7.602,0.003l-0.162,5.149l-5.378,0.001l0.142,-4.523l-20.66,0.007l-0.143,4.523l-5.339,0.002l0.142,-4.523l-20.16,0.007c-0.631,0 -1.16,0.503 -1.179,1.123l-0.366,31.791c-0.019,0.62 0.478,1.123 1.109,1.122l19.527,-0.006l0.144,-4.579Z" style="fill:white;"/>
        <rect x="828.78" y="867.799" width="3.964" height="15.71" style="fill:rgb(35,31,32);"/>
        <rect x="439.033" y="865.602" width="211.005" height="19.934" style="fill:rgb(125,97,170);"/>
    </g>
</svg>
