<?xml version="1.0" encoding="UTF-8" standalone="no"?>
<!DOCTYPE svg PUBLIC "-//W3C//DTD SVG 1.1//EN" "http://www.w3.org/Graphics/SVG/1.1/DTD/svg11.dtd">
<svg width="100%" height="100%" viewBox="0 0 1801 1201" version="1.1" xmlns="http://www.w3.org/2000/svg" xmlns:xlink="http://www.w3.org/1999/xlink" xml:space="preserve" xmlns:serif="http://www.serif.com/" style="fill-rule:evenodd;clip-rule:evenodd;stroke-linecap:round;stroke-linejoin:round;stroke-miterlimit:1.5;">
    <rect id="one-channel" x="0.424" y="0.163" width="1800" height="1200" style="fill:white;"/>
    <g id="Helium">
        <g id="Gold">
            <g id="Rings">
                <g>
                    <circle cx="856.555" cy="288.694" r="37.864" style="fill:rgb(203,202,190);"/>
                    <circle cx="856.555" cy="483.404" r="37.864" style="fill:rgb(203,202,190);"/>
                    <circle cx="944.292" cy="875.525" r="37.864" style="fill:rgb(203,202,190);"/>
                    <circle cx="856.555" cy="970.011" r="37.864" style="fill:rgb(203,202,190);"/>
                    <circle cx="856.555" cy="875.525" r="37.864" style="fill:rgb(203,202,190);"/>
                    <circle cx="856.555" cy="680.477" r="37.864" style="fill:rgb(203,202,190);"/>
                    <g>
                        <path d="M908.247,227.925c0.002,-1.678 -2.263,-3.666 -4.025,-3.667l-7.24,-0.226c-1.762,-0.002 -3.461,1.764 -3.462,3.441c-0.001,1.678 0.783,2.618 2.545,2.619l9.164,0.006c1.762,0.002 3.017,-0.496 3.018,-2.173Z" style="fill:rgb(203,202,190);"/>
                        <path d="M906.741,229.422c0.001,-1.447 -1.524,-2.356 -3.045,-2.357l-5.545,-0c-1.521,-0.001 -3.048,0.864 -3.049,2.312c-0.001,1.448 0.941,2.856 2.519,3.343c2.279,0.702 4.557,0.499 6.836,-0.454c1.521,0.001 2.283,-1.396 2.284,-2.844Z" style="fill:rgb(203,202,190);"/>
                        <path d="M900.95,169.207c15.422,0 25.286,10.3 25.286,26.553c-0,16.253 -14.31,29.51 -24.915,34.338c-10.582,-5.659 -26.561,-16.735 -26.561,-32.988c-0,-16.253 10.768,-27.903 26.19,-27.903Zm-20.371,26.176c0.991,-0.012 1.566,0.543 2.719,3.035c0.955,2.066 1.012,8.068 2.608,11.789c1.695,3.954 8.181,10.056 8.601,11.46c0.858,2.863 -7.741,-5.414 -10.57,-9.25c-3.169,-4.295 -8.37,-15.827 -3.358,-17.034Zm41.483,-8.511c0.789,-0 1.43,0.643 1.43,1.436c-0,0.792 -0.641,1.436 -1.43,1.436c-0.789,-0 -1.43,-0.644 -1.43,-1.436c-0,-0.793 0.641,-1.436 1.43,-1.436Zm-12.925,-14.415c2.881,-0.988 11.519,7.386 11.276,10.093c-0.083,0.929 -0.72,2.881 -1.72,2.677c-1.929,-0.394 -8.998,-3.008 -9.855,-5.04c-0.725,-1.72 -2.985,-6.604 0.299,-7.73Z" style="fill:rgb(203,202,190);"/>
                    </g>
                    <path id="EdgeCuts" d="M980.211,87.91l-159.426,-0l-0,1024.51l159.426,0l0,-1024.51Zm-99.622,987.747c7.086,-0 12.838,5.752 12.838,12.838c0,7.085 -5.752,12.838 -12.838,12.838c-7.085,-0 -12.838,-5.753 -12.838,-12.838c0,-7.086 5.753,-12.838 12.838,-12.838Zm0,-976.663c7.086,-0 12.838,5.752 12.838,12.838c0,7.085 -5.752,12.838 -12.838,12.838c-7.085,-0 -12.838,-5.753 -12.838,-12.838c0,-7.086 5.753,-12.838 12.838,-12.838Z" style="fill:none;stroke:rgb(12,12,12);stroke-width:4.17px;"/>
                    <g id="Jack">
                        <path d="M889.036,381.802c0.143,0.248 0.143,0.554 0,0.801c-1.838,3.184 -14.056,24.346 -15.894,27.529c-0.143,0.248 -0.407,0.401 -0.693,0.401c-3.676,-0 -28.112,0.001 -31.788,0.001c-0.286,0 -0.551,-0.152 -0.694,-0.4c-1.838,-3.183 -14.056,-24.344 -15.894,-27.528c-0.143,-0.247 -0.143,-0.553 0,-0.801c1.838,-3.183 14.056,-24.345 15.894,-27.528c0.143,-0.248 0.408,-0.401 0.694,-0.401c3.675,-0 28.112,-0.001 31.787,-0.001c0.287,-0 0.551,0.152 0.694,0.4c1.838,3.183 14.056,24.344 15.894,27.527Z" style="fill:rgb(254,255,254);stroke:rgb(17,18,24);stroke-width:4.17px;"/>
                        <ellipse cx="856.555" cy="382.204" rx="17.08" ry="17.079" style="fill:rgb(131,133,136);"/>
                        <path d="M856.555,362.393c10.935,-0 19.812,8.877 19.812,19.811c0,10.935 -8.877,19.812 -19.812,19.812c-10.935,0 -19.813,-8.877 -19.813,-19.812c0,-10.934 8.878,-19.811 19.813,-19.811Zm-0,2.732c-9.427,0 -17.08,7.653 -17.08,17.079c-0,9.427 7.653,17.079 17.08,17.079c9.426,0 17.08,-7.652 17.08,-17.079c-0,-9.426 -7.654,-17.079 -17.08,-17.079Z" style="fill:rgb(131,133,136);"/>
                    </g>
                    <g id="Jack1" serif:id="Jack">
                        <path d="M976.554,381.802c0.143,0.248 0.143,0.554 -0,0.801c-1.838,3.184 -14.056,24.346 -15.894,27.529c-0.143,0.248 -0.408,0.401 -0.694,0.401c-3.676,-0 -28.112,0.001 -31.788,0.001c-0.286,0 -0.55,-0.152 -0.694,-0.4c-1.837,-3.183 -14.055,-24.344 -15.893,-27.528c-0.143,-0.247 -0.143,-0.553 -0,-0.801c1.838,-3.183 14.056,-24.345 15.893,-27.528c0.144,-0.248 0.408,-0.401 0.694,-0.401c3.676,-0 28.112,-0.001 31.788,-0.001c0.286,-0 0.551,0.152 0.694,0.4c1.838,3.183 14.056,24.344 15.894,27.527Z" style="fill:rgb(254,255,254);stroke:rgb(17,18,24);stroke-width:4.17px;"/>
                        <ellipse cx="944.072" cy="382.204" rx="17.08" ry="17.079" style="fill:rgb(131,133,136);"/>
                        <path d="M944.072,362.393c10.935,-0 19.813,8.877 19.813,19.811c-0,10.935 -8.878,19.812 -19.813,19.812c-10.935,0 -19.813,-8.877 -19.813,-19.812c0,-10.934 8.878,-19.811 19.813,-19.811Zm0,2.732c-9.427,0 -17.08,7.653 -17.08,17.079c0,9.427 7.653,17.079 17.08,17.079c9.427,0 17.08,-7.652 17.08,-17.079c0,-9.426 -7.653,-17.079 -17.08,-17.079Z" style="fill:rgb(131,133,136);"/>
                    </g>
                    <g id="Jack2" serif:id="Jack">
                        <path d="M889.036,483.057c0.143,0.248 0.143,0.554 0,0.802c-1.838,3.183 -14.056,24.345 -15.894,27.528c-0.143,0.248 -0.407,0.401 -0.693,0.401c-3.676,0 -28.112,0.001 -31.788,0.001c-0.286,0 -0.551,-0.152 -0.694,-0.4c-1.838,-3.183 -14.056,-24.344 -15.894,-27.527c-0.143,-0.248 -0.143,-0.554 0,-0.802c1.838,-3.183 14.056,-24.345 15.894,-27.528c0.143,-0.248 0.408,-0.401 0.694,-0.401c3.675,-0 28.112,-0.001 31.787,-0.001c0.287,-0 0.551,0.152 0.694,0.4c1.838,3.183 14.056,24.344 15.894,27.527Z" style="fill:rgb(254,255,254);stroke:rgb(17,18,24);stroke-width:4.17px;"/>
                        <ellipse cx="856.555" cy="483.459" rx="17.08" ry="17.079" style="fill:rgb(131,133,136);"/>
                        <path d="M856.555,463.648c10.935,-0 19.812,8.877 19.812,19.811c0,10.935 -8.877,19.812 -19.812,19.812c-10.935,0 -19.813,-8.877 -19.813,-19.812c0,-10.934 8.878,-19.811 19.813,-19.811Zm-0,2.733c-9.427,-0 -17.08,7.652 -17.08,17.078c-0,9.427 7.653,17.079 17.08,17.079c9.426,0 17.08,-7.652 17.08,-17.079c-0,-9.426 -7.654,-17.078 -17.08,-17.078Z" style="fill:rgb(131,133,136);"/>
                    </g>
                    <g id="Jack3" serif:id="Jack">
                        <path d="M976.554,483.057c0.143,0.248 0.143,0.554 -0,0.802c-1.838,3.183 -14.056,24.345 -15.894,27.528c-0.143,0.248 -0.408,0.401 -0.694,0.401c-3.676,0 -28.112,0.001 -31.788,0.001c-0.286,0 -0.55,-0.152 -0.694,-0.4c-1.837,-3.183 -14.055,-24.344 -15.893,-27.527c-0.143,-0.248 -0.143,-0.554 -0,-0.802c1.838,-3.183 14.056,-24.345 15.893,-27.528c0.144,-0.248 0.408,-0.401 0.694,-0.401c3.676,-0 28.112,-0.001 31.788,-0.001c0.286,-0 0.551,0.152 0.694,0.4c1.838,3.183 14.056,24.344 15.894,27.527Z" style="fill:rgb(254,255,254);stroke:rgb(17,18,24);stroke-width:4.17px;"/>
                        <ellipse cx="944.072" cy="483.459" rx="17.08" ry="17.079" style="fill:rgb(131,133,136);"/>
                        <path d="M944.072,463.648c10.935,-0 19.813,8.877 19.813,19.811c-0,10.935 -8.878,19.812 -19.813,19.812c-10.935,0 -19.813,-8.877 -19.813,-19.812c0,-10.934 8.878,-19.811 19.813,-19.811Zm0,2.733c-9.427,-0 -17.08,7.652 -17.08,17.078c0,9.427 7.653,17.079 17.08,17.079c9.427,0 17.08,-7.652 17.08,-17.079c0,-9.426 -7.653,-17.078 -17.08,-17.078Z" style="fill:rgb(131,133,136);"/>
                    </g>
                    <g id="Jack4" serif:id="Jack">
                        <path d="M889.036,577.512c0.143,0.248 0.143,0.554 0,0.802c-1.838,3.183 -14.056,24.345 -15.894,27.528c-0.143,0.248 -0.407,0.401 -0.693,0.401c-3.676,-0 -28.112,0.001 -31.788,0.001c-0.286,0 -0.551,-0.152 -0.694,-0.4c-1.838,-3.183 -14.056,-24.344 -15.894,-27.527c-0.143,-0.248 -0.143,-0.554 0,-0.802c1.838,-3.183 14.056,-24.345 15.894,-27.528c0.143,-0.248 0.408,-0.401 0.694,-0.401c3.675,-0 28.112,-0.001 31.787,-0.001c0.287,-0 0.551,0.152 0.694,0.4c1.838,3.183 14.056,24.344 15.894,27.527Z" style="fill:rgb(254,255,254);stroke:rgb(17,18,24);stroke-width:4.17px;"/>
                        <ellipse cx="856.555" cy="577.914" rx="17.08" ry="17.079" style="fill:rgb(131,133,136);"/>
                        <path d="M856.555,558.103c10.935,-0 19.812,8.877 19.812,19.811c0,10.935 -8.877,19.812 -19.812,19.812c-10.935,0 -19.813,-8.877 -19.813,-19.812c0,-10.934 8.878,-19.811 19.813,-19.811Zm-0,2.733c-9.427,-0 -17.08,7.652 -17.08,17.078c-0,9.427 7.653,17.079 17.08,17.079c9.426,0 17.08,-7.652 17.08,-17.079c-0,-9.426 -7.654,-17.078 -17.08,-17.078Z" style="fill:rgb(131,133,136);"/>
                    </g>
                    <g id="Jack5" serif:id="Jack">
                        <path d="M976.554,577.512c0.143,0.248 0.143,0.554 -0,0.802c-1.838,3.183 -14.056,24.345 -15.894,27.528c-0.143,0.248 -0.408,0.401 -0.694,0.401c-3.676,-0 -28.112,0.001 -31.788,0.001c-0.286,0 -0.55,-0.152 -0.694,-0.4c-1.837,-3.183 -14.055,-24.344 -15.893,-27.527c-0.143,-0.248 -0.143,-0.554 -0,-0.802c1.838,-3.183 14.056,-24.345 15.893,-27.528c0.144,-0.248 0.408,-0.401 0.694,-0.401c3.676,-0 28.112,-0.001 31.788,-0.001c0.286,-0 0.551,0.152 0.694,0.4c1.838,3.183 14.056,24.344 15.894,27.527Z" style="fill:rgb(254,255,254);stroke:rgb(17,18,24);stroke-width:4.17px;"/>
                        <ellipse cx="944.072" cy="577.914" rx="17.08" ry="17.079" style="fill:rgb(131,133,136);"/>
                        <path d="M944.072,558.103c10.935,-0 19.813,8.877 19.813,19.811c-0,10.935 -8.878,19.812 -19.813,19.812c-10.935,0 -19.813,-8.877 -19.813,-19.812c0,-10.934 8.878,-19.811 19.813,-19.811Zm0,2.733c-9.427,-0 -17.08,7.652 -17.08,17.078c0,9.427 7.653,17.079 17.08,17.079c9.427,0 17.08,-7.652 17.08,-17.079c0,-9.426 -7.653,-17.078 -17.08,-17.078Z" style="fill:rgb(131,133,136);"/>
                    </g>
                    <g id="Jack6" serif:id="Jack">
                        <path d="M889.036,287.955c0.143,0.248 0.143,0.553 0,0.801c-1.838,3.183 -14.056,24.345 -15.894,27.529c-0.143,0.247 -0.407,0.4 -0.693,0.4c-3.676,0 -28.112,0.001 -31.788,0.002c-0.286,-0 -0.551,-0.153 -0.694,-0.401c-1.838,-3.183 -14.056,-24.344 -15.894,-27.527c-0.143,-0.248 -0.143,-0.553 0,-0.801c1.838,-3.184 14.056,-24.346 15.894,-27.529c0.143,-0.248 0.408,-0.401 0.694,-0.401c3.675,0 28.112,-0.001 31.787,-0.001c0.287,-0 0.551,0.153 0.694,0.401c1.838,3.183 14.056,24.344 15.894,27.527Z" style="fill:rgb(254,255,254);stroke:rgb(17,18,24);stroke-width:4.17px;"/>
                        <ellipse cx="856.555" cy="288.357" rx="17.08" ry="17.079" style="fill:rgb(131,133,136);"/>
                        <path d="M856.555,268.545c10.935,0 19.812,8.877 19.812,19.812c0,10.934 -8.877,19.811 -19.812,19.811c-10.935,0 -19.813,-8.877 -19.813,-19.811c0,-10.935 8.878,-19.812 19.813,-19.812Zm-0,2.733c-9.427,-0 -17.08,7.653 -17.08,17.079c-0,9.426 7.653,17.079 17.08,17.079c9.426,-0 17.08,-7.653 17.08,-17.079c-0,-9.426 -7.654,-17.079 -17.08,-17.079Z" style="fill:rgb(131,133,136);"/>
                    </g>
                    <g id="Jack7" serif:id="Jack">
                        <path d="M976.554,287.955c0.143,0.248 0.143,0.553 -0,0.801c-1.838,3.183 -14.056,24.345 -15.894,27.529c-0.143,0.247 -0.408,0.4 -0.694,0.4c-3.676,0 -28.112,0.001 -31.788,0.002c-0.286,-0 -0.55,-0.153 -0.694,-0.401c-1.837,-3.183 -14.055,-24.344 -15.893,-27.527c-0.143,-0.248 -0.143,-0.553 -0,-0.801c1.838,-3.184 14.056,-24.346 15.893,-27.529c0.144,-0.248 0.408,-0.401 0.694,-0.401c3.676,0 28.112,-0.001 31.788,-0.001c0.286,-0 0.551,0.153 0.694,0.401c1.838,3.183 14.056,24.344 15.894,27.527Z" style="fill:rgb(254,255,254);stroke:rgb(17,18,24);stroke-width:4.17px;"/>
                        <ellipse cx="944.072" cy="288.357" rx="17.08" ry="17.079" style="fill:rgb(131,133,136);"/>
                        <path d="M944.072,268.545c10.935,0 19.813,8.877 19.813,19.812c-0,10.934 -8.878,19.811 -19.813,19.811c-10.935,0 -19.813,-8.877 -19.813,-19.811c0,-10.935 8.878,-19.812 19.813,-19.812Zm0,2.733c-9.427,-0 -17.08,7.653 -17.08,17.079c0,9.426 7.653,17.079 17.08,17.079c9.427,-0 17.08,-7.653 17.08,-17.079c0,-9.426 -7.653,-17.079 -17.08,-17.079Z" style="fill:rgb(131,133,136);"/>
                    </g>
                    <g id="Jack8" serif:id="Jack">
                        <path d="M889.036,680.104c0.143,0.247 0.143,0.553 0,0.801c-1.838,3.183 -14.056,24.345 -15.894,27.528c-0.143,0.248 -0.407,0.401 -0.693,0.401c-3.676,0 -28.112,0.001 -31.788,0.001c-0.286,0 -0.551,-0.152 -0.694,-0.4c-1.838,-3.183 -14.056,-24.344 -15.894,-27.527c-0.143,-0.248 -0.143,-0.554 0,-0.801c1.838,-3.184 14.056,-24.346 15.894,-27.529c0.143,-0.248 0.408,-0.401 0.694,-0.401c3.675,0 28.112,-0.001 31.787,-0.001c0.287,-0 0.551,0.153 0.694,0.4c1.838,3.183 14.056,24.344 15.894,27.528Z" style="fill:rgb(254,255,254);stroke:rgb(17,18,24);stroke-width:4.17px;"/>
                        <ellipse cx="856.555" cy="680.506" rx="17.08" ry="17.079" style="fill:rgb(131,133,136);"/>
                        <path d="M856.555,660.694c10.935,-0 19.812,8.877 19.812,19.812c0,10.934 -8.877,19.811 -19.812,19.811c-10.935,0 -19.813,-8.877 -19.813,-19.811c0,-10.935 8.878,-19.812 19.813,-19.812Zm-0,2.733c-9.427,-0 -17.08,7.653 -17.08,17.079c-0,9.426 7.653,17.079 17.08,17.079c9.426,-0 17.08,-7.653 17.08,-17.079c-0,-9.426 -7.654,-17.079 -17.08,-17.079Z" style="fill:rgb(131,133,136);"/>
                    </g>
                    <g id="Jack9" serif:id="Jack">
                        <path d="M976.554,680.104c0.143,0.247 0.143,0.553 -0,0.801c-1.838,3.183 -14.056,24.345 -15.894,27.528c-0.143,0.248 -0.408,0.401 -0.694,0.401c-3.676,0 -28.112,0.001 -31.788,0.001c-0.286,0 -0.55,-0.152 -0.694,-0.4c-1.837,-3.183 -14.055,-24.344 -15.893,-27.527c-0.143,-0.248 -0.143,-0.554 -0,-0.801c1.838,-3.184 14.056,-24.346 15.893,-27.529c0.144,-0.248 0.408,-0.401 0.694,-0.401c3.676,0 28.112,-0.001 31.788,-0.001c0.286,-0 0.551,0.153 0.694,0.4c1.838,3.183 14.056,24.344 15.894,27.528Z" style="fill:rgb(254,255,254);stroke:rgb(17,18,24);stroke-width:4.17px;"/>
                        <ellipse cx="944.072" cy="680.506" rx="17.08" ry="17.079" style="fill:rgb(131,133,136);"/>
                        <path d="M944.072,660.694c10.935,-0 19.813,8.877 19.813,19.812c-0,10.934 -8.878,19.811 -19.813,19.811c-10.935,0 -19.813,-8.877 -19.813,-19.811c0,-10.935 8.878,-19.812 19.813,-19.812Zm0,2.733c-9.427,-0 -17.08,7.653 -17.08,17.079c0,9.426 7.653,17.079 17.08,17.079c9.427,-0 17.08,-7.653 17.08,-17.079c0,-9.426 -7.653,-17.079 -17.08,-17.079Z" style="fill:rgb(131,133,136);"/>
                    </g>
                    <g id="Jack10" serif:id="Jack">
                        <path d="M889.036,773.887c0.143,0.248 0.143,0.553 0,0.801c-1.838,3.183 -14.056,24.345 -15.894,27.528c-0.143,0.248 -0.407,0.401 -0.693,0.401c-3.676,0 -28.112,0.001 -31.788,0.001c-0.286,0.001 -0.551,-0.152 -0.694,-0.4c-1.838,-3.183 -14.056,-24.344 -15.894,-27.527c-0.143,-0.248 -0.143,-0.554 0,-0.801c1.838,-3.184 14.056,-24.346 15.894,-27.529c0.143,-0.248 0.408,-0.401 0.694,-0.401c3.675,0 28.112,-0.001 31.787,-0.001c0.287,-0 0.551,0.153 0.694,0.4c1.838,3.184 14.056,24.345 15.894,27.528Z" style="fill:rgb(254,255,254);stroke:rgb(17,18,24);stroke-width:4.17px;"/>
                        <ellipse cx="856.555" cy="774.289" rx="17.08" ry="17.079" style="fill:rgb(131,133,136);"/>
                        <path d="M856.555,754.477c10.935,0 19.812,8.877 19.812,19.812c0,10.934 -8.877,19.811 -19.812,19.811c-10.935,0 -19.813,-8.877 -19.813,-19.811c0,-10.935 8.878,-19.812 19.813,-19.812Zm-0,2.733c-9.427,-0 -17.08,7.653 -17.08,17.079c-0,9.426 7.653,17.079 17.08,17.079c9.426,-0 17.08,-7.653 17.08,-17.079c-0,-9.426 -7.654,-17.079 -17.08,-17.079Z" style="fill:rgb(131,133,136);"/>
                    </g>
                    <g id="Jack11" serif:id="Jack">
                        <path d="M976.554,773.887c0.143,0.248 0.143,0.553 -0,0.801c-1.838,3.183 -14.056,24.345 -15.894,27.528c-0.143,0.248 -0.408,0.401 -0.694,0.401c-3.676,0 -28.112,0.001 -31.788,0.001c-0.286,0.001 -0.55,-0.152 -0.694,-0.4c-1.837,-3.183 -14.055,-24.344 -15.893,-27.527c-0.143,-0.248 -0.143,-0.554 -0,-0.801c1.838,-3.184 14.056,-24.346 15.893,-27.529c0.144,-0.248 0.408,-0.401 0.694,-0.401c3.676,0 28.112,-0.001 31.788,-0.001c0.286,-0 0.551,0.153 0.694,0.4c1.838,3.184 14.056,24.345 15.894,27.528Z" style="fill:rgb(254,255,254);stroke:rgb(17,18,24);stroke-width:4.17px;"/>
                        <ellipse cx="944.072" cy="774.289" rx="17.08" ry="17.079" style="fill:rgb(131,133,136);"/>
                        <path d="M944.072,754.477c10.935,0 19.813,8.877 19.813,19.812c-0,10.934 -8.878,19.811 -19.813,19.811c-10.935,0 -19.813,-8.877 -19.813,-19.811c0,-10.935 8.878,-19.812 19.813,-19.812Zm0,2.733c-9.427,-0 -17.08,7.653 -17.08,17.079c0,9.426 7.653,17.079 17.08,17.079c9.427,-0 17.08,-7.653 17.08,-17.079c0,-9.426 -7.653,-17.079 -17.08,-17.079Z" style="fill:rgb(131,133,136);"/>
                    </g>
                    <g id="Jack12" serif:id="Jack">
                        <path d="M889.036,875.181c0.143,0.248 0.143,0.553 0,0.801c-1.838,3.183 -14.056,24.345 -15.894,27.529c-0.143,0.247 -0.407,0.4 -0.693,0.4c-3.676,0 -28.112,0.001 -31.788,0.002c-0.286,-0 -0.551,-0.153 -0.694,-0.401c-1.838,-3.183 -14.056,-24.344 -15.894,-27.527c-0.143,-0.248 -0.143,-0.553 0,-0.801c1.838,-3.184 14.056,-24.346 15.894,-27.529c0.143,-0.248 0.408,-0.401 0.694,-0.401c3.675,0 28.112,-0.001 31.787,-0.001c0.287,-0 0.551,0.153 0.694,0.401c1.838,3.183 14.056,24.344 15.894,27.527Z" style="fill:rgb(254,255,254);stroke:rgb(17,18,24);stroke-width:4.17px;"/>
                        <ellipse cx="856.555" cy="875.583" rx="17.08" ry="17.079" style="fill:rgb(131,133,136);"/>
                        <path d="M856.555,855.771c10.935,0 19.812,8.877 19.812,19.812c0,10.934 -8.877,19.811 -19.812,19.811c-10.935,0 -19.813,-8.877 -19.813,-19.811c0,-10.935 8.878,-19.812 19.813,-19.812Zm-0,2.733c-9.427,-0 -17.08,7.653 -17.08,17.079c-0,9.426 7.653,17.079 17.08,17.079c9.426,-0 17.08,-7.653 17.08,-17.079c-0,-9.426 -7.654,-17.079 -17.08,-17.079Z" style="fill:rgb(131,133,136);"/>
                    </g>
                    <g id="Jack13" serif:id="Jack">
                        <path d="M976.554,875.181c0.143,0.248 0.143,0.553 -0,0.801c-1.838,3.183 -14.056,24.345 -15.894,27.529c-0.143,0.247 -0.408,0.4 -0.694,0.4c-3.676,0 -28.112,0.001 -31.788,0.002c-0.286,-0 -0.55,-0.153 -0.694,-0.401c-1.837,-3.183 -14.055,-24.344 -15.893,-27.527c-0.143,-0.248 -0.143,-0.553 -0,-0.801c1.838,-3.184 14.056,-24.346 15.893,-27.529c0.144,-0.248 0.408,-0.401 0.694,-0.401c3.676,0 28.112,-0.001 31.788,-0.001c0.286,-0 0.551,0.153 0.694,0.401c1.838,3.183 14.056,24.344 15.894,27.527Z" style="fill:rgb(254,255,254);stroke:rgb(17,18,24);stroke-width:4.17px;"/>
                        <ellipse cx="944.072" cy="875.583" rx="17.08" ry="17.079" style="fill:rgb(131,133,136);"/>
                        <path d="M944.072,855.771c10.935,0 19.813,8.877 19.813,19.812c-0,10.934 -8.878,19.811 -19.813,19.811c-10.935,0 -19.813,-8.877 -19.813,-19.811c0,-10.935 8.878,-19.812 19.813,-19.812Zm0,2.733c-9.427,-0 -17.08,7.653 -17.08,17.079c0,9.426 7.653,17.079 17.08,17.079c9.427,-0 17.08,-7.653 17.08,-17.079c0,-9.426 -7.653,-17.079 -17.08,-17.079Z" style="fill:rgb(131,133,136);"/>
                    </g>
                    <g id="Jack14" serif:id="Jack">
                        <path d="M889.036,969.609c0.143,0.248 0.143,0.553 0,0.801c-1.838,3.184 -14.056,24.346 -15.894,27.529c-0.143,0.248 -0.407,0.401 -0.693,0.401c-3.676,-0 -28.112,0.001 -31.788,0.001c-0.286,0 -0.551,-0.153 -0.694,-0.4c-1.838,-3.184 -14.056,-24.345 -15.894,-27.528c-0.143,-0.248 -0.143,-0.553 0,-0.801c1.838,-3.183 14.056,-24.345 15.894,-27.528c0.143,-0.248 0.408,-0.401 0.694,-0.401c3.675,-0 28.112,-0.001 31.787,-0.002c0.287,0 0.551,0.153 0.694,0.401c1.838,3.183 14.056,24.344 15.894,27.527Z" style="fill:rgb(254,255,254);stroke:rgb(17,18,24);stroke-width:4.17px;"/>
                        <ellipse cx="856.555" cy="970.011" rx="17.08" ry="17.079" style="fill:rgb(131,133,136);"/>
                        <path d="M856.555,950.2c10.935,-0 19.812,8.877 19.812,19.811c0,10.935 -8.877,19.812 -19.812,19.812c-10.935,-0 -19.813,-8.877 -19.813,-19.812c0,-10.934 8.878,-19.811 19.813,-19.811Zm-0,2.732c-9.427,0 -17.08,7.653 -17.08,17.079c-0,9.426 7.653,17.079 17.08,17.079c9.426,0 17.08,-7.653 17.08,-17.079c-0,-9.426 -7.654,-17.079 -17.08,-17.079Z" style="fill:rgb(131,133,136);"/>
                    </g>
                    <g id="Jack15" serif:id="Jack">
                        <path d="M976.554,969.609c0.143,0.248 0.143,0.553 -0,0.801c-1.838,3.184 -14.056,24.346 -15.894,27.529c-0.143,0.248 -0.408,0.401 -0.694,0.401c-3.676,-0 -28.112,0.001 -31.788,0.001c-0.286,0 -0.55,-0.153 -0.694,-0.4c-1.837,-3.184 -14.055,-24.345 -15.893,-27.528c-0.143,-0.248 -0.143,-0.553 -0,-0.801c1.838,-3.183 14.056,-24.345 15.893,-27.528c0.144,-0.248 0.408,-0.401 0.694,-0.401c3.676,-0 28.112,-0.001 31.788,-0.002c0.286,0 0.551,0.153 0.694,0.401c1.838,3.183 14.056,24.344 15.894,27.527Z" style="fill:rgb(254,255,254);stroke:rgb(17,18,24);stroke-width:4.17px;"/>
                        <ellipse cx="944.072" cy="970.011" rx="17.08" ry="17.079" style="fill:rgb(131,133,136);"/>
                        <path d="M944.072,950.2c10.935,-0 19.813,8.877 19.813,19.811c-0,10.935 -8.878,19.812 -19.813,19.812c-10.935,-0 -19.813,-8.877 -19.813,-19.812c0,-10.934 8.878,-19.811 19.813,-19.811Zm0,2.732c-9.427,0 -17.08,7.653 -17.08,17.079c0,9.426 7.653,17.079 17.08,17.079c9.427,0 17.08,-7.653 17.08,-17.079c0,-9.426 -7.653,-17.079 -17.08,-17.079Z" style="fill:rgb(131,133,136);"/>
                    </g>
                    <ellipse cx="856.555" cy="288.357" rx="17.08" ry="17.079" style="fill:rgb(125,97,170);"/>
                    <ellipse cx="944.072" cy="288.357" rx="17.08" ry="17.079" style="fill:rgb(125,97,170);"/>
                    <ellipse cx="944.072" cy="382.204" rx="17.08" ry="17.079" style="fill:rgb(125,97,170);"/>
                    <ellipse cx="856.555" cy="382.204" rx="17.08" ry="17.079" style="fill:rgb(125,97,170);"/>
                    <ellipse cx="944.072" cy="483.459" rx="17.08" ry="17.079" style="fill:rgb(125,97,170);"/>
                    <ellipse cx="856.555" cy="577.914" rx="17.08" ry="17.079" style="fill:rgb(125,97,170);"/>
                    <ellipse cx="944.072" cy="577.914" rx="17.08" ry="17.079" style="fill:rgb(125,97,170);"/>
                    <ellipse cx="944.072" cy="680.506" rx="17.08" ry="17.079" style="fill:rgb(125,97,170);"/>
                    <ellipse cx="944.072" cy="774.289" rx="17.08" ry="17.079" style="fill:rgb(125,97,170);"/>
                    <ellipse cx="856.555" cy="774.289" rx="17.08" ry="17.079" style="fill:rgb(125,97,170);"/>
                    <path d="M909.137,172.457c2.881,-0.988 11.519,7.386 11.276,10.093c-0.083,0.929 -0.72,2.881 -1.72,2.677c-1.929,-0.394 -8.998,-3.008 -9.855,-5.04c-0.725,-1.72 -2.985,-6.604 0.299,-7.73Z" style="fill:rgb(131,133,136);"/>
                    <path d="M880.579,195.383c0.991,-0.012 1.566,0.543 2.719,3.035c0.955,2.066 1.012,8.068 2.608,11.789c1.695,3.954 8.181,10.056 8.601,11.46c0.858,2.863 -7.741,-5.414 -10.57,-9.25c-3.169,-4.295 -8.37,-15.827 -3.358,-17.034Z" style="fill:rgb(131,133,136);"/>
                    <ellipse cx="922.062" cy="188.308" rx="1.43" ry="1.436" style="fill:rgb(131,133,136);"/>
                    <path d="M903.118,262.119c-0.755,-0.979 -2.269,-2.935 -2.766,-6.399c-0.333,-2.319 0.759,-4.278 1.791,-6.957c0.659,-1.71 1.535,-5.733 0.695,-8.1c-1.154,-3.252 -1.094,-8.121 -1.073,-10.554c0.004,-0.466 -0.371,-0.847 -0.836,-0.851c-0.466,-0.004 -0.847,0.371 -0.851,0.836c-0.022,2.568 -0.048,7.702 1.17,11.133c0.719,2.027 -0.115,5.465 -0.679,6.929c-1.154,2.994 -2.259,5.213 -1.887,7.803c0.558,3.891 2.252,6.092 3.101,7.191c0.284,0.369 0.814,0.437 1.183,0.153c0.368,-0.285 0.437,-0.815 0.152,-1.184Z" style="fill:rgb(131,133,136);"/>
                    <path d="M967.429,1041.01c-4.069,0.275 -5.783,2.974 -6.694,5.818c-0.801,2.501 -1.699,5.083 -2.676,6.41c-0.542,0.737 -1.146,1.115 -1.734,1.115c-0.583,-0 -1.01,-0.308 -1.284,-0.886c-0.417,-0.879 -0.407,-2.601 -0.296,-4.325c0.087,-1.353 0.22,-2.705 0.162,-3.571c-0.008,-0.125 -0.035,-0.268 -0.058,-0.373c-0.05,0.026 -0.1,0.062 -0.152,0.101c-0.192,0.144 -0.382,0.354 -0.574,0.603c-0.667,0.866 -1.327,2.179 -1.951,3.319c-0.532,0.972 -1.05,1.823 -1.512,2.251c-0.313,0.29 -0.631,0.42 -0.917,0.42c-0.539,-0 -0.927,-0.329 -1.076,-1.015c-0.191,-0.876 0.075,-2.597 0.388,-4.316c0.248,-1.361 0.515,-2.722 0.525,-3.594c0.002,-0.111 -0.011,-0.235 -0.024,-0.333c-0.074,0.044 -0.149,0.109 -0.228,0.182c-0.24,0.222 -0.48,0.543 -0.723,0.927c-0.807,1.275 -1.61,3.208 -2.343,4.887c-0.603,1.381 -1.168,2.596 -1.641,3.204c-0.34,0.437 -0.704,0.612 -0.988,0.612c-0.538,0 -0.908,-0.279 -1.12,-0.802c-0.291,-0.715 -0.183,-2.119 0.024,-3.523c0.128,-0.871 0.281,-1.742 0.346,-2.412c0.016,-0.165 0.018,-0.35 0.016,-0.501c-0.049,0.024 -0.1,0.05 -0.155,0.078c-0.445,0.224 -1.016,0.586 -1.666,0.986c-1.138,0.702 -2.502,1.504 -3.854,1.979c-0.275,1.091 -0.719,2.127 -1.305,2.935c-0.779,1.074 -1.806,1.751 -3,1.751c-1.051,-0 -1.705,-0.534 -2.12,-1.292c-0.35,-0.639 -0.514,-1.458 -0.613,-2.188c-0.045,-0.33 -0.105,-0.722 -0.148,-0.991c-0.215,0.093 -0.504,0.221 -0.765,0.344c-0.458,0.218 -0.994,0.457 -1.568,0.652c-0.242,1.139 -0.658,2.225 -1.217,3.067c-0.736,1.11 -1.723,1.803 -2.859,1.803c-1.011,-0 -1.673,-0.562 -2.101,-1.382c-0.356,-0.681 -0.538,-1.554 -0.651,-2.332c-0.048,-0.332 -0.084,-0.645 -0.119,-0.911c-0.138,0.159 -0.284,0.345 -0.44,0.543c-0.462,0.583 -1.002,1.25 -1.607,1.693c-0.479,0.352 -1.001,0.569 -1.555,0.569c-0.996,0 -1.772,-0.484 -2.339,-1.324c-0.467,-0.691 -0.785,-1.648 -0.962,-2.754c-0.814,0.594 -1.717,1.11 -2.601,1.579c-0.004,0.116 -0.011,0.231 -0.022,0.345c-0.119,1.231 -0.707,2.579 -1.46,3.461c-0.582,0.682 -1.273,1.081 -1.921,1.081c-0.338,-0 -0.731,-0.131 -1.077,-0.384c-0.492,-0.36 -0.881,-0.957 -0.881,-1.667c0,-0.716 0.54,-1.406 1.499,-2.037c0.717,-0.472 1.682,-0.941 2.705,-1.465c-0.064,-0.693 -0.273,-1.362 -0.611,-1.848c-0.253,-0.365 -0.578,-0.626 -0.988,-0.626c-1.268,-0 -2.11,0.735 -2.715,1.664c-0.677,1.042 -1.067,2.326 -1.363,3.287c-0.206,0.669 -0.383,1.199 -0.551,1.46c-0.204,0.317 -0.461,0.417 -0.679,0.417c-0.116,0 -0.241,-0.03 -0.363,-0.122c-0.077,-0.058 -0.209,-0.202 -0.296,-0.475c-0.137,-0.426 -0.305,-1.479 -0.442,-2.89c-0.544,0.87 -1.079,1.664 -1.581,2.344c-0.8,1.08 -1.528,1.876 -2.078,2.261c-0.345,0.24 -0.655,0.34 -0.899,0.34c-1.062,0 -1.659,-0.746 -1.843,-1.996c-0.208,-1.413 0.125,-3.551 0.447,-5.41c0.163,-0.943 0.322,-1.812 0.39,-2.46c0.018,-0.175 0.021,-0.37 0.02,-0.517c-0.491,0.041 -1.025,0.157 -1.567,0.275c-0.361,1.976 -1.468,4.342 -2.914,6.051c-1.221,1.443 -2.689,2.402 -4.127,2.402c-1.742,0 -3.002,-0.68 -3.859,-1.724c-1.083,0.906 -2.282,1.47 -3.475,1.47c-1.26,-0 -2.307,-0.957 -3.032,-2.604c-0.238,-0.542 -0.445,-1.161 -0.621,-1.837c-0.562,1.137 -1.131,2.17 -1.681,3.035c-0.656,1.033 -1.293,1.833 -1.86,2.312c-0.485,0.41 -0.949,0.6 -1.346,0.6c-0.863,-0 -1.474,-0.586 -1.814,-1.638c-0.385,-1.192 -0.435,-3.053 -0.416,-4.915c0.019,-1.762 0.096,-3.525 -0.052,-4.653c-0.033,-0.254 -0.076,-0.471 -0.14,-0.639c-0.01,-0.027 -0.027,-0.059 -0.042,-0.086c-0.036,0.023 -0.07,0.063 -0.111,0.101c-0.158,0.151 -0.311,0.37 -0.467,0.637c-0.55,0.939 -1.087,2.408 -1.617,3.875c-0.653,1.804 -1.298,3.605 -1.913,4.525c-0.396,0.593 -0.846,0.862 -1.23,0.862c-0.442,0 -0.822,-0.271 -1.038,-0.865c-0.276,-0.76 -0.294,-2.25 -0.284,-3.741c0.008,-1.169 0.027,-2.338 -0.11,-3.087c-0.023,-0.124 -0.074,-0.271 -0.106,-0.357c-0.262,0.056 -0.48,0.282 -0.705,0.568c-0.558,0.709 -1.044,1.822 -1.558,2.93c-0.561,1.21 -1.155,2.414 -1.86,3.188c-0.568,0.623 -1.214,0.985 -1.945,0.985c-1.165,0 -1.793,-0.826 -1.938,-2.283c-0.167,-1.671 0.306,-4.283 0.761,-6.894c0.163,-0.937 0.324,-1.874 0.448,-2.763c-0.21,0.041 -0.429,0.062 -0.655,0.062c-2.375,0 -3.101,-2.221 -2.653,-4.037c0.311,-1.259 1.194,-2.243 2.327,-2.243c1.299,0 1.999,0.828 2.239,2.245c0.087,0.509 0.109,1.106 0.086,1.763c0.079,-0.109 0.154,-0.225 0.225,-0.345c0.576,-0.98 0.879,-2.289 0.918,-3.595c0.04,-1.304 -0.183,-2.61 -0.689,-3.588c-0.442,-0.852 -1.103,-1.45 -2.029,-1.45c-1.55,0 -2.839,0.925 -3.836,2.369c-1.613,2.335 -2.458,6.002 -2.325,9.722c0.172,4.793 1.202,9.676 0.639,12.174c-0.179,0.796 -0.516,1.381 -1.013,1.734c-0.351,0.251 -0.788,0.394 -1.331,0.394c-0.937,-0 -1.751,-0.578 -2.42,-1.524c-0.85,-1.202 -1.488,-3.017 -1.998,-4.598c-0.321,-0.994 -0.59,-1.89 -0.84,-2.446c-0.01,-0.023 -0.021,-0.046 -0.033,-0.069l-0.028,0.041c-0.3,0.448 -0.636,1.17 -1.005,1.97c-0.696,1.509 -1.502,3.277 -2.332,4.205c-0.474,0.531 -0.983,0.808 -1.469,0.808c-0.571,0 -1.064,-0.389 -1.355,-1.226c-0.449,-1.291 -0.493,-3.883 -0.462,-6.818c0.039,-3.627 0.173,-7.797 -0.362,-10.553c-0.163,-0.842 -0.383,-1.543 -0.707,-2.03c-0.24,-0.361 -0.536,-0.588 -0.933,-0.588c-0.685,-0 -1.162,0.589 -1.547,1.38c-0.709,1.457 -1.011,3.638 -0.977,5.426c0.057,2.963 1.06,4.847 1.06,4.847c0.149,0.277 0.045,0.623 -0.232,0.772c-0.277,0.149 -0.623,0.046 -0.772,-0.231c-0,-0 -1.133,-2.083 -1.196,-5.366c-0.038,-1.961 0.314,-4.349 1.092,-5.947c0.607,-1.248 1.491,-2.022 2.572,-2.022c1.209,0 2.066,0.953 2.542,2.62c0.594,2.076 0.664,5.319 0.638,8.563c-0.029,3.659 -0.182,7.319 0.251,9.185c0.062,0.266 0.135,0.49 0.227,0.661c0.051,0.094 0.078,0.187 0.161,0.187c0.118,-0 0.228,-0.072 0.345,-0.164c0.195,-0.155 0.386,-0.379 0.576,-0.646c0.659,-0.924 1.283,-2.325 1.844,-3.541c0.473,-1.025 0.91,-1.926 1.276,-2.376c0.293,-0.361 0.607,-0.499 0.854,-0.499c0.229,0 0.505,0.113 0.739,0.443c0.235,0.332 0.493,1.008 0.771,1.859c0.498,1.524 1.105,3.659 1.988,5.121c0.482,0.8 1.016,1.415 1.732,1.415c0.55,0 0.886,-0.276 1.082,-0.749c0.173,-0.418 0.254,-0.956 0.285,-1.586c0.128,-2.638 -0.657,-6.744 -0.802,-10.785c-0.143,-3.987 0.798,-7.909 2.526,-10.412c1.231,-1.782 2.862,-2.86 4.775,-2.86c1.107,0 1.987,0.531 2.63,1.401c0.863,1.168 1.283,2.987 1.228,4.811c-0.055,1.82 -0.581,3.634 -1.532,4.799c-0.265,0.324 -0.562,0.601 -0.89,0.819c-0.128,1.096 -0.324,2.276 -0.53,3.457c-0.435,2.495 -0.909,4.988 -0.75,6.585c0.073,0.725 0.224,1.256 0.804,1.256c0.554,-0 0.984,-0.415 1.391,-0.969c0.51,-0.693 0.951,-1.619 1.379,-2.544c0.556,-1.196 1.094,-2.39 1.697,-3.156c0.514,-0.653 1.096,-1.016 1.728,-1.016c0.42,-0 0.799,0.27 0.997,0.885c0.244,0.756 0.243,2.238 0.232,3.721c-0.008,1.163 -0.017,2.327 0.141,3.071c0.022,0.104 0.066,0.225 0.102,0.311c0.009,-0.008 0.017,-0.017 0.024,-0.024c0.142,-0.152 0.282,-0.373 0.427,-0.642c0.507,-0.944 1.025,-2.419 1.558,-3.893c0.656,-1.813 1.339,-3.622 2.021,-4.547c0.421,-0.569 0.888,-0.84 1.313,-0.84c0.441,-0 0.819,0.259 1.041,0.842c0.286,0.747 0.319,2.245 0.294,3.944c-0.029,2.02 -0.119,4.344 0.218,5.88c0.077,0.354 0.176,0.662 0.313,0.901c0.13,0.227 0.29,0.386 0.532,0.386c0.187,-0 0.382,-0.138 0.61,-0.331c0.501,-0.423 1.053,-1.14 1.633,-2.053c0.741,-1.165 1.516,-2.642 2.262,-4.266c-0.259,-1.602 -0.382,-3.387 -0.372,-5.172c0.007,-1.335 0.09,-2.67 0.242,-3.929c-3.22,0.18 -4.823,0.459 -4.823,0.459c-0.248,0.043 -0.485,-0.123 -0.528,-0.371c-0.044,-0.248 0.123,-0.484 0.371,-0.528c-0,0 1.697,-0.298 5.106,-0.48c0.317,-2.059 0.829,-3.846 1.514,-4.998c0.62,-1.044 1.403,-1.601 2.259,-1.601c0.736,-0 1.249,0.453 1.467,1.362c0.224,0.938 0.106,2.485 -0.285,4.351c-0.051,0.244 -0.107,0.494 -0.167,0.749c2.162,-0.014 4.679,0.03 7.554,0.17c0.251,0.012 0.445,0.226 0.433,0.478c-0.012,0.251 -0.226,0.445 -0.478,0.433c-2.962,-0.144 -5.54,-0.185 -7.736,-0.167c-0.769,2.939 -2.019,6.392 -3.378,9.4c0.207,1.166 0.494,2.215 0.868,3.064c0.501,1.14 1.116,1.923 1.988,1.923c0.987,0 1.96,-0.516 2.846,-1.289c-0.819,-1.574 -1.01,-3.604 -0.744,-5.423c0.21,-1.44 0.707,-2.731 1.362,-3.538c0.525,-0.646 1.159,-0.999 1.833,-0.999c0.728,-0 1.268,0.231 1.656,0.608c0.541,0.525 0.793,1.378 0.736,2.423c-0.113,2.088 -1.451,5.019 -3.308,7.024l-0.079,0.084c0.667,0.828 1.651,1.365 3.032,1.365c0.975,-0 1.935,-0.614 2.802,-1.499c1.413,-1.441 2.555,-3.623 3.014,-5.52l0.013,-0.057c-0.284,0.043 -0.562,0.069 -0.827,0.069c-1.806,0 -2.512,-1.589 -2.225,-2.87c0.201,-0.897 0.872,-1.627 1.943,-1.627c0.726,-0 1.269,0.234 1.664,0.619c0.538,0.523 0.803,1.369 0.782,2.405c0.629,-0.137 1.244,-0.263 1.787,-0.263c0.296,-0 0.534,0.134 0.683,0.446c0.084,0.174 0.136,0.466 0.122,0.857c-0.024,0.688 -0.223,1.795 -0.437,3.024c-0.301,1.736 -0.636,3.73 -0.442,5.049c0.085,0.574 0.228,1.022 0.715,1.022c0.03,-0 0.059,-0.023 0.096,-0.042c0.104,-0.055 0.217,-0.137 0.341,-0.241c0.456,-0.383 1.012,-1.03 1.623,-1.857c0.735,-0.994 1.544,-2.242 2.346,-3.615c-0.243,-4.021 -0.168,-9.484 0.986,-12.508c0.619,-1.622 1.577,-2.571 2.819,-2.571c0.594,-0 1.05,0.176 1.392,0.473c0.334,0.29 0.566,0.706 0.685,1.239c0.192,0.861 0.079,2.079 -0.282,3.498c-0.751,2.961 -2.561,6.863 -4.441,10.136c0.009,0.127 0.017,0.251 0.026,0.373c0.07,0.953 0.155,1.797 0.244,2.468c0.319,-1.031 0.751,-2.364 1.461,-3.456c0.811,-1.246 1.971,-2.184 3.671,-2.184c0.78,0 1.443,0.423 1.925,1.117c0.362,0.521 0.619,1.204 0.745,1.933c0.894,-0.49 1.783,-1.037 2.544,-1.677c-0.013,-0.216 -0.021,-0.436 -0.025,-0.659c-0.056,-3.273 0.826,-7.115 2.2,-9.128c0.695,-1.018 1.536,-1.587 2.415,-1.587c0.509,-0 0.896,0.162 1.183,0.431c0.383,0.359 0.597,0.948 0.587,1.72c-0.03,2.336 -2.159,6.674 -4.99,9.514c-0.063,0.063 -0.126,0.124 -0.191,0.185c0.093,0.955 0.287,1.816 0.604,2.493c0.363,0.776 0.888,1.298 1.661,1.298c0.411,0 0.777,-0.239 1.119,-0.54c0.427,-0.376 0.809,-0.861 1.149,-1.29c0.374,-0.473 0.711,-0.884 0.994,-1.092c0.227,-0.166 0.447,-0.236 0.642,-0.236c0.196,-0 0.391,0.074 0.545,0.29c0.058,0.081 0.118,0.203 0.163,0.368c0.056,0.209 0.101,0.532 0.15,0.916c0.087,0.689 0.191,1.61 0.493,2.357c0.23,0.568 0.571,1.046 1.218,1.046c0.775,0 1.407,-0.535 1.909,-1.293c0.395,-0.595 0.706,-1.33 0.921,-2.116c-0.285,0.047 -0.573,0.073 -0.859,0.073c-2.894,0 -3.98,-2.592 -3.583,-4.685c0.277,-1.465 1.273,-2.642 2.783,-2.642c1.99,-0 3.046,1.904 3.141,4.301c0.017,0.439 0.003,0.893 -0.04,1.35c0.5,-0.205 0.951,-0.432 1.318,-0.606c0.512,-0.244 0.912,-0.386 1.123,-0.386c0.243,0 0.475,0.106 0.638,0.395c0.111,0.197 0.195,0.596 0.257,1.1c0.079,0.634 0.157,1.48 0.443,2.167c0.218,0.522 0.57,0.947 1.239,0.947c0.839,0 1.53,-0.525 2.077,-1.279c0.395,-0.546 0.714,-1.211 0.948,-1.925c-0.289,0.048 -0.573,0.075 -0.85,0.075c-2.877,-0 -4.033,-2.597 -3.582,-4.687c0.31,-1.439 1.363,-2.621 3.08,-2.621c1.918,-0 2.927,1.873 2.958,4.237c0.005,0.441 -0.022,0.897 -0.08,1.356c1.062,-0.452 2.11,-1.095 3.01,-1.65c0.804,-0.496 1.498,-0.931 1.994,-1.15c0.297,-0.13 0.548,-0.19 0.735,-0.19c0.373,0 0.693,0.212 0.802,0.748c0.097,0.472 -0.014,1.422 -0.18,2.494c-0.188,1.223 -0.434,2.627 -0.353,3.556c0.013,0.148 0.034,0.28 0.069,0.393c0.015,0.047 0.018,0.098 0.038,0.127c0.039,-0.038 0.096,-0.095 0.136,-0.147c0.116,-0.148 0.236,-0.339 0.362,-0.563c0.526,-0.935 1.129,-2.397 1.771,-3.859c0.786,-1.791 1.637,-3.575 2.46,-4.488c0.474,-0.526 0.971,-0.788 1.429,-0.788c0.335,-0 0.592,0.15 0.769,0.451c0.133,0.226 0.214,0.602 0.209,1.094c-0.011,0.918 -0.283,2.352 -0.544,3.785c-0.245,1.347 -0.484,2.693 -0.435,3.555c0.008,0.129 0.042,0.279 0.067,0.376c0.027,-0.019 0.055,-0.041 0.076,-0.061c0.101,-0.093 0.204,-0.215 0.31,-0.357c0.473,-0.63 0.983,-1.617 1.516,-2.601c0.57,-1.053 1.167,-2.103 1.76,-2.777c0.512,-0.583 1.056,-0.895 1.56,-0.895c0.392,-0 0.731,0.226 0.897,0.769c0.179,0.584 0.141,1.755 0.05,3.081c-0.107,1.546 -0.271,3.324 -0.08,4.499c0.042,0.257 0.099,0.479 0.187,0.652c0.058,0.114 0.121,0.206 0.24,0.206c0.166,0 0.315,-0.106 0.472,-0.253c0.244,-0.229 0.478,-0.563 0.71,-0.967c0.778,-1.358 1.487,-3.466 2.142,-5.512c1.066,-3.329 3.126,-6.446 8.027,-6.625l0.065,-0.304c0.029,-0.136 0.163,-0.223 0.299,-0.194l0.304,0.065c0.136,0.029 0.222,0.163 0.193,0.298l-0.053,0.252c0.002,0.003 0.005,0.005 0.008,0.007l0.238,0.047l0.056,-0.265c0.04,-0.187 0.224,-0.307 0.412,-0.267l0.426,0.091c0.187,0.04 0.307,0.224 0.267,0.412l-0.053,0.248l0.226,0.044l0.05,-0.251c0.043,-0.218 0.251,-0.361 0.47,-0.324l3.851,0.663c0.226,0.039 0.375,0.256 0.331,0.481l-0.012,0.061l0.027,0.005c0.114,0.022 0.197,0.112 0.215,0.22l3.398,0.669c0.155,0.031 0.278,0.133 0.341,0.267l1.154,0.137l0.322,0.428l-0.075,0.38l-0.461,0.274l-1.116,-0.313c-0.109,0.101 -0.263,0.15 -0.42,0.119l-3.397,-0.669c-0.058,0.092 -0.169,0.144 -0.282,0.122l-0.028,-0.005l-0.012,0.06c-0.044,0.225 -0.265,0.37 -0.489,0.32l-3.815,-0.848c-0.216,-0.048 -0.354,-0.26 -0.312,-0.478l0.05,-0.251l-0.243,-0.048l-0.057,0.266c-0.039,0.187 -0.224,0.306 -0.411,0.266l-0.426,-0.091c-0.188,-0.039 -0.307,-0.224 -0.267,-0.411l0.053,-0.248l-0.248,-0.049l-0.057,0.27c-0.029,0.136 -0.163,0.223 -0.299,0.193l-0.304,-0.064c-0.136,-0.029 -0.222,-0.163 -0.193,-0.299l0.027,-0.131Zm-57.389,9.634c-0.43,0.221 -0.842,0.435 -1.22,0.644c-0.563,0.311 -1.047,0.61 -1.387,0.921c-0.23,0.21 -0.399,0.406 -0.399,0.64c-0,0.322 0.19,0.584 0.413,0.747c0.132,0.096 0.275,0.163 0.404,0.163c0.369,0 0.723,-0.292 1.054,-0.68c0.535,-0.628 0.968,-1.544 1.135,-2.435Zm-25.747,-0.665c1.215,-1.365 2.173,-3.156 2.613,-4.742c0.216,-0.778 0.308,-1.504 0.225,-2.095c-0.05,-0.353 -0.159,-0.652 -0.369,-0.856c-0.2,-0.194 -0.487,-0.286 -0.862,-0.286c-0.358,-0 -0.668,0.235 -0.948,0.578c-0.55,0.678 -0.942,1.773 -1.119,2.984c-0.213,1.457 -0.118,3.107 0.46,4.417Zm42.416,-1.405c0.082,-0.573 0.114,-1.15 0.092,-1.7c-0.036,-0.916 -0.218,-1.758 -0.594,-2.368c-0.313,-0.51 -0.772,-0.838 -1.407,-0.838c-0.939,-0 -1.49,0.802 -1.663,1.714c-0.278,1.47 0.43,3.333 2.463,3.333c0.372,-0 0.745,-0.054 1.109,-0.141Zm9.545,-1.203c0.11,-0.593 0.163,-1.191 0.155,-1.761c-0.011,-0.892 -0.168,-1.713 -0.515,-2.308c-0.285,-0.487 -0.709,-0.803 -1.302,-0.803c-1.109,0 -1.765,0.792 -1.965,1.721c-0.316,1.462 0.455,3.307 2.467,3.307c0.377,-0 0.766,-0.057 1.16,-0.156Zm-33.264,-0.994c1.493,-2.798 2.83,-5.851 3.442,-8.262c0.306,-1.206 0.437,-2.238 0.274,-2.97c-0.059,-0.265 -0.154,-0.482 -0.319,-0.625c-0.157,-0.137 -0.373,-0.195 -0.645,-0.195c-0.827,0 -1.342,0.758 -1.754,1.838c-0.944,2.473 -1.114,6.642 -0.998,10.214Zm11.836,-0.369c1.989,-2.209 3.541,-5.121 3.985,-7.185c0.116,-0.537 0.157,-1.009 0.091,-1.383c-0.033,-0.186 -0.087,-0.343 -0.196,-0.446c-0.097,-0.09 -0.233,-0.123 -0.404,-0.123c-0.342,0 -0.656,0.181 -0.954,0.465c-0.375,0.356 -0.712,0.87 -1.014,1.487c-0.922,1.88 -1.489,4.675 -1.508,7.185Zm-34.885,-8.27c-0.849,0.016 -1.633,0.04 -2.352,0.071c-0.16,1.271 -0.245,2.632 -0.253,3.992c-0.006,1.054 0.035,2.108 0.124,3.121c0.99,-2.386 1.874,-4.928 2.481,-7.184Zm14.011,6.38c0.024,-0.333 0.015,-0.646 -0.03,-0.928c-0.059,-0.369 -0.178,-0.681 -0.397,-0.895c-0.204,-0.198 -0.493,-0.295 -0.868,-0.295c-0.469,-0 -0.742,0.343 -0.83,0.736c-0.146,0.653 0.191,1.481 1.112,1.481c0.323,0 0.664,-0.04 1.013,-0.099Zm-37.881,-4.839c0.093,-0.975 0.109,-1.852 -0.011,-2.555c-0.13,-0.764 -0.415,-1.295 -1.115,-1.295c-0.644,-0 -1.043,0.659 -1.22,1.375c-0.283,1.145 0.049,2.624 1.546,2.624c0.288,-0 0.554,-0.053 0.8,-0.149Zm24.106,-2.458c0.083,-0.341 0.158,-0.674 0.226,-0.996c0.346,-1.653 0.491,-3.021 0.292,-3.852c-0.066,-0.274 -0.136,-0.487 -0.358,-0.487c-0.307,-0 -0.577,0.167 -0.829,0.432c-0.332,0.349 -0.62,0.857 -0.875,1.478c-0.392,0.953 -0.697,2.157 -0.912,3.494c0.751,-0.03 1.569,-0.054 2.456,-0.069Z" style="fill:rgb(131,133,136);"/>
                    <path d="M852.144,140.228l3.778,0l-1.746,8.186l5.724,-0l1.746,-8.186l3.778,0l-4.265,20.035l-3.778,-0l1.746,-8.243l-5.724,-0l-1.746,8.243l-3.749,-0l4.236,-20.035Z" style="fill:rgb(131,133,136);fill-rule:nonzero;"/>
                    <path d="M870.146,154.338c-0.038,0.153 -0.057,0.315 -0.057,0.487c-0,0.687 0.262,1.259 0.787,1.717c0.524,0.458 1.216,0.687 2.075,0.687c0.896,-0 1.612,-0.162 2.146,-0.487c0.535,-0.324 0.945,-0.706 1.231,-1.144l2.862,1.803c-0.229,0.381 -0.53,0.763 -0.902,1.144c-0.372,0.382 -0.83,0.73 -1.373,1.045c-0.544,0.315 -1.183,0.573 -1.918,0.773c-0.735,0.2 -1.588,0.3 -2.561,0.3c-0.878,0 -1.684,-0.138 -2.419,-0.415c-0.734,-0.276 -1.364,-0.658 -1.889,-1.144c-0.525,-0.487 -0.935,-1.069 -1.231,-1.746c-0.295,-0.678 -0.443,-1.427 -0.443,-2.247c-0,-1.297 0.195,-2.519 0.587,-3.663c0.391,-1.145 0.958,-2.147 1.703,-3.006c0.744,-0.858 1.659,-1.536 2.747,-2.032c1.088,-0.496 2.337,-0.744 3.749,-0.744c0.993,0 1.856,0.158 2.591,0.472c0.734,0.315 1.34,0.735 1.817,1.26c0.477,0.524 0.835,1.121 1.073,1.789c0.239,0.667 0.358,1.354 0.358,2.06c-0,0.229 -0.014,0.463 -0.043,0.701c-0.029,0.239 -0.081,0.549 -0.157,0.931l-0.315,1.459l-10.418,0Zm4.522,-5.409c-0.897,-0 -1.674,0.224 -2.333,0.673c-0.658,0.448 -1.149,0.997 -1.474,1.645l6.698,0c-0,-0.725 -0.225,-1.292 -0.673,-1.703c-0.448,-0.41 -1.188,-0.615 -2.218,-0.615Z" style="fill:rgb(131,133,136);fill-rule:nonzero;"/>
                    <path d="M893.615,159.919c-0.382,0.267 -0.773,0.458 -1.174,0.573c-0.4,0.114 -0.792,0.171 -1.173,0.171c-0.42,0 -0.821,-0.071 -1.202,-0.214c-0.382,-0.143 -0.716,-0.344 -1.002,-0.601c-0.286,-0.258 -0.51,-0.573 -0.673,-0.945c-0.162,-0.372 -0.243,-0.787 -0.243,-1.245c0,-0.343 0.038,-0.677 0.115,-1.002l3.119,-13.022l-0.286,-0.2l-3.835,2.633l-1.803,-2.69l4.15,-2.805c0.381,-0.267 0.773,-0.458 1.173,-0.573c0.401,-0.114 0.792,-0.171 1.174,-0.171c0.419,-0 0.82,0.071 1.202,0.214c0.381,0.143 0.715,0.344 1.001,0.601c0.287,0.258 0.511,0.573 0.673,0.945c0.162,0.372 0.243,0.787 0.243,1.245c0,0.305 -0.038,0.639 -0.114,1.002l-3.12,13.022l0.286,0.2l3.836,-2.633l1.803,2.69l-4.15,2.805Z" style="fill:rgb(131,133,136);fill-rule:nonzero;"/>
                    <path d="M911.331,159.919c-0.382,0.267 -0.773,0.458 -1.174,0.573c-0.4,0.114 -0.792,0.171 -1.173,0.171c-0.42,0 -0.821,-0.071 -1.202,-0.214c-0.382,-0.143 -0.716,-0.344 -1.002,-0.601c-0.286,-0.258 -0.51,-0.573 -0.672,-0.945c-0.163,-0.372 -0.244,-0.787 -0.244,-1.245c0,-0.362 0.038,-0.696 0.115,-1.002l1.717,-7.183l-0.286,-0.201l-3.835,2.634l-1.803,-2.691l4.149,-2.805c0.382,-0.267 0.773,-0.458 1.174,-0.572c0.401,-0.115 0.792,-0.172 1.173,-0.172c0.42,0 0.821,0.072 1.202,0.215c0.382,0.143 0.716,0.343 1.002,0.601c0.286,0.258 0.511,0.572 0.673,0.944c0.162,0.372 0.243,0.787 0.243,1.245c-0,0.363 -0.038,0.697 -0.115,1.002l-1.717,7.184l0.286,0.2l3.836,-2.633l1.803,2.69l-4.15,2.805Zm2.49,-18.059c-0,0.381 -0.072,0.739 -0.215,1.073c-0.143,0.334 -0.339,0.62 -0.587,0.859c-0.248,0.238 -0.539,0.429 -0.873,0.572c-0.333,0.143 -0.682,0.215 -1.044,0.215c-0.382,-0 -0.735,-0.072 -1.059,-0.215c-0.325,-0.143 -0.611,-0.334 -0.859,-0.572c-0.248,-0.239 -0.443,-0.525 -0.587,-0.859c-0.143,-0.334 -0.214,-0.692 -0.214,-1.073c-0,-0.382 0.071,-0.74 0.214,-1.074c0.144,-0.333 0.339,-0.62 0.587,-0.858c0.248,-0.239 0.534,-0.429 0.859,-0.573c0.324,-0.143 0.677,-0.214 1.059,-0.214c0.362,-0 0.711,0.071 1.044,0.214c0.334,0.144 0.625,0.334 0.873,0.573c0.248,0.238 0.444,0.525 0.587,0.858c0.143,0.334 0.215,0.692 0.215,1.074Z" style="fill:rgb(131,133,136);fill-rule:nonzero;"/>
                    <path d="M924.353,146.067l-1.774,8.243c-0.077,0.324 -0.115,0.639 -0.115,0.944c0,0.725 0.2,1.264 0.601,1.617c0.401,0.353 0.935,0.53 1.603,0.53c1.011,-0 1.789,-0.33 2.332,-0.988c0.544,-0.658 0.95,-1.588 1.217,-2.79l1.603,-7.556l3.606,-0l-2.347,10.818l0.315,0.172l1.03,-0.744l1.803,2.633l-1.345,0.973c-0.363,0.267 -0.739,0.458 -1.131,0.573c-0.391,0.114 -0.777,0.171 -1.159,0.171c-0.782,0 -1.469,-0.224 -2.06,-0.672c-0.592,-0.449 -0.926,-1.102 -1.002,-1.961l-0.515,0c-0.42,0.973 -0.988,1.655 -1.703,2.047c-0.716,0.391 -1.522,0.586 -2.419,0.586c-1.24,0 -2.251,-0.376 -3.033,-1.13c-0.783,-0.754 -1.174,-1.808 -1.174,-3.163c0,-0.477 0.057,-0.992 0.172,-1.545l1.889,-8.758l3.606,-0Z" style="fill:rgb(131,133,136);fill-rule:nonzero;"/>
                    <path d="M947.822,150.303c0.038,-0.153 0.057,-0.286 0.057,-0.401c0,-0.534 -0.258,-0.801 -0.773,-0.801c-0.305,-0 -0.534,0.1 -0.687,0.3c-0.152,0.201 -0.257,0.444 -0.314,0.73l-2.176,10.132l-3.606,-0l2.118,-9.96c0.038,-0.191 0.057,-0.325 0.057,-0.401c0,-0.534 -0.248,-0.801 -0.744,-0.801c-0.553,-0 -0.897,0.343 -1.03,1.03l-2.175,10.132l-3.578,-0l3.005,-14.196l3.607,-0l-0.287,1.374l0.516,-0c0.152,-0.592 0.438,-1.035 0.858,-1.331c0.42,-0.296 0.897,-0.444 1.431,-0.444c0.63,0 1.107,0.172 1.431,0.515c0.325,0.344 0.534,0.764 0.63,1.26l0.515,-0c0.21,-0.515 0.529,-0.94 0.959,-1.274c0.429,-0.334 0.987,-0.501 1.674,-0.501c0.801,0 1.417,0.258 1.846,0.773c0.429,0.515 0.644,1.135 0.644,1.86c0,0.134 -0.005,0.253 -0.014,0.358c-0.01,0.105 -0.034,0.234 -0.072,0.386l-1.688,7.814l0.286,0.2l0.973,-0.687l1.803,2.691l-1.288,0.858c-0.382,0.267 -0.768,0.458 -1.159,0.573c-0.391,0.114 -0.778,0.171 -1.159,0.171c-0.42,0 -0.816,-0.071 -1.188,-0.214c-0.372,-0.143 -0.701,-0.349 -0.987,-0.616c-0.287,-0.267 -0.511,-0.596 -0.673,-0.987c-0.162,-0.391 -0.243,-0.835 -0.243,-1.331c-0,-0.267 0.038,-0.591 0.114,-0.973l1.317,-6.239Z" style="fill:rgb(131,133,136);fill-rule:nonzero;"/>
                    <circle cx="900.498" cy="336.402" r="19.083" style="fill:rgb(209,201,227);"/>
                    <circle cx="900.498" cy="530.938" r="19.083" style="fill:rgb(209,201,227);"/>
                    <circle cx="900.498" cy="728.953" r="19.083" style="fill:rgb(209,201,227);"/>
                    <circle cx="900.498" cy="923.105" r="19.083" style="fill:rgb(203,202,190);"/>
                    <path d="M900.592,322.321c4.244,7.415 8.53,14.837 12.829,22.22c-8.543,-0.031 -17.114,-0.031 -25.658,0c4.3,-7.383 8.585,-14.805 12.829,-22.22Z" style="fill:rgb(125,97,170);"/>
                    <path d="M900.498,516.172l14.813,14.813l-14.813,14.814l-14.814,-14.814l14.814,-14.813Z" style="fill:rgb(125,97,170);"/>
                    <path d="M900.592,713.984l14.089,10.236l-5.382,16.562l-17.414,-0l-5.381,-16.562l14.088,-10.236Z" style="fill:rgb(125,97,170);"/>
                    <path d="M900.498,908.292l12.829,7.407l-0,14.813l-12.829,7.407l-12.829,-7.407l0,-14.813l12.829,-7.407Z" style="fill:rgb(131,133,136);"/>
                </g>
            </g>
        </g>
        <g id="Drills">
        </g>
        <g id="Silk">
        </g>
        <g id="LEDs">
        </g>
    </g>
    <g id="Right-in" serif:id="Right in">
        <path d="M668.277,275.928l5.339,-0.002l0.142,-4.523l20.66,-0.007l-0.142,4.523l5.379,-0.002l0.162,-5.149l7.601,-0.002c0.484,-1.679 2.074,-2.924 3.919,-2.925l69.677,-0.023c2.178,-0.001 3.891,1.733 3.824,3.869l-0.061,1.926l2.712,-0.001l-0.196,6.207l41.795,-0.014l-0.025,0.781l5.184,-0.001c1.216,-0.001 2.173,0.968 2.136,2.161l0.017,-0.564l14.75,-0.82l5.405,4.367l-0.156,5.234l-5.543,4.347l-14.823,-1.454l-0.008,0.276c-0.038,1.193 -1.056,2.162 -2.272,2.163l-5.183,0.002l-0.016,0.507l-41.795,0.014l-0.194,6.193l-2.711,0.001l-0.063,1.988c-0.067,2.136 -1.89,3.872 -4.067,3.872l-69.677,0.024c-1.775,0 -3.242,-1.151 -3.687,-2.734l-7.656,0.003l0.167,-5.313l-5.378,0.002l-0.144,4.578l-20.66,0.007l0.144,-4.578l-5.34,0.002l0.755,-24.002l-0.898,28.58l-19.527,0.007c-0.631,0 -1.128,-0.503 -1.109,-1.122l0.366,-31.792c0.019,-0.619 0.548,-1.122 1.179,-1.123l20.16,-0.006l-0.142,4.523Zm-21.304,0.007l-0.15,24.935l0.15,-24.935Z" style="fill:rgb(125,97,170);"/>
        <path d="M643.773,288.274l0.075,-12.358c0.001,-0.229 0.027,-0.452 0.075,-0.667l0.032,-2.75c0,-0.021 0.001,-0.042 0.001,-0.063c0.072,-2.274 1.984,-4.149 4.302,-4.15l20.16,-0.006c0.846,-0.001 1.656,0.342 2.245,0.95c0.163,0.168 0.305,0.352 0.425,0.549c0.549,-0.901 1.541,-1.501 2.669,-1.501l20.66,-0.007c0.846,-0 1.656,0.342 2.245,0.95c0.1,0.103 0.193,0.213 0.277,0.327c0.476,-1.121 1.587,-1.904 2.877,-1.905c-0,0 5.725,-0.002 5.724,-0.001c1.316,-1.766 3.435,-2.925 5.796,-2.926l69.677,-0.023c3.531,-0.001 6.37,2.521 6.873,5.819c0.698,0.089 1.351,0.413 1.846,0.925c0.589,0.607 0.907,1.427 0.88,2.273l-0.094,2.983l38.569,-0.013c0.764,-0 1.499,0.279 2.067,0.781l3.092,-0.001c1.466,-0.001 2.772,0.574 3.717,1.505l13.013,-0.724c0.774,-0.043 1.535,0.203 2.138,0.69l5.405,4.368c0.759,0.614 1.188,1.547 1.159,2.523l-0.155,5.234c-0.028,0.927 -0.466,1.794 -1.196,2.366l-5.543,4.347c-0.633,0.496 -1.433,0.729 -2.233,0.651l-12.439,-1.22c-0.986,1.338 -2.578,2.219 -4.358,2.22l-3.491,0.001c-0.492,0.322 -1.079,0.508 -1.708,0.508c-0,0 -38.767,0.013 -38.767,0.013l-0.1,3.168c-0.05,1.606 -1.306,2.897 -2.883,3.017c-0.606,3.308 -3.572,5.869 -7.08,5.87l-69.677,0.024c-2.3,0.001 -4.304,-1.075 -5.562,-2.733l-5.781,0.002c-0.846,-0 -1.656,-0.343 -2.244,-0.95c-0.279,-0.288 -0.497,-0.624 -0.647,-0.987c-0.572,0.734 -1.465,1.204 -2.464,1.204l-20.66,0.007c-0.846,0.001 -1.656,-0.342 -2.245,-0.95c-0.163,-0.168 -0.305,-0.352 -0.425,-0.549c-0.549,0.902 -1.541,1.501 -2.669,1.501l-19.527,0.007c-2.416,0.001 -4.289,-1.943 -4.234,-4.303l0.183,-15.996Zm192.252,8.983l0.245,-0.238l-0.018,-0.001l-0.227,0.239Zm-168.532,3.606l5.34,-0.002l-0.144,4.578l20.66,-0.007l0.144,-4.578l5.378,-0.002l-0.167,5.313l7.656,-0.003c0.445,1.583 1.912,2.734 3.687,2.734l69.677,-0.024c2.177,-0 4,-1.736 4.067,-3.872l0.063,-1.988l2.711,-0.001l0.194,-6.193l41.795,-0.014l0.016,-0.507l5.183,-0.002c0.005,-0 0.011,-0 0.016,-0c0.004,0.004 0.008,0.008 0.012,0.012c0.588,0.607 1.398,0.95 2.244,0.95l-1.194,-1.234c0.059,-0.032 0.116,-0.066 0.172,-0.102l1.03,1.06l2.935,-2.837l0.014,0.001l-2.685,2.825c0.009,-0 0.017,-0.001 0.026,-0.002l2.811,-2.724c0.004,-0.028 0.007,-0.055 0.01,-0.083l11.712,1.149l5.543,-4.347l0.156,-5.234l-5.405,-4.367l-14.75,0.82l-0.017,0.564c0.037,-1.193 -0.92,-2.162 -2.136,-2.161l-5.184,0.001l0.025,-0.781l-41.795,0.014l0.196,-6.207l-2.712,0.001l0.061,-1.926c0.067,-2.136 -1.646,-3.87 -3.824,-3.869l-69.677,0.023c-1.845,0.001 -3.435,1.246 -3.919,2.925l-7.601,0.002l-0.162,5.149l-5.379,0.002l0.142,-4.523l-20.66,0.007l-0.142,4.523l-5.339,0.002l0.142,-4.523l-20.16,0.006c-0.631,0.001 -1.16,0.504 -1.179,1.123l-0.366,31.792c-0.019,0.619 0.478,1.122 1.109,1.122l19.527,-0.007l0.143,-4.578Z" style="fill:white;"/>
        <rect x="828.939" y="280.586" width="3.964" height="15.71" style="fill:rgb(35,31,32);"/>
        <rect x="439.192" y="278.39" width="211.005" height="19.934" style="fill:rgb(125,97,170);"/>
    </g>
</svg>
